<?xml version="1.0" encoding="utf-8" standalone="no"?>
<!DOCTYPE svg PUBLIC "-//W3C//DTD SVG 1.1//EN"
  "http://www.w3.org/Graphics/SVG/1.1/DTD/svg11.dtd">
<svg xmlns:xlink="http://www.w3.org/1999/xlink" width="1440pt" height="720pt" viewBox="0 0 1440 720" xmlns="http://www.w3.org/2000/svg" version="1.1">
 <metadata>
  <rdf:RDF xmlns:dc="http://purl.org/dc/elements/1.1/" xmlns:cc="http://creativecommons.org/ns#" xmlns:rdf="http://www.w3.org/1999/02/22-rdf-syntax-ns#">
   <cc:Work>
    <dc:type rdf:resource="http://purl.org/dc/dcmitype/StillImage"/>
    <dc:date>2023-04-30T19:38:49.689999</dc:date>
    <dc:format>image/svg+xml</dc:format>
    <dc:creator>
     <cc:Agent>
      <dc:title>Matplotlib v3.6.3, https://matplotlib.org/</dc:title>
     </cc:Agent>
    </dc:creator>
   </cc:Work>
  </rdf:RDF>
 </metadata>
 <defs>
  <style type="text/css">*{stroke-linejoin: round; stroke-linecap: butt}</style>
 </defs>
 <g id="figure_1">
  <g id="patch_1">
   <path d="M 0 720 
L 1440 720 
L 1440 0 
L 0 0 
L 0 720 
z
" style="fill: none"/>
  </g>
  <g id="axes_1">
   <g id="patch_2">
    <path d="M 180 640.8 
L 1296 640.8 
L 1296 86.4 
L 180 86.4 
L 180 640.8 
z
" style="fill: none"/>
   </g>
   <g id="matplotlib.axis_1">
    <g id="xtick_1">
     <g id="line2d_1">
      <defs>
       <path id="m4266290d0e" d="M 0 0 
L 0 3.5 
" style="stroke: #000000; stroke-width: 0.8"/>
      </defs>
      <g>
       <use xlink:href="#m4266290d0e" x="230.727273" y="640.8" style="stroke: #000000; stroke-width: 0.8"/>
      </g>
     </g>
     <g id="text_1">
      <!-- −5 -->
      <g transform="translate(223.356179 655.398438) scale(0.1 -0.1)">
       <defs>
        <path id="DejaVuSans-2212" d="M 678 2272 
L 4684 2272 
L 4684 1741 
L 678 1741 
L 678 2272 
z
" transform="scale(0.015625)"/>
        <path id="DejaVuSans-35" d="M 691 4666 
L 3169 4666 
L 3169 4134 
L 1269 4134 
L 1269 2991 
Q 1406 3038 1543 3061 
Q 1681 3084 1819 3084 
Q 2600 3084 3056 2656 
Q 3513 2228 3513 1497 
Q 3513 744 3044 326 
Q 2575 -91 1722 -91 
Q 1428 -91 1123 -41 
Q 819 9 494 109 
L 494 744 
Q 775 591 1075 516 
Q 1375 441 1709 441 
Q 2250 441 2565 725 
Q 2881 1009 2881 1497 
Q 2881 1984 2565 2268 
Q 2250 2553 1709 2553 
Q 1456 2553 1204 2497 
Q 953 2441 691 2322 
L 691 4666 
z
" transform="scale(0.015625)"/>
       </defs>
       <use xlink:href="#DejaVuSans-2212"/>
       <use xlink:href="#DejaVuSans-35" x="83.789062"/>
      </g>
     </g>
    </g>
    <g id="xtick_2">
     <g id="line2d_2">
      <g>
       <use xlink:href="#m4266290d0e" x="389.25" y="640.8" style="stroke: #000000; stroke-width: 0.8"/>
      </g>
     </g>
     <g id="text_2">
      <!-- 0 -->
      <g transform="translate(386.06875 655.398438) scale(0.1 -0.1)">
       <defs>
        <path id="DejaVuSans-30" d="M 2034 4250 
Q 1547 4250 1301 3770 
Q 1056 3291 1056 2328 
Q 1056 1369 1301 889 
Q 1547 409 2034 409 
Q 2525 409 2770 889 
Q 3016 1369 3016 2328 
Q 3016 3291 2770 3770 
Q 2525 4250 2034 4250 
z
M 2034 4750 
Q 2819 4750 3233 4129 
Q 3647 3509 3647 2328 
Q 3647 1150 3233 529 
Q 2819 -91 2034 -91 
Q 1250 -91 836 529 
Q 422 1150 422 2328 
Q 422 3509 836 4129 
Q 1250 4750 2034 4750 
z
" transform="scale(0.015625)"/>
       </defs>
       <use xlink:href="#DejaVuSans-30"/>
      </g>
     </g>
    </g>
    <g id="xtick_3">
     <g id="line2d_3">
      <g>
       <use xlink:href="#m4266290d0e" x="547.772727" y="640.8" style="stroke: #000000; stroke-width: 0.8"/>
      </g>
     </g>
     <g id="text_3">
      <!-- 5 -->
      <g transform="translate(544.591477 655.398438) scale(0.1 -0.1)">
       <use xlink:href="#DejaVuSans-35"/>
      </g>
     </g>
    </g>
    <g id="xtick_4">
     <g id="line2d_4">
      <g>
       <use xlink:href="#m4266290d0e" x="706.295455" y="640.8" style="stroke: #000000; stroke-width: 0.8"/>
      </g>
     </g>
     <g id="text_4">
      <!-- 10 -->
      <g transform="translate(699.932955 655.398438) scale(0.1 -0.1)">
       <defs>
        <path id="DejaVuSans-31" d="M 794 531 
L 1825 531 
L 1825 4091 
L 703 3866 
L 703 4441 
L 1819 4666 
L 2450 4666 
L 2450 531 
L 3481 531 
L 3481 0 
L 794 0 
L 794 531 
z
" transform="scale(0.015625)"/>
       </defs>
       <use xlink:href="#DejaVuSans-31"/>
       <use xlink:href="#DejaVuSans-30" x="63.623047"/>
      </g>
     </g>
    </g>
    <g id="xtick_5">
     <g id="line2d_5">
      <g>
       <use xlink:href="#m4266290d0e" x="864.818182" y="640.8" style="stroke: #000000; stroke-width: 0.8"/>
      </g>
     </g>
     <g id="text_5">
      <!-- 15 -->
      <g transform="translate(858.455682 655.398438) scale(0.1 -0.1)">
       <use xlink:href="#DejaVuSans-31"/>
       <use xlink:href="#DejaVuSans-35" x="63.623047"/>
      </g>
     </g>
    </g>
    <g id="xtick_6">
     <g id="line2d_6">
      <g>
       <use xlink:href="#m4266290d0e" x="1023.340909" y="640.8" style="stroke: #000000; stroke-width: 0.8"/>
      </g>
     </g>
     <g id="text_6">
      <!-- 20 -->
      <g transform="translate(1016.978409 655.398438) scale(0.1 -0.1)">
       <defs>
        <path id="DejaVuSans-32" d="M 1228 531 
L 3431 531 
L 3431 0 
L 469 0 
L 469 531 
Q 828 903 1448 1529 
Q 2069 2156 2228 2338 
Q 2531 2678 2651 2914 
Q 2772 3150 2772 3378 
Q 2772 3750 2511 3984 
Q 2250 4219 1831 4219 
Q 1534 4219 1204 4116 
Q 875 4013 500 3803 
L 500 4441 
Q 881 4594 1212 4672 
Q 1544 4750 1819 4750 
Q 2544 4750 2975 4387 
Q 3406 4025 3406 3419 
Q 3406 3131 3298 2873 
Q 3191 2616 2906 2266 
Q 2828 2175 2409 1742 
Q 1991 1309 1228 531 
z
" transform="scale(0.015625)"/>
       </defs>
       <use xlink:href="#DejaVuSans-32"/>
       <use xlink:href="#DejaVuSans-30" x="63.623047"/>
      </g>
     </g>
    </g>
    <g id="xtick_7">
     <g id="line2d_7">
      <g>
       <use xlink:href="#m4266290d0e" x="1181.863636" y="640.8" style="stroke: #000000; stroke-width: 0.8"/>
      </g>
     </g>
     <g id="text_7">
      <!-- 25 -->
      <g transform="translate(1175.501136 655.398438) scale(0.1 -0.1)">
       <use xlink:href="#DejaVuSans-32"/>
       <use xlink:href="#DejaVuSans-35" x="63.623047"/>
      </g>
     </g>
    </g>
    <g id="text_8">
     <!-- X-Axis Coordinate -->
     <g transform="translate(693.760156 669.076563) scale(0.1 -0.1)">
      <defs>
       <path id="DejaVuSans-58" d="M 403 4666 
L 1081 4666 
L 2241 2931 
L 3406 4666 
L 4084 4666 
L 2584 2425 
L 4184 0 
L 3506 0 
L 2194 1984 
L 872 0 
L 191 0 
L 1856 2491 
L 403 4666 
z
" transform="scale(0.015625)"/>
       <path id="DejaVuSans-2d" d="M 313 2009 
L 1997 2009 
L 1997 1497 
L 313 1497 
L 313 2009 
z
" transform="scale(0.015625)"/>
       <path id="DejaVuSans-41" d="M 2188 4044 
L 1331 1722 
L 3047 1722 
L 2188 4044 
z
M 1831 4666 
L 2547 4666 
L 4325 0 
L 3669 0 
L 3244 1197 
L 1141 1197 
L 716 0 
L 50 0 
L 1831 4666 
z
" transform="scale(0.015625)"/>
       <path id="DejaVuSans-78" d="M 3513 3500 
L 2247 1797 
L 3578 0 
L 2900 0 
L 1881 1375 
L 863 0 
L 184 0 
L 1544 1831 
L 300 3500 
L 978 3500 
L 1906 2253 
L 2834 3500 
L 3513 3500 
z
" transform="scale(0.015625)"/>
       <path id="DejaVuSans-69" d="M 603 3500 
L 1178 3500 
L 1178 0 
L 603 0 
L 603 3500 
z
M 603 4863 
L 1178 4863 
L 1178 4134 
L 603 4134 
L 603 4863 
z
" transform="scale(0.015625)"/>
       <path id="DejaVuSans-73" d="M 2834 3397 
L 2834 2853 
Q 2591 2978 2328 3040 
Q 2066 3103 1784 3103 
Q 1356 3103 1142 2972 
Q 928 2841 928 2578 
Q 928 2378 1081 2264 
Q 1234 2150 1697 2047 
L 1894 2003 
Q 2506 1872 2764 1633 
Q 3022 1394 3022 966 
Q 3022 478 2636 193 
Q 2250 -91 1575 -91 
Q 1294 -91 989 -36 
Q 684 19 347 128 
L 347 722 
Q 666 556 975 473 
Q 1284 391 1588 391 
Q 1994 391 2212 530 
Q 2431 669 2431 922 
Q 2431 1156 2273 1281 
Q 2116 1406 1581 1522 
L 1381 1569 
Q 847 1681 609 1914 
Q 372 2147 372 2553 
Q 372 3047 722 3315 
Q 1072 3584 1716 3584 
Q 2034 3584 2315 3537 
Q 2597 3491 2834 3397 
z
" transform="scale(0.015625)"/>
       <path id="DejaVuSans-20" transform="scale(0.015625)"/>
       <path id="DejaVuSans-43" d="M 4122 4306 
L 4122 3641 
Q 3803 3938 3442 4084 
Q 3081 4231 2675 4231 
Q 1875 4231 1450 3742 
Q 1025 3253 1025 2328 
Q 1025 1406 1450 917 
Q 1875 428 2675 428 
Q 3081 428 3442 575 
Q 3803 722 4122 1019 
L 4122 359 
Q 3791 134 3420 21 
Q 3050 -91 2638 -91 
Q 1578 -91 968 557 
Q 359 1206 359 2328 
Q 359 3453 968 4101 
Q 1578 4750 2638 4750 
Q 3056 4750 3426 4639 
Q 3797 4528 4122 4306 
z
" transform="scale(0.015625)"/>
       <path id="DejaVuSans-6f" d="M 1959 3097 
Q 1497 3097 1228 2736 
Q 959 2375 959 1747 
Q 959 1119 1226 758 
Q 1494 397 1959 397 
Q 2419 397 2687 759 
Q 2956 1122 2956 1747 
Q 2956 2369 2687 2733 
Q 2419 3097 1959 3097 
z
M 1959 3584 
Q 2709 3584 3137 3096 
Q 3566 2609 3566 1747 
Q 3566 888 3137 398 
Q 2709 -91 1959 -91 
Q 1206 -91 779 398 
Q 353 888 353 1747 
Q 353 2609 779 3096 
Q 1206 3584 1959 3584 
z
" transform="scale(0.015625)"/>
       <path id="DejaVuSans-72" d="M 2631 2963 
Q 2534 3019 2420 3045 
Q 2306 3072 2169 3072 
Q 1681 3072 1420 2755 
Q 1159 2438 1159 1844 
L 1159 0 
L 581 0 
L 581 3500 
L 1159 3500 
L 1159 2956 
Q 1341 3275 1631 3429 
Q 1922 3584 2338 3584 
Q 2397 3584 2469 3576 
Q 2541 3569 2628 3553 
L 2631 2963 
z
" transform="scale(0.015625)"/>
       <path id="DejaVuSans-64" d="M 2906 2969 
L 2906 4863 
L 3481 4863 
L 3481 0 
L 2906 0 
L 2906 525 
Q 2725 213 2448 61 
Q 2172 -91 1784 -91 
Q 1150 -91 751 415 
Q 353 922 353 1747 
Q 353 2572 751 3078 
Q 1150 3584 1784 3584 
Q 2172 3584 2448 3432 
Q 2725 3281 2906 2969 
z
M 947 1747 
Q 947 1113 1208 752 
Q 1469 391 1925 391 
Q 2381 391 2643 752 
Q 2906 1113 2906 1747 
Q 2906 2381 2643 2742 
Q 2381 3103 1925 3103 
Q 1469 3103 1208 2742 
Q 947 2381 947 1747 
z
" transform="scale(0.015625)"/>
       <path id="DejaVuSans-6e" d="M 3513 2113 
L 3513 0 
L 2938 0 
L 2938 2094 
Q 2938 2591 2744 2837 
Q 2550 3084 2163 3084 
Q 1697 3084 1428 2787 
Q 1159 2491 1159 1978 
L 1159 0 
L 581 0 
L 581 3500 
L 1159 3500 
L 1159 2956 
Q 1366 3272 1645 3428 
Q 1925 3584 2291 3584 
Q 2894 3584 3203 3211 
Q 3513 2838 3513 2113 
z
" transform="scale(0.015625)"/>
       <path id="DejaVuSans-61" d="M 2194 1759 
Q 1497 1759 1228 1600 
Q 959 1441 959 1056 
Q 959 750 1161 570 
Q 1363 391 1709 391 
Q 2188 391 2477 730 
Q 2766 1069 2766 1631 
L 2766 1759 
L 2194 1759 
z
M 3341 1997 
L 3341 0 
L 2766 0 
L 2766 531 
Q 2569 213 2275 61 
Q 1981 -91 1556 -91 
Q 1019 -91 701 211 
Q 384 513 384 1019 
Q 384 1609 779 1909 
Q 1175 2209 1959 2209 
L 2766 2209 
L 2766 2266 
Q 2766 2663 2505 2880 
Q 2244 3097 1772 3097 
Q 1472 3097 1187 3025 
Q 903 2953 641 2809 
L 641 3341 
Q 956 3463 1253 3523 
Q 1550 3584 1831 3584 
Q 2591 3584 2966 3190 
Q 3341 2797 3341 1997 
z
" transform="scale(0.015625)"/>
       <path id="DejaVuSans-74" d="M 1172 4494 
L 1172 3500 
L 2356 3500 
L 2356 3053 
L 1172 3053 
L 1172 1153 
Q 1172 725 1289 603 
Q 1406 481 1766 481 
L 2356 481 
L 2356 0 
L 1766 0 
Q 1100 0 847 248 
Q 594 497 594 1153 
L 594 3053 
L 172 3053 
L 172 3500 
L 594 3500 
L 594 4494 
L 1172 4494 
z
" transform="scale(0.015625)"/>
       <path id="DejaVuSans-65" d="M 3597 1894 
L 3597 1613 
L 953 1613 
Q 991 1019 1311 708 
Q 1631 397 2203 397 
Q 2534 397 2845 478 
Q 3156 559 3463 722 
L 3463 178 
Q 3153 47 2828 -22 
Q 2503 -91 2169 -91 
Q 1331 -91 842 396 
Q 353 884 353 1716 
Q 353 2575 817 3079 
Q 1281 3584 2069 3584 
Q 2775 3584 3186 3129 
Q 3597 2675 3597 1894 
z
M 3022 2063 
Q 3016 2534 2758 2815 
Q 2500 3097 2075 3097 
Q 1594 3097 1305 2825 
Q 1016 2553 972 2059 
L 3022 2063 
z
" transform="scale(0.015625)"/>
      </defs>
      <use xlink:href="#DejaVuSans-58"/>
      <use xlink:href="#DejaVuSans-2d" x="63.505859"/>
      <use xlink:href="#DejaVuSans-41" x="97.339844"/>
      <use xlink:href="#DejaVuSans-78" x="165.748047"/>
      <use xlink:href="#DejaVuSans-69" x="224.927734"/>
      <use xlink:href="#DejaVuSans-73" x="252.710938"/>
      <use xlink:href="#DejaVuSans-20" x="304.810547"/>
      <use xlink:href="#DejaVuSans-43" x="336.597656"/>
      <use xlink:href="#DejaVuSans-6f" x="406.421875"/>
      <use xlink:href="#DejaVuSans-6f" x="467.603516"/>
      <use xlink:href="#DejaVuSans-72" x="528.785156"/>
      <use xlink:href="#DejaVuSans-64" x="568.148438"/>
      <use xlink:href="#DejaVuSans-69" x="631.625"/>
      <use xlink:href="#DejaVuSans-6e" x="659.408203"/>
      <use xlink:href="#DejaVuSans-61" x="722.787109"/>
      <use xlink:href="#DejaVuSans-74" x="784.066406"/>
      <use xlink:href="#DejaVuSans-65" x="823.275391"/>
     </g>
    </g>
   </g>
   <g id="matplotlib.axis_2">
    <g id="ytick_1">
     <g id="line2d_8">
      <defs>
       <path id="m81b23c67d6" d="M 0 0 
L -3.5 0 
" style="stroke: #000000; stroke-width: 0.8"/>
      </defs>
      <g>
       <use xlink:href="#m81b23c67d6" x="180" y="596.215385" style="stroke: #000000; stroke-width: 0.8"/>
      </g>
     </g>
     <g id="text_9">
      <!-- −20 -->
      <g transform="translate(151.895312 600.014603) scale(0.1 -0.1)">
       <use xlink:href="#DejaVuSans-2212"/>
       <use xlink:href="#DejaVuSans-32" x="83.789062"/>
       <use xlink:href="#DejaVuSans-30" x="147.412109"/>
      </g>
     </g>
    </g>
    <g id="ytick_2">
     <g id="line2d_9">
      <g>
       <use xlink:href="#m81b23c67d6" x="180" y="499.292308" style="stroke: #000000; stroke-width: 0.8"/>
      </g>
     </g>
     <g id="text_10">
      <!-- −15 -->
      <g transform="translate(151.895312 503.091526) scale(0.1 -0.1)">
       <use xlink:href="#DejaVuSans-2212"/>
       <use xlink:href="#DejaVuSans-31" x="83.789062"/>
       <use xlink:href="#DejaVuSans-35" x="147.412109"/>
      </g>
     </g>
    </g>
    <g id="ytick_3">
     <g id="line2d_10">
      <g>
       <use xlink:href="#m81b23c67d6" x="180" y="402.369231" style="stroke: #000000; stroke-width: 0.8"/>
      </g>
     </g>
     <g id="text_11">
      <!-- −10 -->
      <g transform="translate(151.895312 406.16845) scale(0.1 -0.1)">
       <use xlink:href="#DejaVuSans-2212"/>
       <use xlink:href="#DejaVuSans-31" x="83.789062"/>
       <use xlink:href="#DejaVuSans-30" x="147.412109"/>
      </g>
     </g>
    </g>
    <g id="ytick_4">
     <g id="line2d_11">
      <g>
       <use xlink:href="#m81b23c67d6" x="180" y="305.446154" style="stroke: #000000; stroke-width: 0.8"/>
      </g>
     </g>
     <g id="text_12">
      <!-- −5 -->
      <g transform="translate(158.257812 309.245373) scale(0.1 -0.1)">
       <use xlink:href="#DejaVuSans-2212"/>
       <use xlink:href="#DejaVuSans-35" x="83.789062"/>
      </g>
     </g>
    </g>
    <g id="ytick_5">
     <g id="line2d_12">
      <g>
       <use xlink:href="#m81b23c67d6" x="180" y="208.523077" style="stroke: #000000; stroke-width: 0.8"/>
      </g>
     </g>
     <g id="text_13">
      <!-- 0 -->
      <g transform="translate(166.6375 212.322296) scale(0.1 -0.1)">
       <use xlink:href="#DejaVuSans-30"/>
      </g>
     </g>
    </g>
    <g id="ytick_6">
     <g id="line2d_13">
      <g>
       <use xlink:href="#m81b23c67d6" x="180" y="111.6" style="stroke: #000000; stroke-width: 0.8"/>
      </g>
     </g>
     <g id="text_14">
      <!-- 5 -->
      <g transform="translate(166.6375 115.399219) scale(0.1 -0.1)">
       <use xlink:href="#DejaVuSans-35"/>
      </g>
     </g>
    </g>
    <g id="text_15">
     <!-- Y-Axis Coordinate -->
     <g transform="translate(145.815625 407.125) rotate(-90) scale(0.1 -0.1)">
      <defs>
       <path id="DejaVuSans-59" d="M -13 4666 
L 666 4666 
L 1959 2747 
L 3244 4666 
L 3922 4666 
L 2272 2222 
L 2272 0 
L 1638 0 
L 1638 2222 
L -13 4666 
z
" transform="scale(0.015625)"/>
      </defs>
      <use xlink:href="#DejaVuSans-59"/>
      <use xlink:href="#DejaVuSans-2d" x="49.208984"/>
      <use xlink:href="#DejaVuSans-41" x="83.042969"/>
      <use xlink:href="#DejaVuSans-78" x="151.451172"/>
      <use xlink:href="#DejaVuSans-69" x="210.630859"/>
      <use xlink:href="#DejaVuSans-73" x="238.414062"/>
      <use xlink:href="#DejaVuSans-20" x="290.513672"/>
      <use xlink:href="#DejaVuSans-43" x="322.300781"/>
      <use xlink:href="#DejaVuSans-6f" x="392.125"/>
      <use xlink:href="#DejaVuSans-6f" x="453.306641"/>
      <use xlink:href="#DejaVuSans-72" x="514.488281"/>
      <use xlink:href="#DejaVuSans-64" x="553.851562"/>
      <use xlink:href="#DejaVuSans-69" x="617.328125"/>
      <use xlink:href="#DejaVuSans-6e" x="645.111328"/>
      <use xlink:href="#DejaVuSans-61" x="708.490234"/>
      <use xlink:href="#DejaVuSans-74" x="769.769531"/>
      <use xlink:href="#DejaVuSans-65" x="808.978516"/>
     </g>
    </g>
   </g>
   <g id="line2d_14">
    <path d="M 389.25 208.523077 
L 357.545455 208.523077 
L 420.954545 208.523077 
L 420.954545 189.138462 
L 484.363636 189.138462 
L 484.363636 208.523077 
L 516.068182 208.523077 
L 452.659091 208.523077 
L 452.659091 227.907692 
L 357.545455 227.907692 
L 357.545455 247.292308 
L 389.25 247.292308 
L 325.840909 247.292308 
L 357.545455 247.292308 
L 357.545455 227.907692 
L 325.840909 227.907692 
L 357.545455 227.907692 
L 357.545455 208.523077 
L 325.840909 208.523077 
L 325.840909 227.907692 
L 294.136364 227.907692 
L 389.25 227.907692 
L 357.545455 227.907692 
L 357.545455 247.292308 
L 357.545455 208.523077 
L 420.954545 208.523077 
L 389.25 208.523077 
L 389.25 189.138462 
L 325.840909 189.138462 
L 325.840909 169.753846 
L 294.136364 169.753846 
L 294.136364 189.138462 
L 325.840909 189.138462 
L 325.840909 169.753846 
L 357.545455 169.753846 
L 325.840909 169.753846 
L 325.840909 208.523077 
L 325.840909 189.138462 
L 262.431818 189.138462 
L 262.431818 208.523077 
L 230.727273 208.523077 
L 262.431818 208.523077 
L 262.431818 169.753846 
L 325.840909 169.753846 
L 325.840909 208.523077 
L 294.136364 208.523077 
L 325.840909 208.523077 
L 325.840909 169.753846 
L 294.136364 169.753846 
L 325.840909 169.753846 
L 325.840909 189.138462 
L 389.25 189.138462 
L 357.545455 189.138462 
L 357.545455 130.984615 
L 389.25 130.984615 
L 389.25 169.753846 
L 389.25 169.753846 
L 357.545455 169.753846 
L 357.545455 208.523077 
L 389.25 208.523077 
L 389.25 266.676923 
L 389.25 247.292308 
L 294.136364 247.292308 
L 389.25 247.292308 
L 389.25 286.061538 
L 389.25 286.061538 
L 325.840909 286.061538 
L 325.840909 324.830769 
L 325.840909 305.446154 
L 357.545455 305.446154 
L 357.545455 305.446154 
L 357.545455 286.061538 
L 389.25 286.061538 
L 389.25 247.292308 
L 389.25 266.676923 
L 357.545455 266.676923 
L 357.545455 266.676923 
L 357.545455 305.446154 
L 357.545455 266.676923 
L 389.25 266.676923 
L 357.545455 266.676923 
L 357.545455 286.061538 
L 389.25 286.061538 
L 389.25 344.215385 
L 389.25 324.830769 
L 357.545455 324.830769 
L 357.545455 344.215385 
L 389.25 344.215385 
L 389.25 324.830769 
L 357.545455 324.830769 
L 389.25 324.830769 
L 389.25 344.215385 
L 420.954545 344.215385 
L 389.25 344.215385 
L 389.25 382.984615 
L 420.954545 382.984615 
L 389.25 382.984615 
L 389.25 402.369231 
L 389.25 402.369231 
L 325.840909 402.369231 
L 325.840909 421.753846 
L 325.840909 402.369231 
L 420.954545 402.369231 
L 389.25 402.369231 
L 389.25 421.753846 
L 452.659091 421.753846 
L 420.954545 421.753846 
L 420.954545 402.369231 
L 389.25 402.369231 
L 389.25 441.138462 
L 420.954545 441.138462 
L 389.25 441.138462 
L 389.25 460.523077 
L 389.25 441.138462 
L 420.954545 441.138462 
L 420.954545 460.523077 
L 389.25 460.523077 
L 389.25 518.676923 
L 389.25 499.292308 
L 452.659091 499.292308 
L 452.659091 479.907692 
L 452.659091 518.676923 
L 516.068182 518.676923 
L 516.068182 518.676923 
L 516.068182 538.061538 
L 516.068182 518.676923 
L 484.363636 518.676923 
L 484.363636 499.292308 
L 484.363636 518.676923 
L 516.068182 518.676923 
L 516.068182 479.907692 
L 484.363636 479.907692 
L 484.363636 460.523077 
L 516.068182 460.523077 
L 516.068182 441.138462 
L 484.363636 441.138462 
L 547.772727 441.138462 
L 547.772727 421.753846 
L 547.772727 441.138462 
L 579.477273 441.138462 
L 579.477273 460.523077 
L 547.772727 460.523077 
L 611.181818 460.523077 
L 547.772727 460.523077 
L 547.772727 441.138462 
L 516.068182 441.138462 
L 516.068182 460.523077 
L 547.772727 460.523077 
L 547.772727 402.369231 
L 547.772727 441.138462 
L 516.068182 441.138462 
L 516.068182 499.292308 
L 516.068182 460.523077 
L 547.772727 460.523077 
L 547.772727 479.907692 
L 579.477273 479.907692 
L 547.772727 479.907692 
L 547.772727 460.523077 
L 579.477273 460.523077 
L 579.477273 441.138462 
L 579.477273 441.138462 
L 547.772727 441.138462 
L 547.772727 402.369231 
L 579.477273 402.369231 
L 579.477273 382.984615 
L 611.181818 382.984615 
L 611.181818 363.6 
L 579.477273 363.6 
L 579.477273 344.215385 
L 547.772727 344.215385 
L 547.772727 324.830769 
L 547.772727 324.830769 
L 579.477273 324.830769 
L 579.477273 305.446154 
L 611.181818 305.446154 
L 611.181818 344.215385 
L 674.590909 344.215385 
L 611.181818 344.215385 
L 611.181818 382.984615 
L 642.886364 382.984615 
L 611.181818 382.984615 
L 611.181818 402.369231 
L 674.590909 402.369231 
L 674.590909 460.523077 
L 738 460.523077 
L 738 402.369231 
L 769.704545 402.369231 
L 674.590909 402.369231 
L 674.590909 421.753846 
L 674.590909 421.753846 
L 706.295455 421.753846 
L 674.590909 421.753846 
L 674.590909 441.138462 
L 706.295455 441.138462 
L 642.886364 441.138462 
L 642.886364 421.753846 
L 642.886364 421.753846 
L 611.181818 421.753846 
L 611.181818 402.369231 
L 579.477273 402.369231 
L 579.477273 421.753846 
L 579.477273 402.369231 
L 611.181818 402.369231 
L 611.181818 382.984615 
L 642.886364 382.984615 
L 642.886364 460.523077 
L 674.590909 460.523077 
L 674.590909 421.753846 
L 642.886364 421.753846 
L 642.886364 344.215385 
L 738 344.215385 
L 706.295455 344.215385 
L 706.295455 382.984615 
L 738 382.984615 
L 738 363.6 
L 738 382.984615 
L 769.704545 382.984615 
L 769.704545 363.6 
L 769.704545 402.369231 
L 769.704545 382.984615 
L 738 382.984615 
L 738 421.753846 
L 738 402.369231 
L 769.704545 402.369231 
L 769.704545 421.753846 
L 801.409091 421.753846 
L 801.409091 402.369231 
L 928.227273 402.369231 
L 896.522727 402.369231 
L 896.522727 421.753846 
L 959.931818 421.753846 
L 959.931818 402.369231 
L 959.931818 402.369231 
L 928.227273 402.369231 
L 928.227273 382.984615 
L 864.818182 382.984615 
L 991.636364 382.984615 
L 959.931818 382.984615 
L 959.931818 402.369231 
L 959.931818 382.984615 
L 991.636364 382.984615 
L 991.636364 402.369231 
L 928.227273 402.369231 
L 928.227273 441.138462 
L 896.522727 441.138462 
L 896.522727 421.753846 
L 833.113636 421.753846 
L 833.113636 382.984615 
L 864.818182 382.984615 
L 864.818182 402.369231 
L 833.113636 402.369231 
L 833.113636 363.6 
L 833.113636 363.6 
L 864.818182 363.6 
L 769.704545 363.6 
L 769.704545 324.830769 
L 674.590909 324.830769 
L 674.590909 344.215385 
L 674.590909 324.830769 
L 642.886364 324.830769 
L 642.886364 305.446154 
L 642.886364 324.830769 
L 611.181818 324.830769 
L 611.181818 305.446154 
L 674.590909 305.446154 
L 674.590909 286.061538 
L 706.295455 286.061538 
L 706.295455 247.292308 
L 738 247.292308 
L 738 227.907692 
L 769.704545 227.907692 
L 738 227.907692 
L 738 208.523077 
L 706.295455 208.523077 
L 706.295455 227.907692 
L 738 227.907692 
L 706.295455 227.907692 
L 706.295455 247.292308 
L 738 247.292308 
L 674.590909 247.292308 
L 674.590909 189.138462 
L 706.295455 189.138462 
L 706.295455 150.369231 
L 738 150.369231 
L 738 111.6 
L 769.704545 111.6 
L 769.704545 130.984615 
L 801.409091 130.984615 
L 769.704545 130.984615 
L 769.704545 111.6 
L 801.409091 111.6 
L 769.704545 111.6 
L 769.704545 150.369231 
L 769.704545 150.369231 
L 738 150.369231 
L 769.704545 150.369231 
L 769.704545 189.138462 
L 801.409091 189.138462 
L 801.409091 208.523077 
L 833.113636 208.523077 
L 833.113636 227.907692 
L 833.113636 208.523077 
L 864.818182 208.523077 
L 864.818182 189.138462 
L 896.522727 189.138462 
L 896.522727 169.753846 
L 896.522727 247.292308 
L 928.227273 247.292308 
L 928.227273 227.907692 
L 928.227273 266.676923 
L 928.227273 227.907692 
L 896.522727 227.907692 
L 928.227273 227.907692 
L 928.227273 247.292308 
L 896.522727 247.292308 
L 896.522727 266.676923 
L 864.818182 266.676923 
L 928.227273 266.676923 
L 928.227273 247.292308 
L 864.818182 247.292308 
L 864.818182 266.676923 
L 801.409091 266.676923 
L 801.409091 169.753846 
L 833.113636 169.753846 
L 833.113636 150.369231 
L 801.409091 150.369231 
L 801.409091 130.984615 
L 833.113636 130.984615 
L 833.113636 111.6 
L 833.113636 130.984615 
L 864.818182 130.984615 
L 864.818182 111.6 
L 864.818182 130.984615 
L 896.522727 130.984615 
L 769.704545 130.984615 
L 801.409091 130.984615 
L 801.409091 150.369231 
L 833.113636 150.369231 
L 801.409091 150.369231 
L 801.409091 130.984615 
L 833.113636 130.984615 
L 833.113636 150.369231 
L 801.409091 150.369231 
L 833.113636 150.369231 
L 833.113636 111.6 
L 991.636364 111.6 
L 991.636364 130.984615 
L 991.636364 111.6 
L 928.227273 111.6 
L 928.227273 150.369231 
L 864.818182 150.369231 
L 896.522727 150.369231 
L 896.522727 169.753846 
L 864.818182 169.753846 
L 928.227273 169.753846 
L 928.227273 189.138462 
L 896.522727 189.138462 
L 896.522727 208.523077 
L 864.818182 208.523077 
L 864.818182 169.753846 
L 864.818182 189.138462 
L 833.113636 189.138462 
L 833.113636 247.292308 
L 801.409091 247.292308 
L 801.409091 266.676923 
L 833.113636 266.676923 
L 833.113636 286.061538 
L 801.409091 286.061538 
L 801.409091 247.292308 
L 801.409091 266.676923 
L 738 266.676923 
L 738 227.907692 
L 738 247.292308 
L 769.704545 247.292308 
L 769.704545 266.676923 
L 738 266.676923 
L 738 286.061538 
L 769.704545 286.061538 
L 769.704545 266.676923 
L 769.704545 286.061538 
L 801.409091 286.061538 
L 801.409091 305.446154 
L 864.818182 305.446154 
L 864.818182 324.830769 
L 833.113636 324.830769 
L 833.113636 344.215385 
L 769.704545 344.215385 
L 769.704545 344.215385 
L 769.704545 363.6 
L 801.409091 363.6 
L 769.704545 363.6 
L 769.704545 382.984615 
L 801.409091 382.984615 
L 801.409091 363.6 
L 801.409091 402.369231 
L 769.704545 402.369231 
L 769.704545 421.753846 
L 738 421.753846 
L 769.704545 421.753846 
L 769.704545 441.138462 
L 738 441.138462 
L 738 421.753846 
L 738 479.907692 
L 801.409091 479.907692 
L 801.409091 479.907692 
L 801.409091 499.292308 
L 833.113636 499.292308 
L 738 499.292308 
L 738 460.523077 
L 674.590909 460.523077 
L 738 460.523077 
L 738 538.061538 
L 801.409091 538.061538 
L 801.409091 518.676923 
L 833.113636 518.676923 
L 833.113636 499.292308 
L 801.409091 499.292308 
L 801.409091 460.523077 
L 801.409091 518.676923 
L 833.113636 518.676923 
L 833.113636 557.446154 
L 801.409091 557.446154 
L 801.409091 518.676923 
L 769.704545 518.676923 
L 769.704545 499.292308 
L 833.113636 499.292308 
L 833.113636 499.292308 
L 833.113636 518.676923 
L 833.113636 518.676923 
L 864.818182 518.676923 
L 864.818182 499.292308 
L 801.409091 499.292308 
L 801.409091 518.676923 
L 833.113636 518.676923 
L 833.113636 538.061538 
L 801.409091 538.061538 
L 801.409091 557.446154 
L 801.409091 538.061538 
L 833.113636 538.061538 
L 801.409091 538.061538 
L 801.409091 557.446154 
L 769.704545 557.446154 
L 801.409091 557.446154 
L 801.409091 596.215385 
L 833.113636 596.215385 
L 833.113636 615.6 
L 864.818182 615.6 
L 864.818182 576.830769 
L 896.522727 576.830769 
L 801.409091 576.830769 
L 801.409091 538.061538 
L 769.704545 538.061538 
L 769.704545 479.907692 
L 801.409091 479.907692 
L 801.409091 499.292308 
L 801.409091 460.523077 
L 801.409091 499.292308 
L 833.113636 499.292308 
L 833.113636 538.061538 
L 833.113636 518.676923 
L 896.522727 518.676923 
L 833.113636 518.676923 
L 833.113636 499.292308 
L 769.704545 499.292308 
L 769.704545 518.676923 
L 801.409091 518.676923 
L 801.409091 538.061538 
L 896.522727 538.061538 
L 864.818182 538.061538 
L 864.818182 479.907692 
L 928.227273 479.907692 
L 928.227273 460.523077 
L 959.931818 460.523077 
L 928.227273 460.523077 
L 928.227273 499.292308 
L 928.227273 479.907692 
L 959.931818 479.907692 
L 959.931818 460.523077 
L 928.227273 460.523077 
L 928.227273 518.676923 
L 928.227273 441.138462 
L 896.522727 441.138462 
L 896.522727 479.907692 
L 896.522727 460.523077 
L 864.818182 460.523077 
L 864.818182 441.138462 
L 896.522727 441.138462 
L 896.522727 499.292308 
L 959.931818 499.292308 
L 959.931818 518.676923 
L 991.636364 518.676923 
L 991.636364 499.292308 
L 1086.75 499.292308 
L 1086.75 479.907692 
L 1118.454545 479.907692 
L 1055.045455 479.907692 
L 1118.454545 479.907692 
L 1118.454545 460.523077 
L 1118.454545 460.523077 
L 1181.863636 460.523077 
L 1118.454545 460.523077 
L 1118.454545 421.753846 
L 1118.454545 460.523077 
L 1245.272727 460.523077 
L 1245.272727 499.292308 
L 1118.454545 499.292308 
L 1118.454545 479.907692 
L 1181.863636 479.907692 
L 1118.454545 479.907692 
L 1118.454545 460.523077 
L 1118.454545 479.907692 
L 928.227273 479.907692 
L 928.227273 499.292308 
L 928.227273 479.907692 
L 959.931818 479.907692 
L 959.931818 460.523077 
L 959.931818 460.523077 
L 1086.75 460.523077 
L 1086.75 499.292308 
L 1086.75 479.907692 
L 1118.454545 479.907692 
L 1118.454545 460.523077 
L 1118.454545 479.907692 
L 1150.159091 479.907692 
L 1150.159091 441.138462 
L 1150.159091 460.523077 
L 1118.454545 460.523077 
L 1181.863636 460.523077 
L 1150.159091 460.523077 
L 1150.159091 441.138462 
L 1150.159091 460.523077 
L 1181.863636 460.523077 
L 1181.863636 441.138462 
L 1150.159091 441.138462 
L 1181.863636 441.138462 
L 1181.863636 421.753846 
L 1150.159091 421.753846 
L 1181.863636 421.753846 
L 1181.863636 441.138462 
L 1150.159091 441.138462 
L 1150.159091 421.753846 
L 1150.159091 421.753846 
" clip-path="url(#p1fe0556501)" style="fill: none; stroke: #1f77b4; stroke-width: 1.5; stroke-linecap: square"/>
   </g>
   <g id="patch_3">
    <path d="M 180 640.8 
L 180 86.4 
" style="fill: none; stroke: #000000; stroke-width: 0.8; stroke-linejoin: miter; stroke-linecap: square"/>
   </g>
   <g id="patch_4">
    <path d="M 1296 640.8 
L 1296 86.4 
" style="fill: none; stroke: #000000; stroke-width: 0.8; stroke-linejoin: miter; stroke-linecap: square"/>
   </g>
   <g id="patch_5">
    <path d="M 180 640.8 
L 1296 640.8 
" style="fill: none; stroke: #000000; stroke-width: 0.8; stroke-linejoin: miter; stroke-linecap: square"/>
   </g>
   <g id="patch_6">
    <path d="M 180 86.4 
L 1296 86.4 
" style="fill: none; stroke: #000000; stroke-width: 0.8; stroke-linejoin: miter; stroke-linecap: square"/>
   </g>
   <g id="text_16">
    <!-- 2D Random Walk -->
    <g transform="translate(686.5425 80.4) scale(0.12 -0.12)">
     <defs>
      <path id="DejaVuSans-44" d="M 1259 4147 
L 1259 519 
L 2022 519 
Q 2988 519 3436 956 
Q 3884 1394 3884 2338 
Q 3884 3275 3436 3711 
Q 2988 4147 2022 4147 
L 1259 4147 
z
M 628 4666 
L 1925 4666 
Q 3281 4666 3915 4102 
Q 4550 3538 4550 2338 
Q 4550 1131 3912 565 
Q 3275 0 1925 0 
L 628 0 
L 628 4666 
z
" transform="scale(0.015625)"/>
      <path id="DejaVuSans-52" d="M 2841 2188 
Q 3044 2119 3236 1894 
Q 3428 1669 3622 1275 
L 4263 0 
L 3584 0 
L 2988 1197 
Q 2756 1666 2539 1819 
Q 2322 1972 1947 1972 
L 1259 1972 
L 1259 0 
L 628 0 
L 628 4666 
L 2053 4666 
Q 2853 4666 3247 4331 
Q 3641 3997 3641 3322 
Q 3641 2881 3436 2590 
Q 3231 2300 2841 2188 
z
M 1259 4147 
L 1259 2491 
L 2053 2491 
Q 2509 2491 2742 2702 
Q 2975 2913 2975 3322 
Q 2975 3731 2742 3939 
Q 2509 4147 2053 4147 
L 1259 4147 
z
" transform="scale(0.015625)"/>
      <path id="DejaVuSans-6d" d="M 3328 2828 
Q 3544 3216 3844 3400 
Q 4144 3584 4550 3584 
Q 5097 3584 5394 3201 
Q 5691 2819 5691 2113 
L 5691 0 
L 5113 0 
L 5113 2094 
Q 5113 2597 4934 2840 
Q 4756 3084 4391 3084 
Q 3944 3084 3684 2787 
Q 3425 2491 3425 1978 
L 3425 0 
L 2847 0 
L 2847 2094 
Q 2847 2600 2669 2842 
Q 2491 3084 2119 3084 
Q 1678 3084 1418 2786 
Q 1159 2488 1159 1978 
L 1159 0 
L 581 0 
L 581 3500 
L 1159 3500 
L 1159 2956 
Q 1356 3278 1631 3431 
Q 1906 3584 2284 3584 
Q 2666 3584 2933 3390 
Q 3200 3197 3328 2828 
z
" transform="scale(0.015625)"/>
      <path id="DejaVuSans-57" d="M 213 4666 
L 850 4666 
L 1831 722 
L 2809 4666 
L 3519 4666 
L 4500 722 
L 5478 4666 
L 6119 4666 
L 4947 0 
L 4153 0 
L 3169 4050 
L 2175 0 
L 1381 0 
L 213 4666 
z
" transform="scale(0.015625)"/>
      <path id="DejaVuSans-6c" d="M 603 4863 
L 1178 4863 
L 1178 0 
L 603 0 
L 603 4863 
z
" transform="scale(0.015625)"/>
      <path id="DejaVuSans-6b" d="M 581 4863 
L 1159 4863 
L 1159 1991 
L 2875 3500 
L 3609 3500 
L 1753 1863 
L 3688 0 
L 2938 0 
L 1159 1709 
L 1159 0 
L 581 0 
L 581 4863 
z
" transform="scale(0.015625)"/>
     </defs>
     <use xlink:href="#DejaVuSans-32"/>
     <use xlink:href="#DejaVuSans-44" x="63.623047"/>
     <use xlink:href="#DejaVuSans-20" x="140.625"/>
     <use xlink:href="#DejaVuSans-52" x="172.412109"/>
     <use xlink:href="#DejaVuSans-61" x="239.644531"/>
     <use xlink:href="#DejaVuSans-6e" x="300.923828"/>
     <use xlink:href="#DejaVuSans-64" x="364.302734"/>
     <use xlink:href="#DejaVuSans-6f" x="427.779297"/>
     <use xlink:href="#DejaVuSans-6d" x="488.960938"/>
     <use xlink:href="#DejaVuSans-20" x="586.373047"/>
     <use xlink:href="#DejaVuSans-57" x="618.160156"/>
     <use xlink:href="#DejaVuSans-61" x="710.662109"/>
     <use xlink:href="#DejaVuSans-6c" x="771.941406"/>
     <use xlink:href="#DejaVuSans-6b" x="799.724609"/>
    </g>
   </g>
  </g>
 </g>
 <defs>
  <clipPath id="p1fe0556501">
   <rect x="180" y="86.4" width="1116" height="554.4"/>
  </clipPath>
 </defs>
</svg>
