<?xml version="1.0" encoding="utf-8" standalone="no"?>
<!DOCTYPE svg PUBLIC "-//W3C//DTD SVG 1.1//EN"
  "http://www.w3.org/Graphics/SVG/1.1/DTD/svg11.dtd">
<svg xmlns:xlink="http://www.w3.org/1999/xlink" width="460.8pt" height="345.6pt" viewBox="0 0 460.8 345.6" xmlns="http://www.w3.org/2000/svg" version="1.1">
 <metadata>
  <rdf:RDF xmlns:dc="http://purl.org/dc/elements/1.1/" xmlns:cc="http://creativecommons.org/ns#" xmlns:rdf="http://www.w3.org/1999/02/22-rdf-syntax-ns#">
   <cc:Work>
    <dc:type rdf:resource="http://purl.org/dc/dcmitype/StillImage"/>
    <dc:date>2023-04-30T19:54:55.558137</dc:date>
    <dc:format>image/svg+xml</dc:format>
    <dc:creator>
     <cc:Agent>
      <dc:title>Matplotlib v3.6.3, https://matplotlib.org/</dc:title>
     </cc:Agent>
    </dc:creator>
   </cc:Work>
  </rdf:RDF>
 </metadata>
 <defs>
  <style type="text/css">*{stroke-linejoin: round; stroke-linecap: butt}</style>
 </defs>
 <g id="figure_1">
  <g id="patch_1">
   <path d="M 0 345.6 
L 460.8 345.6 
L 460.8 0 
L 0 0 
L 0 345.6 
z
" style="fill: none"/>
  </g>
  <g id="axes_1">
   <g id="patch_2">
    <path d="M 36.864 321.408 
L 437.76 321.408 
L 437.76 41.472 
L 36.864 41.472 
L 36.864 321.408 
z
" style="fill: none"/>
   </g>
   <g id="matplotlib.axis_1">
    <g id="xtick_1">
     <g id="line2d_1">
      <path d="M 55.086545 321.408 
L 55.086545 41.472 
" clip-path="url(#pc855b95436)" style="fill: none; stroke: #cbcbcb"/>
     </g>
     <g id="line2d_2"/>
     <g id="text_1">
      <!-- 0 -->
      <g transform="translate(50.632795 335.545813) scale(0.14 -0.14)">
       <defs>
        <path id="DejaVuSans-30" d="M 2034 4250 
Q 1547 4250 1301 3770 
Q 1056 3291 1056 2328 
Q 1056 1369 1301 889 
Q 1547 409 2034 409 
Q 2525 409 2770 889 
Q 3016 1369 3016 2328 
Q 3016 3291 2770 3770 
Q 2525 4250 2034 4250 
z
M 2034 4750 
Q 2819 4750 3233 4129 
Q 3647 3509 3647 2328 
Q 3647 1150 3233 529 
Q 2819 -91 2034 -91 
Q 1250 -91 836 529 
Q 422 1150 422 2328 
Q 422 3509 836 4129 
Q 1250 4750 2034 4750 
z
" transform="scale(0.015625)"/>
       </defs>
       <use xlink:href="#DejaVuSans-30"/>
      </g>
     </g>
    </g>
    <g id="xtick_2">
     <g id="line2d_3">
      <path d="M 127.976727 321.408 
L 127.976727 41.472 
" clip-path="url(#pc855b95436)" style="fill: none; stroke: #cbcbcb"/>
     </g>
     <g id="line2d_4"/>
     <g id="text_2">
      <!-- 20 -->
      <g transform="translate(119.069227 335.545813) scale(0.14 -0.14)">
       <defs>
        <path id="DejaVuSans-32" d="M 1228 531 
L 3431 531 
L 3431 0 
L 469 0 
L 469 531 
Q 828 903 1448 1529 
Q 2069 2156 2228 2338 
Q 2531 2678 2651 2914 
Q 2772 3150 2772 3378 
Q 2772 3750 2511 3984 
Q 2250 4219 1831 4219 
Q 1534 4219 1204 4116 
Q 875 4013 500 3803 
L 500 4441 
Q 881 4594 1212 4672 
Q 1544 4750 1819 4750 
Q 2544 4750 2975 4387 
Q 3406 4025 3406 3419 
Q 3406 3131 3298 2873 
Q 3191 2616 2906 2266 
Q 2828 2175 2409 1742 
Q 1991 1309 1228 531 
z
" transform="scale(0.015625)"/>
       </defs>
       <use xlink:href="#DejaVuSans-32"/>
       <use xlink:href="#DejaVuSans-30" x="63.623047"/>
      </g>
     </g>
    </g>
    <g id="xtick_3">
     <g id="line2d_5">
      <path d="M 200.866909 321.408 
L 200.866909 41.472 
" clip-path="url(#pc855b95436)" style="fill: none; stroke: #cbcbcb"/>
     </g>
     <g id="line2d_6"/>
     <g id="text_3">
      <!-- 40 -->
      <g transform="translate(191.959409 335.545813) scale(0.14 -0.14)">
       <defs>
        <path id="DejaVuSans-34" d="M 2419 4116 
L 825 1625 
L 2419 1625 
L 2419 4116 
z
M 2253 4666 
L 3047 4666 
L 3047 1625 
L 3713 1625 
L 3713 1100 
L 3047 1100 
L 3047 0 
L 2419 0 
L 2419 1100 
L 313 1100 
L 313 1709 
L 2253 4666 
z
" transform="scale(0.015625)"/>
       </defs>
       <use xlink:href="#DejaVuSans-34"/>
       <use xlink:href="#DejaVuSans-30" x="63.623047"/>
      </g>
     </g>
    </g>
    <g id="xtick_4">
     <g id="line2d_7">
      <path d="M 273.757091 321.408 
L 273.757091 41.472 
" clip-path="url(#pc855b95436)" style="fill: none; stroke: #cbcbcb"/>
     </g>
     <g id="line2d_8"/>
     <g id="text_4">
      <!-- 60 -->
      <g transform="translate(264.849591 335.545813) scale(0.14 -0.14)">
       <defs>
        <path id="DejaVuSans-36" d="M 2113 2584 
Q 1688 2584 1439 2293 
Q 1191 2003 1191 1497 
Q 1191 994 1439 701 
Q 1688 409 2113 409 
Q 2538 409 2786 701 
Q 3034 994 3034 1497 
Q 3034 2003 2786 2293 
Q 2538 2584 2113 2584 
z
M 3366 4563 
L 3366 3988 
Q 3128 4100 2886 4159 
Q 2644 4219 2406 4219 
Q 1781 4219 1451 3797 
Q 1122 3375 1075 2522 
Q 1259 2794 1537 2939 
Q 1816 3084 2150 3084 
Q 2853 3084 3261 2657 
Q 3669 2231 3669 1497 
Q 3669 778 3244 343 
Q 2819 -91 2113 -91 
Q 1303 -91 875 529 
Q 447 1150 447 2328 
Q 447 3434 972 4092 
Q 1497 4750 2381 4750 
Q 2619 4750 2861 4703 
Q 3103 4656 3366 4563 
z
" transform="scale(0.015625)"/>
       </defs>
       <use xlink:href="#DejaVuSans-36"/>
       <use xlink:href="#DejaVuSans-30" x="63.623047"/>
      </g>
     </g>
    </g>
    <g id="xtick_5">
     <g id="line2d_9">
      <path d="M 346.647273 321.408 
L 346.647273 41.472 
" clip-path="url(#pc855b95436)" style="fill: none; stroke: #cbcbcb"/>
     </g>
     <g id="line2d_10"/>
     <g id="text_5">
      <!-- 80 -->
      <g transform="translate(337.739773 335.545813) scale(0.14 -0.14)">
       <defs>
        <path id="DejaVuSans-38" d="M 2034 2216 
Q 1584 2216 1326 1975 
Q 1069 1734 1069 1313 
Q 1069 891 1326 650 
Q 1584 409 2034 409 
Q 2484 409 2743 651 
Q 3003 894 3003 1313 
Q 3003 1734 2745 1975 
Q 2488 2216 2034 2216 
z
M 1403 2484 
Q 997 2584 770 2862 
Q 544 3141 544 3541 
Q 544 4100 942 4425 
Q 1341 4750 2034 4750 
Q 2731 4750 3128 4425 
Q 3525 4100 3525 3541 
Q 3525 3141 3298 2862 
Q 3072 2584 2669 2484 
Q 3125 2378 3379 2068 
Q 3634 1759 3634 1313 
Q 3634 634 3220 271 
Q 2806 -91 2034 -91 
Q 1263 -91 848 271 
Q 434 634 434 1313 
Q 434 1759 690 2068 
Q 947 2378 1403 2484 
z
M 1172 3481 
Q 1172 3119 1398 2916 
Q 1625 2713 2034 2713 
Q 2441 2713 2670 2916 
Q 2900 3119 2900 3481 
Q 2900 3844 2670 4047 
Q 2441 4250 2034 4250 
Q 1625 4250 1398 4047 
Q 1172 3844 1172 3481 
z
" transform="scale(0.015625)"/>
       </defs>
       <use xlink:href="#DejaVuSans-38"/>
       <use xlink:href="#DejaVuSans-30" x="63.623047"/>
      </g>
     </g>
    </g>
    <g id="xtick_6">
     <g id="line2d_11">
      <path d="M 419.537455 321.408 
L 419.537455 41.472 
" clip-path="url(#pc855b95436)" style="fill: none; stroke: #cbcbcb"/>
     </g>
     <g id="line2d_12"/>
     <g id="text_6">
      <!-- 100 -->
      <g transform="translate(406.176205 335.545813) scale(0.14 -0.14)">
       <defs>
        <path id="DejaVuSans-31" d="M 794 531 
L 1825 531 
L 1825 4091 
L 703 3866 
L 703 4441 
L 1819 4666 
L 2450 4666 
L 2450 531 
L 3481 531 
L 3481 0 
L 794 0 
L 794 531 
z
" transform="scale(0.015625)"/>
       </defs>
       <use xlink:href="#DejaVuSans-31"/>
       <use xlink:href="#DejaVuSans-30" x="63.623047"/>
       <use xlink:href="#DejaVuSans-30" x="127.246094"/>
      </g>
     </g>
    </g>
   </g>
   <g id="matplotlib.axis_2">
    <g id="ytick_1">
     <g id="line2d_13">
      <path d="M 36.864 283.204041 
L 437.76 283.204041 
" clip-path="url(#pc855b95436)" style="fill: none; stroke: #cbcbcb"/>
     </g>
     <g id="line2d_14"/>
     <g id="text_7">
      <!-- −2 -->
      <g transform="translate(12.724938 288.522948) scale(0.14 -0.14)">
       <defs>
        <path id="DejaVuSans-2212" d="M 678 2272 
L 4684 2272 
L 4684 1741 
L 678 1741 
L 678 2272 
z
" transform="scale(0.015625)"/>
       </defs>
       <use xlink:href="#DejaVuSans-2212"/>
       <use xlink:href="#DejaVuSans-32" x="83.789062"/>
      </g>
     </g>
    </g>
    <g id="ytick_2">
     <g id="line2d_15">
      <path d="M 36.864 228.11607 
L 437.76 228.11607 
" clip-path="url(#pc855b95436)" style="fill: none; stroke: #cbcbcb"/>
     </g>
     <g id="line2d_16"/>
     <g id="text_8">
      <!-- −1 -->
      <g transform="translate(12.724938 233.434977) scale(0.14 -0.14)">
       <use xlink:href="#DejaVuSans-2212"/>
       <use xlink:href="#DejaVuSans-31" x="83.789062"/>
      </g>
     </g>
    </g>
    <g id="ytick_3">
     <g id="line2d_17">
      <path d="M 36.864 173.028099 
L 437.76 173.028099 
" clip-path="url(#pc855b95436)" style="fill: none; stroke: #cbcbcb"/>
     </g>
     <g id="line2d_18"/>
     <g id="text_9">
      <!-- 0 -->
      <g transform="translate(24.4565 178.347006) scale(0.14 -0.14)">
       <use xlink:href="#DejaVuSans-30"/>
      </g>
     </g>
    </g>
    <g id="ytick_4">
     <g id="line2d_19">
      <path d="M 36.864 117.940128 
L 437.76 117.940128 
" clip-path="url(#pc855b95436)" style="fill: none; stroke: #cbcbcb"/>
     </g>
     <g id="line2d_20"/>
     <g id="text_10">
      <!-- 1 -->
      <g transform="translate(24.4565 123.259035) scale(0.14 -0.14)">
       <use xlink:href="#DejaVuSans-31"/>
      </g>
     </g>
    </g>
    <g id="ytick_5">
     <g id="line2d_21">
      <path d="M 36.864 62.852157 
L 437.76 62.852157 
" clip-path="url(#pc855b95436)" style="fill: none; stroke: #cbcbcb"/>
     </g>
     <g id="line2d_22"/>
     <g id="text_11">
      <!-- 2 -->
      <g transform="translate(24.4565 68.171064) scale(0.14 -0.14)">
       <use xlink:href="#DejaVuSans-32"/>
      </g>
     </g>
    </g>
   </g>
   <g id="line2d_23">
    <path d="M 55.086545 97.957138 
L 58.731055 118.578127 
L 62.375564 197.55257 
L 66.020073 234.227686 
L 69.664582 143.406002 
L 73.309091 245.405771 
L 76.9536 190.920325 
L 80.598109 186.092986 
L 84.242618 188.214504 
L 87.887127 124.557414 
L 91.531636 214.380921 
L 95.176145 213.344397 
L 98.820655 170.429979 
L 102.465164 134.052831 
L 106.109673 145.852639 
L 109.754182 133.41223 
L 113.398691 160.165956 
L 117.0432 115.13964 
L 120.687709 221.500226 
L 124.332218 105.291688 
L 127.976727 100.408748 
L 131.621236 196.573093 
L 135.265745 138.023715 
L 138.910255 186.489035 
L 142.554764 230.641628 
L 146.199273 79.604743 
L 149.843782 237.501926 
L 153.488291 173.550918 
L 157.1328 144.571002 
L 160.777309 189.860898 
L 164.421818 147.004568 
L 168.066327 97.204904 
L 171.710836 94.980144 
L 175.355345 151.959461 
L 178.999855 171.607771 
L 182.644364 72.182449 
L 186.288873 185.478762 
L 189.933382 269.463876 
L 193.577891 173.538044 
L 197.2224 248.464553 
L 200.866909 193.595152 
L 204.511418 206.600767 
L 208.155927 182.530872 
L 211.800436 267.69056 
L 215.444945 233.788972 
L 219.089455 185.002838 
L 222.733964 189.526871 
L 226.378473 95.268072 
L 230.022982 160.473948 
L 233.667491 219.411895 
L 237.312 131.339084 
L 240.956509 118.361265 
L 244.601018 113.606832 
L 248.245527 157.409716 
L 251.890036 54.196364 
L 255.534545 177.759835 
L 259.179055 143.767715 
L 262.823564 71.511109 
L 266.468073 167.70739 
L 270.112582 178.610161 
L 273.757091 199.174773 
L 277.4016 167.530951 
L 281.046109 182.132168 
L 284.690618 156.972435 
L 288.335127 191.822289 
L 291.979636 166.436868 
L 295.624145 215.850534 
L 299.268655 185.450909 
L 302.913164 211.633293 
L 306.557673 261.741465 
L 310.202182 186.267943 
L 313.846691 126.959815 
L 317.4912 223.811266 
L 321.135709 208.802003 
L 324.780218 208.106798 
L 328.424727 165.81682 
L 332.069236 131.051787 
L 335.713745 112.345736 
L 339.358255 308.683636 
L 343.002764 71.147635 
L 346.647273 265.034732 
L 350.291782 188.248281 
L 353.936291 200.840916 
L 357.5808 58.832323 
L 361.225309 115.319935 
L 364.869818 161.257081 
L 368.514327 139.532302 
L 372.158836 243.332974 
L 375.803345 227.318821 
L 379.447855 254.130013 
L 383.092364 109.697967 
L 386.736873 153.731751 
L 390.381382 144.923558 
L 394.025891 58.210377 
L 397.6704 137.704125 
L 401.314909 163.26251 
L 404.959418 194.341259 
L 408.603927 225.351425 
L 412.248436 63.561841 
L 415.892945 129.032638 
" clip-path="url(#pc855b95436)" style="fill: none; stroke: #008fd5; stroke-width: 4"/>
   </g>
   <g id="line2d_24">
    <path d="M 66.020073 138.029278 
L 69.664582 183.452794 
L 73.309091 191.728753 
L 76.9536 207.67982 
L 80.598109 193.244033 
L 84.242618 207.473027 
L 87.887127 188.409271 
L 91.531636 166.288301 
L 95.176145 175.717613 
L 98.820655 184.094244 
L 102.465164 199.385099 
L 106.109673 172.609069 
L 109.754182 150.111816 
L 113.398691 137.772567 
L 117.0432 146.476942 
L 120.687709 136.239275 
L 124.332218 165.601941 
L 127.976727 147.310518 
L 131.621236 142.400221 
L 135.265745 134.091176 
L 138.910255 145.001852 
L 142.554764 173.695281 
L 146.199273 185.051459 
L 149.843782 165.578469 
L 153.488291 182.582766 
L 157.1328 163.552529 
L 160.777309 185.207949 
L 164.421818 169.327606 
L 168.066327 160.478823 
L 171.710836 144.690123 
L 175.355345 113.063205 
L 178.999855 114.714836 
L 182.644364 139.515792 
L 186.288873 131.91656 
L 189.933382 143.089661 
L 193.577891 175.708362 
L 197.2224 209.493561 
L 200.866909 230.488824 
L 204.511418 205.19925 
L 208.155927 216.220157 
L 211.800436 194.242264 
L 215.444945 218.940733 
L 219.089455 228.003468 
L 222.733964 228.827456 
L 226.378473 202.772894 
L 230.022982 156.59926 
L 233.667491 148.422964 
L 237.312 158.384638 
L 240.956509 170.408309 
L 244.601018 156.370748 
L 248.245527 121.102394 
L 251.890036 129.792604 
L 255.534545 108.404304 
L 259.179055 129.788638 
L 262.823564 125.241305 
L 266.468073 131.012886 
L 270.112582 127.662071 
L 273.757091 139.27622 
L 277.4016 181.830775 
L 281.046109 181.771962 
L 284.690618 182.945964 
L 288.335127 168.878518 
L 291.979636 176.97563 
L 295.624145 171.743864 
L 299.268655 191.369897 
L 302.913164 189.246104 
L 306.557673 204.311579 
L 310.202182 219.608556 
L 313.846691 219.8809 
L 317.4912 191.656408 
L 321.135709 179.013008 
L 324.780218 186.524361 
L 328.424727 213.573356 
L 332.069236 194.241874 
L 335.713745 168.325135 
L 339.358255 136.404781 
L 343.002764 184.027053 
L 346.647273 164.059002 
L 350.291782 214.955334 
L 353.936291 174.810216 
L 357.5808 218.04131 
L 361.225309 149.307173 
L 364.869818 124.997725 
L 368.514327 111.803113 
L 372.158836 138.703106 
L 375.803345 181.374119 
L 379.447855 203.394699 
L 383.092364 241.593936 
L 386.736873 197.048934 
L 390.381382 172.519911 
L 394.025891 136.117759 
L 397.6704 118.955229 
L 401.314909 113.612687 
L 404.959418 119.725671 
L 408.603927 165.102631 
L 412.248436 194.318398 
L 415.892945 161.084841 
L 419.537455 139.315301 
" clip-path="url(#pc855b95436)" style="fill: none; stroke: #fc4f30; stroke-width: 4"/>
   </g>
   <g id="line2d_25">
    <path d="M 80.598109 175.435374 
L 84.242618 188.026209 
L 87.887127 197.974263 
L 91.531636 187.546384 
L 95.176145 184.711132 
L 98.820655 194.702331 
L 102.465164 183.991504 
L 106.109673 175.867576 
L 109.754182 170.118955 
L 113.398691 162.290059 
L 117.0432 167.376993 
L 120.687709 153.199667 
L 124.332218 154.364786 
L 127.976727 145.059316 
L 131.621236 140.253018 
L 135.265745 147.498797 
L 138.910255 148.157581 
L 142.554764 151.918021 
L 146.199273 168.418305 
L 149.843782 148.147521 
L 153.488291 167.034698 
L 157.1328 177.48358 
L 160.777309 170.05471 
L 164.421818 177.460021 
L 168.066327 171.819383 
L 171.710836 152.756994 
L 175.355345 154.95348 
L 178.999855 142.733128 
L 182.644364 142.455536 
L 186.288873 132.114314 
L 189.933382 131.488294 
L 193.577891 148.982481 
L 197.2224 159.887215 
L 200.866909 181.813559 
L 204.511418 187.761515 
L 208.155927 192.760514 
L 211.800436 208.524575 
L 215.444945 220.269118 
L 219.089455 215.172703 
L 222.733964 216.81053 
L 226.378473 208.390862 
L 230.022982 194.344136 
L 233.667491 187.75459 
L 237.312 193.023308 
L 240.956509 173.544526 
L 244.601018 157.054853 
L 248.245527 146.855424 
L 251.890036 142.267259 
L 255.534545 136.399872 
L 259.179055 138.869284 
L 262.823564 128.062973 
L 266.468073 119.516119 
L 270.112582 126.565566 
L 273.757091 135.851756 
L 277.4016 141.818192 
L 281.046109 158.008848 
L 284.690618 158.633467 
L 288.335127 160.519855 
L 291.979636 177.707167 
L 295.624145 177.525664 
L 299.268655 182.845717 
L 302.913164 180.885165 
L 306.557673 187.185499 
L 310.202182 198.558256 
L 313.846691 202.743329 
L 317.4912 193.477261 
L 321.135709 201.673604 
L 324.780218 200.666671 
L 328.424727 203.903226 
L 332.069236 197.358016 
L 335.713745 178.688062 
L 339.358255 168.127747 
L 343.002764 194.088293 
L 346.647273 172.279202 
L 350.291782 180.312449 
L 353.936291 177.475518 
L 357.5808 182.478961 
L 361.225309 172.161894 
L 364.869818 172.58678 
L 368.514327 151.525843 
L 372.158836 161.295081 
L 375.803345 158.19483 
L 379.447855 163.776336 
L 383.092364 171.389064 
L 386.736873 178.655585 
L 390.381382 184.142987 
L 394.025891 181.809627 
L 397.6704 170.192209 
L 401.314909 155.102373 
L 404.959418 145.951472 
L 408.603927 137.410221 
L 412.248436 153.932143 
L 415.892945 141.050728 
L 419.537455 138.780596 
" clip-path="url(#pc855b95436)" style="fill: none; stroke: #e5ae38; stroke-width: 4"/>
   </g>
   <g id="line2d_26">
    <path d="M 95.176145 176.481222 
L 98.820655 186.970973 
L 102.465164 191.684778 
L 106.109673 185.912074 
L 109.754182 177.877979 
L 113.398691 176.969454 
L 117.0432 169.22038 
L 120.687709 162.331227 
L 124.332218 165.550067 
L 127.976727 158.011629 
L 131.621236 155.816296 
L 135.265745 154.197402 
L 138.910255 147.350068 
L 142.554764 148.809982 
L 146.199273 157.590782 
L 149.843782 151.568246 
L 153.488291 161.030945 
L 157.1328 162.24776 
L 160.777309 164.923338 
L 164.421818 162.047036 
L 168.066327 165.839116 
L 171.710836 165.547857 
L 175.355345 156.312135 
L 178.999855 157.579021 
L 182.644364 156.226179 
L 186.288873 141.820799 
L 189.933382 151.445709 
L 193.577891 154.351341 
L 197.2224 154.350171 
L 200.866909 163.795039 
L 204.511418 164.134517 
L 208.155927 169.552353 
L 211.800436 177.309259 
L 215.444945 193.010206 
L 219.089455 200.449252 
L 222.733964 201.666986 
L 226.378473 212.334661 
L 230.022982 204.133689 
L 233.667491 194.225513 
L 237.312 198.395864 
L 240.956509 187.748094 
L 244.601018 180.908649 
L 248.245527 172.454655 
L 251.890036 170.170914 
L 255.534545 150.762351 
L 259.179055 145.668793 
L 262.823564 141.920145 
L 266.468073 131.191439 
L 270.112582 137.776832 
L 273.757091 139.425579 
L 277.4016 137.58584 
L 281.046109 140.87601 
L 284.690618 146.673365 
L 288.335127 150.615692 
L 291.979636 153.744108 
L 295.624145 163.94779 
L 299.268655 167.410581 
L 302.913164 171.199963 
L 306.557673 183.938343 
L 310.202182 192.486895 
L 313.846691 193.183057 
L 317.4912 186.618061 
L 321.135709 191.734453 
L 324.780218 194.158984 
L 328.424727 198.807562 
L 332.069236 196.443429 
L 335.713745 193.226603 
L 339.358255 183.817076 
L 343.002764 195.020051 
L 346.647273 182.248628 
L 350.291782 182.548016 
L 353.936291 182.728046 
L 357.5808 189.44451 
L 361.225309 174.446424 
L 364.869818 165.948055 
L 368.514327 161.688989 
L 372.158836 159.299488 
L 375.803345 169.506868 
L 379.447855 179.958967 
L 383.092364 174.999547 
L 386.736873 178.504122 
L 390.381382 168.38567 
L 394.025891 164.447058 
L 397.6704 151.480646 
L 401.314909 158.650809 
L 404.959418 163.009225 
L 408.603927 166.016878 
L 412.248436 173.818616 
L 415.892945 157.475786 
L 419.537455 148.540679 
" clip-path="url(#pc855b95436)" style="fill: none; stroke: #6d904f; stroke-width: 4"/>
   </g>
   <g id="patch_3">
    <path d="M 36.864 321.408 
L 36.864 41.472 
" style="fill: none; stroke: #f0f0f0; stroke-width: 3; stroke-linejoin: miter; stroke-linecap: square"/>
   </g>
   <g id="patch_4">
    <path d="M 437.76 321.408 
L 437.76 41.472 
" style="fill: none; stroke: #f0f0f0; stroke-width: 3; stroke-linejoin: miter; stroke-linecap: square"/>
   </g>
   <g id="patch_5">
    <path d="M 36.864 321.408 
L 437.76 321.408 
" style="fill: none; stroke: #f0f0f0; stroke-width: 3; stroke-linejoin: miter; stroke-linecap: square"/>
   </g>
   <g id="patch_6">
    <path d="M 36.864 41.472 
L 437.76 41.472 
" style="fill: none; stroke: #f0f0f0; stroke-width: 3; stroke-linejoin: miter; stroke-linecap: square"/>
   </g>
   <g id="text_12">
    <!-- SMA for random data  -->
    <g transform="translate(126.846225 12.89721) scale(0.2016 -0.2016)">
     <defs>
      <path id="DejaVuSans-53" d="M 3425 4513 
L 3425 3897 
Q 3066 4069 2747 4153 
Q 2428 4238 2131 4238 
Q 1616 4238 1336 4038 
Q 1056 3838 1056 3469 
Q 1056 3159 1242 3001 
Q 1428 2844 1947 2747 
L 2328 2669 
Q 3034 2534 3370 2195 
Q 3706 1856 3706 1288 
Q 3706 609 3251 259 
Q 2797 -91 1919 -91 
Q 1588 -91 1214 -16 
Q 841 59 441 206 
L 441 856 
Q 825 641 1194 531 
Q 1563 422 1919 422 
Q 2459 422 2753 634 
Q 3047 847 3047 1241 
Q 3047 1584 2836 1778 
Q 2625 1972 2144 2069 
L 1759 2144 
Q 1053 2284 737 2584 
Q 422 2884 422 3419 
Q 422 4038 858 4394 
Q 1294 4750 2059 4750 
Q 2388 4750 2728 4690 
Q 3069 4631 3425 4513 
z
" transform="scale(0.015625)"/>
      <path id="DejaVuSans-4d" d="M 628 4666 
L 1569 4666 
L 2759 1491 
L 3956 4666 
L 4897 4666 
L 4897 0 
L 4281 0 
L 4281 4097 
L 3078 897 
L 2444 897 
L 1241 4097 
L 1241 0 
L 628 0 
L 628 4666 
z
" transform="scale(0.015625)"/>
      <path id="DejaVuSans-41" d="M 2188 4044 
L 1331 1722 
L 3047 1722 
L 2188 4044 
z
M 1831 4666 
L 2547 4666 
L 4325 0 
L 3669 0 
L 3244 1197 
L 1141 1197 
L 716 0 
L 50 0 
L 1831 4666 
z
" transform="scale(0.015625)"/>
      <path id="DejaVuSans-20" transform="scale(0.015625)"/>
      <path id="DejaVuSans-66" d="M 2375 4863 
L 2375 4384 
L 1825 4384 
Q 1516 4384 1395 4259 
Q 1275 4134 1275 3809 
L 1275 3500 
L 2222 3500 
L 2222 3053 
L 1275 3053 
L 1275 0 
L 697 0 
L 697 3053 
L 147 3053 
L 147 3500 
L 697 3500 
L 697 3744 
Q 697 4328 969 4595 
Q 1241 4863 1831 4863 
L 2375 4863 
z
" transform="scale(0.015625)"/>
      <path id="DejaVuSans-6f" d="M 1959 3097 
Q 1497 3097 1228 2736 
Q 959 2375 959 1747 
Q 959 1119 1226 758 
Q 1494 397 1959 397 
Q 2419 397 2687 759 
Q 2956 1122 2956 1747 
Q 2956 2369 2687 2733 
Q 2419 3097 1959 3097 
z
M 1959 3584 
Q 2709 3584 3137 3096 
Q 3566 2609 3566 1747 
Q 3566 888 3137 398 
Q 2709 -91 1959 -91 
Q 1206 -91 779 398 
Q 353 888 353 1747 
Q 353 2609 779 3096 
Q 1206 3584 1959 3584 
z
" transform="scale(0.015625)"/>
      <path id="DejaVuSans-72" d="M 2631 2963 
Q 2534 3019 2420 3045 
Q 2306 3072 2169 3072 
Q 1681 3072 1420 2755 
Q 1159 2438 1159 1844 
L 1159 0 
L 581 0 
L 581 3500 
L 1159 3500 
L 1159 2956 
Q 1341 3275 1631 3429 
Q 1922 3584 2338 3584 
Q 2397 3584 2469 3576 
Q 2541 3569 2628 3553 
L 2631 2963 
z
" transform="scale(0.015625)"/>
      <path id="DejaVuSans-61" d="M 2194 1759 
Q 1497 1759 1228 1600 
Q 959 1441 959 1056 
Q 959 750 1161 570 
Q 1363 391 1709 391 
Q 2188 391 2477 730 
Q 2766 1069 2766 1631 
L 2766 1759 
L 2194 1759 
z
M 3341 1997 
L 3341 0 
L 2766 0 
L 2766 531 
Q 2569 213 2275 61 
Q 1981 -91 1556 -91 
Q 1019 -91 701 211 
Q 384 513 384 1019 
Q 384 1609 779 1909 
Q 1175 2209 1959 2209 
L 2766 2209 
L 2766 2266 
Q 2766 2663 2505 2880 
Q 2244 3097 1772 3097 
Q 1472 3097 1187 3025 
Q 903 2953 641 2809 
L 641 3341 
Q 956 3463 1253 3523 
Q 1550 3584 1831 3584 
Q 2591 3584 2966 3190 
Q 3341 2797 3341 1997 
z
" transform="scale(0.015625)"/>
      <path id="DejaVuSans-6e" d="M 3513 2113 
L 3513 0 
L 2938 0 
L 2938 2094 
Q 2938 2591 2744 2837 
Q 2550 3084 2163 3084 
Q 1697 3084 1428 2787 
Q 1159 2491 1159 1978 
L 1159 0 
L 581 0 
L 581 3500 
L 1159 3500 
L 1159 2956 
Q 1366 3272 1645 3428 
Q 1925 3584 2291 3584 
Q 2894 3584 3203 3211 
Q 3513 2838 3513 2113 
z
" transform="scale(0.015625)"/>
      <path id="DejaVuSans-64" d="M 2906 2969 
L 2906 4863 
L 3481 4863 
L 3481 0 
L 2906 0 
L 2906 525 
Q 2725 213 2448 61 
Q 2172 -91 1784 -91 
Q 1150 -91 751 415 
Q 353 922 353 1747 
Q 353 2572 751 3078 
Q 1150 3584 1784 3584 
Q 2172 3584 2448 3432 
Q 2725 3281 2906 2969 
z
M 947 1747 
Q 947 1113 1208 752 
Q 1469 391 1925 391 
Q 2381 391 2643 752 
Q 2906 1113 2906 1747 
Q 2906 2381 2643 2742 
Q 2381 3103 1925 3103 
Q 1469 3103 1208 2742 
Q 947 2381 947 1747 
z
" transform="scale(0.015625)"/>
      <path id="DejaVuSans-6d" d="M 3328 2828 
Q 3544 3216 3844 3400 
Q 4144 3584 4550 3584 
Q 5097 3584 5394 3201 
Q 5691 2819 5691 2113 
L 5691 0 
L 5113 0 
L 5113 2094 
Q 5113 2597 4934 2840 
Q 4756 3084 4391 3084 
Q 3944 3084 3684 2787 
Q 3425 2491 3425 1978 
L 3425 0 
L 2847 0 
L 2847 2094 
Q 2847 2600 2669 2842 
Q 2491 3084 2119 3084 
Q 1678 3084 1418 2786 
Q 1159 2488 1159 1978 
L 1159 0 
L 581 0 
L 581 3500 
L 1159 3500 
L 1159 2956 
Q 1356 3278 1631 3431 
Q 1906 3584 2284 3584 
Q 2666 3584 2933 3390 
Q 3200 3197 3328 2828 
z
" transform="scale(0.015625)"/>
      <path id="DejaVuSans-74" d="M 1172 4494 
L 1172 3500 
L 2356 3500 
L 2356 3053 
L 1172 3053 
L 1172 1153 
Q 1172 725 1289 603 
Q 1406 481 1766 481 
L 2356 481 
L 2356 0 
L 1766 0 
Q 1100 0 847 248 
Q 594 497 594 1153 
L 594 3053 
L 172 3053 
L 172 3500 
L 594 3500 
L 594 4494 
L 1172 4494 
z
" transform="scale(0.015625)"/>
     </defs>
     <use xlink:href="#DejaVuSans-53"/>
     <use xlink:href="#DejaVuSans-4d" x="63.476562"/>
     <use xlink:href="#DejaVuSans-41" x="149.755859"/>
     <use xlink:href="#DejaVuSans-20" x="218.164062"/>
     <use xlink:href="#DejaVuSans-66" x="249.951172"/>
     <use xlink:href="#DejaVuSans-6f" x="285.15625"/>
     <use xlink:href="#DejaVuSans-72" x="346.337891"/>
     <use xlink:href="#DejaVuSans-20" x="387.451172"/>
     <use xlink:href="#DejaVuSans-72" x="419.238281"/>
     <use xlink:href="#DejaVuSans-61" x="460.351562"/>
     <use xlink:href="#DejaVuSans-6e" x="521.630859"/>
     <use xlink:href="#DejaVuSans-64" x="585.009766"/>
     <use xlink:href="#DejaVuSans-6f" x="648.486328"/>
     <use xlink:href="#DejaVuSans-6d" x="709.667969"/>
     <use xlink:href="#DejaVuSans-20" x="807.080078"/>
     <use xlink:href="#DejaVuSans-64" x="838.867188"/>
     <use xlink:href="#DejaVuSans-61" x="902.34375"/>
     <use xlink:href="#DejaVuSans-74" x="963.623047"/>
     <use xlink:href="#DejaVuSans-61" x="1002.832031"/>
     <use xlink:href="#DejaVuSans-20" x="1064.111328"/>
    </g>
    <!--  -->
    <g transform="translate(237.312 35.472) scale(0.2016 -0.2016)"/>
   </g>
   <g id="legend_1">
    <g id="patch_7">
     <path d="M 46.664 314.408 
L 151.265875 314.408 
Q 154.065875 314.408 154.065875 311.608 
L 154.065875 230.8105 
Q 154.065875 228.0105 151.265875 228.0105 
L 46.664 228.0105 
Q 43.864 228.0105 43.864 230.8105 
L 43.864 311.608 
Q 43.864 314.408 46.664 314.408 
z
" style="fill: #f0f0f0; opacity: 0.8; stroke: #cccccc; stroke-width: 0.5; stroke-linejoin: miter"/>
    </g>
    <g id="line2d_27">
     <path d="M 49.464 239.348312 
L 63.464 239.348312 
L 77.464 239.348312 
" style="fill: none; stroke: #008fd5; stroke-width: 4"/>
    </g>
    <g id="text_13">
     <!-- Data -->
     <g transform="translate(88.664 244.248312) scale(0.14 -0.14)">
      <defs>
       <path id="DejaVuSans-44" d="M 1259 4147 
L 1259 519 
L 2022 519 
Q 2988 519 3436 956 
Q 3884 1394 3884 2338 
Q 3884 3275 3436 3711 
Q 2988 4147 2022 4147 
L 1259 4147 
z
M 628 4666 
L 1925 4666 
Q 3281 4666 3915 4102 
Q 4550 3538 4550 2338 
Q 4550 1131 3912 565 
Q 3275 0 1925 0 
L 628 0 
L 628 4666 
z
" transform="scale(0.015625)"/>
      </defs>
      <use xlink:href="#DejaVuSans-44"/>
      <use xlink:href="#DejaVuSans-61" x="77.001953"/>
      <use xlink:href="#DejaVuSans-74" x="138.28125"/>
      <use xlink:href="#DejaVuSans-61" x="177.490234"/>
     </g>
    </g>
    <g id="line2d_28">
     <path d="M 49.464 259.897688 
L 63.464 259.897688 
L 77.464 259.897688 
" style="fill: none; stroke: #fc4f30; stroke-width: 4"/>
    </g>
    <g id="text_14">
     <!-- lag = 3 -->
     <g transform="translate(88.664 264.797687) scale(0.14 -0.14)">
      <defs>
       <path id="DejaVuSans-6c" d="M 603 4863 
L 1178 4863 
L 1178 0 
L 603 0 
L 603 4863 
z
" transform="scale(0.015625)"/>
       <path id="DejaVuSans-67" d="M 2906 1791 
Q 2906 2416 2648 2759 
Q 2391 3103 1925 3103 
Q 1463 3103 1205 2759 
Q 947 2416 947 1791 
Q 947 1169 1205 825 
Q 1463 481 1925 481 
Q 2391 481 2648 825 
Q 2906 1169 2906 1791 
z
M 3481 434 
Q 3481 -459 3084 -895 
Q 2688 -1331 1869 -1331 
Q 1566 -1331 1297 -1286 
Q 1028 -1241 775 -1147 
L 775 -588 
Q 1028 -725 1275 -790 
Q 1522 -856 1778 -856 
Q 2344 -856 2625 -561 
Q 2906 -266 2906 331 
L 2906 616 
Q 2728 306 2450 153 
Q 2172 0 1784 0 
Q 1141 0 747 490 
Q 353 981 353 1791 
Q 353 2603 747 3093 
Q 1141 3584 1784 3584 
Q 2172 3584 2450 3431 
Q 2728 3278 2906 2969 
L 2906 3500 
L 3481 3500 
L 3481 434 
z
" transform="scale(0.015625)"/>
       <path id="DejaVuSans-3d" d="M 678 2906 
L 4684 2906 
L 4684 2381 
L 678 2381 
L 678 2906 
z
M 678 1631 
L 4684 1631 
L 4684 1100 
L 678 1100 
L 678 1631 
z
" transform="scale(0.015625)"/>
       <path id="DejaVuSans-33" d="M 2597 2516 
Q 3050 2419 3304 2112 
Q 3559 1806 3559 1356 
Q 3559 666 3084 287 
Q 2609 -91 1734 -91 
Q 1441 -91 1130 -33 
Q 819 25 488 141 
L 488 750 
Q 750 597 1062 519 
Q 1375 441 1716 441 
Q 2309 441 2620 675 
Q 2931 909 2931 1356 
Q 2931 1769 2642 2001 
Q 2353 2234 1838 2234 
L 1294 2234 
L 1294 2753 
L 1863 2753 
Q 2328 2753 2575 2939 
Q 2822 3125 2822 3475 
Q 2822 3834 2567 4026 
Q 2313 4219 1838 4219 
Q 1578 4219 1281 4162 
Q 984 4106 628 3988 
L 628 4550 
Q 988 4650 1302 4700 
Q 1616 4750 1894 4750 
Q 2613 4750 3031 4423 
Q 3450 4097 3450 3541 
Q 3450 3153 3228 2886 
Q 3006 2619 2597 2516 
z
" transform="scale(0.015625)"/>
      </defs>
      <use xlink:href="#DejaVuSans-6c"/>
      <use xlink:href="#DejaVuSans-61" x="27.783203"/>
      <use xlink:href="#DejaVuSans-67" x="89.0625"/>
      <use xlink:href="#DejaVuSans-20" x="152.539062"/>
      <use xlink:href="#DejaVuSans-3d" x="184.326172"/>
      <use xlink:href="#DejaVuSans-20" x="268.115234"/>
      <use xlink:href="#DejaVuSans-33" x="299.902344"/>
     </g>
    </g>
    <g id="line2d_29">
     <path d="M 49.464 280.447063 
L 63.464 280.447063 
L 77.464 280.447063 
" style="fill: none; stroke: #e5ae38; stroke-width: 4"/>
    </g>
    <g id="text_15">
     <!-- lag = 7 -->
     <g transform="translate(88.664 285.347062) scale(0.14 -0.14)">
      <defs>
       <path id="DejaVuSans-37" d="M 525 4666 
L 3525 4666 
L 3525 4397 
L 1831 0 
L 1172 0 
L 2766 4134 
L 525 4134 
L 525 4666 
z
" transform="scale(0.015625)"/>
      </defs>
      <use xlink:href="#DejaVuSans-6c"/>
      <use xlink:href="#DejaVuSans-61" x="27.783203"/>
      <use xlink:href="#DejaVuSans-67" x="89.0625"/>
      <use xlink:href="#DejaVuSans-20" x="152.539062"/>
      <use xlink:href="#DejaVuSans-3d" x="184.326172"/>
      <use xlink:href="#DejaVuSans-20" x="268.115234"/>
      <use xlink:href="#DejaVuSans-37" x="299.902344"/>
     </g>
    </g>
    <g id="line2d_30">
     <path d="M 49.464 300.996438 
L 63.464 300.996438 
L 77.464 300.996438 
" style="fill: none; stroke: #6d904f; stroke-width: 4"/>
    </g>
    <g id="text_16">
     <!-- lag = 11 -->
     <g transform="translate(88.664 305.896437) scale(0.14 -0.14)">
      <use xlink:href="#DejaVuSans-6c"/>
      <use xlink:href="#DejaVuSans-61" x="27.783203"/>
      <use xlink:href="#DejaVuSans-67" x="89.0625"/>
      <use xlink:href="#DejaVuSans-20" x="152.539062"/>
      <use xlink:href="#DejaVuSans-3d" x="184.326172"/>
      <use xlink:href="#DejaVuSans-20" x="268.115234"/>
      <use xlink:href="#DejaVuSans-31" x="299.902344"/>
      <use xlink:href="#DejaVuSans-31" x="363.525391"/>
     </g>
    </g>
   </g>
  </g>
 </g>
 <defs>
  <clipPath id="pc855b95436">
   <rect x="36.864" y="41.472" width="400.896" height="279.936"/>
  </clipPath>
 </defs>
</svg>
