<?xml version="1.0" encoding="utf-8" standalone="no"?>
<!DOCTYPE svg PUBLIC "-//W3C//DTD SVG 1.1//EN"
  "http://www.w3.org/Graphics/SVG/1.1/DTD/svg11.dtd">
<svg xmlns:xlink="http://www.w3.org/1999/xlink" width="460.8pt" height="345.6pt" viewBox="0 0 460.8 345.6" xmlns="http://www.w3.org/2000/svg" version="1.1">
 <metadata>
  <rdf:RDF xmlns:dc="http://purl.org/dc/elements/1.1/" xmlns:cc="http://creativecommons.org/ns#" xmlns:rdf="http://www.w3.org/1999/02/22-rdf-syntax-ns#">
   <cc:Work>
    <dc:type rdf:resource="http://purl.org/dc/dcmitype/StillImage"/>
    <dc:date>2023-04-30T20:01:32.922599</dc:date>
    <dc:format>image/svg+xml</dc:format>
    <dc:creator>
     <cc:Agent>
      <dc:title>Matplotlib v3.6.3, https://matplotlib.org/</dc:title>
     </cc:Agent>
    </dc:creator>
   </cc:Work>
  </rdf:RDF>
 </metadata>
 <defs>
  <style type="text/css">*{stroke-linejoin: round; stroke-linecap: butt}</style>
 </defs>
 <g id="figure_1">
  <g id="patch_1">
   <path d="M 0 345.6 
L 460.8 345.6 
L 460.8 0 
L 0 0 
L 0 345.6 
z
" style="fill: none"/>
  </g>
  <g id="axes_1">
   <g id="patch_2">
    <path d="M 36.864 321.408 
L 437.76 321.408 
L 437.76 41.472 
L 36.864 41.472 
L 36.864 321.408 
z
" style="fill: none"/>
   </g>
   <g id="matplotlib.axis_1">
    <g id="xtick_1">
     <g id="line2d_1">
      <path d="M 55.086545 321.408 
L 55.086545 41.472 
" clip-path="url(#p9f9583a565)" style="fill: none; stroke: #cbcbcb"/>
     </g>
     <g id="line2d_2"/>
     <g id="text_1">
      <!-- 0 -->
      <g transform="translate(50.632795 335.545813) scale(0.14 -0.14)">
       <defs>
        <path id="DejaVuSans-30" d="M 2034 4250 
Q 1547 4250 1301 3770 
Q 1056 3291 1056 2328 
Q 1056 1369 1301 889 
Q 1547 409 2034 409 
Q 2525 409 2770 889 
Q 3016 1369 3016 2328 
Q 3016 3291 2770 3770 
Q 2525 4250 2034 4250 
z
M 2034 4750 
Q 2819 4750 3233 4129 
Q 3647 3509 3647 2328 
Q 3647 1150 3233 529 
Q 2819 -91 2034 -91 
Q 1250 -91 836 529 
Q 422 1150 422 2328 
Q 422 3509 836 4129 
Q 1250 4750 2034 4750 
z
" transform="scale(0.015625)"/>
       </defs>
       <use xlink:href="#DejaVuSans-30"/>
      </g>
     </g>
    </g>
    <g id="xtick_2">
     <g id="line2d_3">
      <path d="M 127.976727 321.408 
L 127.976727 41.472 
" clip-path="url(#p9f9583a565)" style="fill: none; stroke: #cbcbcb"/>
     </g>
     <g id="line2d_4"/>
     <g id="text_2">
      <!-- 20 -->
      <g transform="translate(119.069227 335.545813) scale(0.14 -0.14)">
       <defs>
        <path id="DejaVuSans-32" d="M 1228 531 
L 3431 531 
L 3431 0 
L 469 0 
L 469 531 
Q 828 903 1448 1529 
Q 2069 2156 2228 2338 
Q 2531 2678 2651 2914 
Q 2772 3150 2772 3378 
Q 2772 3750 2511 3984 
Q 2250 4219 1831 4219 
Q 1534 4219 1204 4116 
Q 875 4013 500 3803 
L 500 4441 
Q 881 4594 1212 4672 
Q 1544 4750 1819 4750 
Q 2544 4750 2975 4387 
Q 3406 4025 3406 3419 
Q 3406 3131 3298 2873 
Q 3191 2616 2906 2266 
Q 2828 2175 2409 1742 
Q 1991 1309 1228 531 
z
" transform="scale(0.015625)"/>
       </defs>
       <use xlink:href="#DejaVuSans-32"/>
       <use xlink:href="#DejaVuSans-30" x="63.623047"/>
      </g>
     </g>
    </g>
    <g id="xtick_3">
     <g id="line2d_5">
      <path d="M 200.866909 321.408 
L 200.866909 41.472 
" clip-path="url(#p9f9583a565)" style="fill: none; stroke: #cbcbcb"/>
     </g>
     <g id="line2d_6"/>
     <g id="text_3">
      <!-- 40 -->
      <g transform="translate(191.959409 335.545813) scale(0.14 -0.14)">
       <defs>
        <path id="DejaVuSans-34" d="M 2419 4116 
L 825 1625 
L 2419 1625 
L 2419 4116 
z
M 2253 4666 
L 3047 4666 
L 3047 1625 
L 3713 1625 
L 3713 1100 
L 3047 1100 
L 3047 0 
L 2419 0 
L 2419 1100 
L 313 1100 
L 313 1709 
L 2253 4666 
z
" transform="scale(0.015625)"/>
       </defs>
       <use xlink:href="#DejaVuSans-34"/>
       <use xlink:href="#DejaVuSans-30" x="63.623047"/>
      </g>
     </g>
    </g>
    <g id="xtick_4">
     <g id="line2d_7">
      <path d="M 273.757091 321.408 
L 273.757091 41.472 
" clip-path="url(#p9f9583a565)" style="fill: none; stroke: #cbcbcb"/>
     </g>
     <g id="line2d_8"/>
     <g id="text_4">
      <!-- 60 -->
      <g transform="translate(264.849591 335.545813) scale(0.14 -0.14)">
       <defs>
        <path id="DejaVuSans-36" d="M 2113 2584 
Q 1688 2584 1439 2293 
Q 1191 2003 1191 1497 
Q 1191 994 1439 701 
Q 1688 409 2113 409 
Q 2538 409 2786 701 
Q 3034 994 3034 1497 
Q 3034 2003 2786 2293 
Q 2538 2584 2113 2584 
z
M 3366 4563 
L 3366 3988 
Q 3128 4100 2886 4159 
Q 2644 4219 2406 4219 
Q 1781 4219 1451 3797 
Q 1122 3375 1075 2522 
Q 1259 2794 1537 2939 
Q 1816 3084 2150 3084 
Q 2853 3084 3261 2657 
Q 3669 2231 3669 1497 
Q 3669 778 3244 343 
Q 2819 -91 2113 -91 
Q 1303 -91 875 529 
Q 447 1150 447 2328 
Q 447 3434 972 4092 
Q 1497 4750 2381 4750 
Q 2619 4750 2861 4703 
Q 3103 4656 3366 4563 
z
" transform="scale(0.015625)"/>
       </defs>
       <use xlink:href="#DejaVuSans-36"/>
       <use xlink:href="#DejaVuSans-30" x="63.623047"/>
      </g>
     </g>
    </g>
    <g id="xtick_5">
     <g id="line2d_9">
      <path d="M 346.647273 321.408 
L 346.647273 41.472 
" clip-path="url(#p9f9583a565)" style="fill: none; stroke: #cbcbcb"/>
     </g>
     <g id="line2d_10"/>
     <g id="text_5">
      <!-- 80 -->
      <g transform="translate(337.739773 335.545813) scale(0.14 -0.14)">
       <defs>
        <path id="DejaVuSans-38" d="M 2034 2216 
Q 1584 2216 1326 1975 
Q 1069 1734 1069 1313 
Q 1069 891 1326 650 
Q 1584 409 2034 409 
Q 2484 409 2743 651 
Q 3003 894 3003 1313 
Q 3003 1734 2745 1975 
Q 2488 2216 2034 2216 
z
M 1403 2484 
Q 997 2584 770 2862 
Q 544 3141 544 3541 
Q 544 4100 942 4425 
Q 1341 4750 2034 4750 
Q 2731 4750 3128 4425 
Q 3525 4100 3525 3541 
Q 3525 3141 3298 2862 
Q 3072 2584 2669 2484 
Q 3125 2378 3379 2068 
Q 3634 1759 3634 1313 
Q 3634 634 3220 271 
Q 2806 -91 2034 -91 
Q 1263 -91 848 271 
Q 434 634 434 1313 
Q 434 1759 690 2068 
Q 947 2378 1403 2484 
z
M 1172 3481 
Q 1172 3119 1398 2916 
Q 1625 2713 2034 2713 
Q 2441 2713 2670 2916 
Q 2900 3119 2900 3481 
Q 2900 3844 2670 4047 
Q 2441 4250 2034 4250 
Q 1625 4250 1398 4047 
Q 1172 3844 1172 3481 
z
" transform="scale(0.015625)"/>
       </defs>
       <use xlink:href="#DejaVuSans-38"/>
       <use xlink:href="#DejaVuSans-30" x="63.623047"/>
      </g>
     </g>
    </g>
    <g id="xtick_6">
     <g id="line2d_11">
      <path d="M 419.537455 321.408 
L 419.537455 41.472 
" clip-path="url(#p9f9583a565)" style="fill: none; stroke: #cbcbcb"/>
     </g>
     <g id="line2d_12"/>
     <g id="text_6">
      <!-- 100 -->
      <g transform="translate(406.176205 335.545813) scale(0.14 -0.14)">
       <defs>
        <path id="DejaVuSans-31" d="M 794 531 
L 1825 531 
L 1825 4091 
L 703 3866 
L 703 4441 
L 1819 4666 
L 2450 4666 
L 2450 531 
L 3481 531 
L 3481 0 
L 794 0 
L 794 531 
z
" transform="scale(0.015625)"/>
       </defs>
       <use xlink:href="#DejaVuSans-31"/>
       <use xlink:href="#DejaVuSans-30" x="63.623047"/>
       <use xlink:href="#DejaVuSans-30" x="127.246094"/>
      </g>
     </g>
    </g>
   </g>
   <g id="matplotlib.axis_2">
    <g id="ytick_1">
     <g id="line2d_13">
      <path d="M 36.864 310.188205 
L 437.76 310.188205 
" clip-path="url(#p9f9583a565)" style="fill: none; stroke: #cbcbcb"/>
     </g>
     <g id="line2d_14"/>
     <g id="text_7">
      <!-- −2 -->
      <g transform="translate(12.724938 315.507112) scale(0.14 -0.14)">
       <defs>
        <path id="DejaVuSans-2212" d="M 678 2272 
L 4684 2272 
L 4684 1741 
L 678 1741 
L 678 2272 
z
" transform="scale(0.015625)"/>
       </defs>
       <use xlink:href="#DejaVuSans-2212"/>
       <use xlink:href="#DejaVuSans-32" x="83.789062"/>
      </g>
     </g>
    </g>
    <g id="ytick_2">
     <g id="line2d_15">
      <path d="M 36.864 249.430125 
L 437.76 249.430125 
" clip-path="url(#p9f9583a565)" style="fill: none; stroke: #cbcbcb"/>
     </g>
     <g id="line2d_16"/>
     <g id="text_8">
      <!-- −1 -->
      <g transform="translate(12.724938 254.749031) scale(0.14 -0.14)">
       <use xlink:href="#DejaVuSans-2212"/>
       <use xlink:href="#DejaVuSans-31" x="83.789062"/>
      </g>
     </g>
    </g>
    <g id="ytick_3">
     <g id="line2d_17">
      <path d="M 36.864 188.672044 
L 437.76 188.672044 
" clip-path="url(#p9f9583a565)" style="fill: none; stroke: #cbcbcb"/>
     </g>
     <g id="line2d_18"/>
     <g id="text_9">
      <!-- 0 -->
      <g transform="translate(24.4565 193.99095) scale(0.14 -0.14)">
       <use xlink:href="#DejaVuSans-30"/>
      </g>
     </g>
    </g>
    <g id="ytick_4">
     <g id="line2d_19">
      <path d="M 36.864 127.913963 
L 437.76 127.913963 
" clip-path="url(#p9f9583a565)" style="fill: none; stroke: #cbcbcb"/>
     </g>
     <g id="line2d_20"/>
     <g id="text_10">
      <!-- 1 -->
      <g transform="translate(24.4565 133.232869) scale(0.14 -0.14)">
       <use xlink:href="#DejaVuSans-31"/>
      </g>
     </g>
    </g>
    <g id="ytick_5">
     <g id="line2d_21">
      <path d="M 36.864 67.155883 
L 437.76 67.155883 
" clip-path="url(#p9f9583a565)" style="fill: none; stroke: #cbcbcb"/>
     </g>
     <g id="line2d_22"/>
     <g id="text_11">
      <!-- 2 -->
      <g transform="translate(24.4565 72.474789) scale(0.14 -0.14)">
       <use xlink:href="#DejaVuSans-32"/>
      </g>
     </g>
    </g>
   </g>
   <g id="line2d_23">
    <path d="M 55.086545 215.017662 
L 58.731055 213.33113 
L 62.375564 308.683636 
L 66.020073 195.083376 
L 69.664582 291.059916 
L 73.309091 168.16285 
L 76.9536 186.683218 
L 80.598109 261.664583 
L 84.242618 207.949018 
L 87.887127 159.976023 
L 91.531636 192.117942 
L 95.176145 212.762589 
L 98.820655 172.748829 
L 102.465164 154.586117 
L 106.109673 149.50866 
L 109.754182 176.729449 
L 113.398691 108.163864 
L 117.0432 71.489371 
L 120.687709 145.01371 
L 124.332218 104.54786 
L 127.976727 274.796126 
L 131.621236 273.83008 
L 135.265745 167.738166 
L 138.910255 176.949577 
L 142.554764 170.315101 
L 146.199273 269.747099 
L 149.843782 160.723113 
L 153.488291 207.241589 
L 157.1328 277.731761 
L 160.777309 202.940861 
L 164.421818 245.855487 
L 168.066327 192.849592 
L 171.710836 178.231055 
L 175.355345 178.071489 
L 178.999855 152.547062 
L 182.644364 187.558779 
L 186.288873 215.579347 
L 189.933382 193.78995 
L 193.577891 161.697677 
L 197.2224 268.286244 
L 200.866909 196.802996 
L 204.511418 141.03867 
L 208.155927 175.645922 
L 211.800436 249.629653 
L 215.444945 205.95017 
L 219.089455 256.424201 
L 222.733964 149.982952 
L 226.378473 195.664649 
L 230.022982 172.808022 
L 233.667491 215.943821 
L 237.312 151.443388 
L 240.956509 163.770309 
L 244.601018 222.115422 
L 248.245527 83.966391 
L 251.890036 221.984619 
L 255.534545 125.385511 
L 259.179055 188.652121 
L 262.823564 167.715763 
L 266.468073 227.730151 
L 270.112582 140.577223 
L 273.757091 158.628526 
L 277.4016 101.143823 
L 281.046109 184.367134 
L 284.690618 178.313596 
L 288.335127 125.296684 
L 291.979636 185.239207 
L 295.624145 173.763543 
L 299.268655 234.070007 
L 302.913164 244.488054 
L 306.557673 100.115003 
L 310.202182 94.394977 
L 313.846691 197.432099 
L 317.4912 262.761846 
L 321.135709 223.170052 
L 324.780218 226.859651 
L 328.424727 125.375995 
L 332.069236 220.243694 
L 335.713745 252.467881 
L 339.358255 125.87714 
L 343.002764 227.352466 
L 346.647273 192.147044 
L 350.291782 71.269665 
L 353.936291 173.766784 
L 357.5808 280.573641 
L 361.225309 54.196364 
L 364.869818 84.970249 
L 368.514327 229.332877 
L 372.158836 170.960156 
L 375.803345 116.357583 
L 379.447855 174.505028 
L 383.092364 157.47091 
L 386.736873 198.134816 
L 390.381382 175.212483 
L 394.025891 105.373005 
L 397.6704 228.887204 
L 401.314909 308.444439 
L 404.959418 168.015674 
L 408.603927 248.593916 
L 412.248436 232.391288 
L 415.892945 199.253077 
" clip-path="url(#p9f9583a565)" style="fill: none; stroke: #008fd5; stroke-width: 4"/>
   </g>
   <g id="line2d_24">
    <path d="M 66.020073 245.677476 
L 69.664582 239.032714 
L 73.309091 264.942309 
L 76.9536 218.102047 
L 80.598109 215.301995 
L 84.242618 205.503551 
L 87.887127 218.765607 
L 91.531636 209.863208 
L 95.176145 186.680994 
L 98.820655 188.285518 
L 102.465164 192.54312 
L 106.109673 180.032511 
L 109.754182 158.947869 
L 113.398691 160.274742 
L 117.0432 144.800658 
L 120.687709 118.794228 
L 124.332218 108.222315 
L 127.976727 107.01698 
L 131.621236 174.785899 
L 135.265745 217.724689 
L 138.910255 238.788124 
L 142.554764 206.172608 
L 146.199273 171.667615 
L 149.843782 205.670592 
L 153.488291 200.261771 
L 157.1328 212.570601 
L 160.777309 215.232155 
L 164.421818 229.304737 
L 168.066327 242.176036 
L 171.710836 213.88198 
L 175.355345 205.645378 
L 178.999855 183.050712 
L 182.644364 169.616536 
L 186.288873 172.725777 
L 189.933382 185.228396 
L 193.577891 198.976025 
L 197.2224 190.355658 
L 200.866909 207.924624 
L 204.511418 208.928972 
L 208.155927 202.042637 
L 211.800436 171.16253 
L 215.444945 188.771415 
L 219.089455 210.408582 
L 222.733964 237.334675 
L 226.378473 204.119108 
L 230.022982 200.690601 
L 233.667491 172.818541 
L 237.312 194.805497 
L 240.956509 180.065077 
L 244.601018 177.052506 
L 248.245527 179.109706 
L 251.890036 156.617374 
L 255.534545 176.022144 
L 259.179055 143.77884 
L 262.823564 178.674083 
L 266.468073 160.584465 
L 270.112582 194.699345 
L 273.757091 178.674379 
L 277.4016 175.6453 
L 281.046109 133.449857 
L 284.690618 148.046494 
L 288.335127 154.608185 
L 291.979636 162.659138 
L 295.624145 162.949829 
L 299.268655 161.433145 
L 302.913164 197.690919 
L 306.557673 217.440534 
L 310.202182 192.891021 
L 313.846691 146.332678 
L 317.4912 130.64736 
L 321.135709 184.862974 
L 324.780218 227.787999 
L 328.424727 237.597183 
L 332.069236 191.801899 
L 335.713745 190.826447 
L 339.358255 199.362523 
L 343.002764 199.529572 
L 346.647273 201.899162 
L 350.291782 181.792217 
L 353.936291 163.589725 
L 357.5808 145.727831 
L 361.225309 175.203363 
L 364.869818 169.512263 
L 368.514327 139.913418 
L 372.158836 122.833163 
L 375.803345 161.754427 
L 379.447855 172.216872 
L 383.092364 153.940922 
L 386.736873 149.444507 
L 390.381382 176.703585 
L 394.025891 176.939403 
L 397.6704 159.573435 
L 401.314909 169.824231 
L 404.959418 214.234883 
L 408.603927 235.115772 
L 412.248436 241.684676 
L 415.892945 216.333626 
L 419.537455 226.746094 
" clip-path="url(#p9f9583a565)" style="fill: none; stroke: #fc4f30; stroke-width: 4"/>
   </g>
   <g id="line2d_25">
    <path d="M 80.598109 225.431684 
L 84.242618 232.09553 
L 87.887127 231.326657 
L 91.531636 210.082712 
L 95.176145 209.659079 
L 98.820655 198.473746 
L 102.465164 199.128886 
L 106.109673 194.543586 
L 109.754182 178.521311 
L 113.398691 174.061373 
L 117.0432 166.659636 
L 120.687709 149.426983 
L 124.332218 139.748571 
L 127.976727 130.005576 
L 131.621236 147.178434 
L 135.265745 164.938637 
L 138.910255 163.654168 
L 142.554764 173.480699 
L 146.199273 187.59866 
L 149.843782 205.417716 
L 153.488291 213.442752 
L 157.1328 203.792104 
L 160.777309 204.349487 
L 164.421818 209.378443 
L 168.066327 219.222144 
L 171.710836 222.441357 
L 175.355345 209.367637 
L 178.999855 211.845976 
L 182.644364 204.032472 
L 186.288873 191.150618 
L 189.933382 192.956116 
L 193.577891 185.518182 
L 197.2224 181.067909 
L 200.866909 193.932936 
L 204.511418 196.608865 
L 208.155927 194.964809 
L 211.800436 193.262972 
L 215.444945 198.127302 
L 219.089455 199.864476 
L 222.733964 213.396837 
L 226.378473 196.496366 
L 230.022982 196.333745 
L 233.667491 200.872224 
L 237.312 206.629067 
L 240.956509 192.602457 
L 244.601018 186.576763 
L 248.245527 181.675509 
L 251.890036 172.244572 
L 255.534545 176.004567 
L 259.179055 169.229923 
L 262.823564 165.331109 
L 266.468073 167.655734 
L 270.112582 176.792854 
L 273.757091 165.14454 
L 277.4016 175.810559 
L 281.046109 158.547588 
L 284.690618 166.973534 
L 288.335127 165.496602 
L 291.979636 159.436734 
L 295.624145 153.366599 
L 299.268655 158.107502 
L 302.913164 168.884856 
L 306.557673 189.362604 
L 310.202182 177.326585 
L 313.846691 165.338211 
L 317.4912 175.64327 
L 321.135709 186.717932 
L 324.780218 193.776005 
L 328.424727 192.745954 
L 332.069236 175.729946 
L 335.713745 192.891188 
L 339.358255 215.473031 
L 343.002764 205.250894 
L 346.647273 200.192411 
L 350.291782 195.760553 
L 353.936291 173.533412 
L 357.5808 180.446382 
L 361.225309 189.064946 
L 364.869818 160.740443 
L 368.514327 154.896602 
L 372.158836 155.179518 
L 375.803345 152.152819 
L 379.447855 158.593951 
L 383.092364 158.699414 
L 386.736873 141.11331 
L 390.381382 161.675946 
L 394.025891 174.567693 
L 397.6704 156.85914 
L 401.314909 165.134433 
L 404.959418 192.575412 
L 408.603927 191.648362 
L 412.248436 204.665934 
L 415.892945 209.559716 
L 419.537455 212.994086 
" clip-path="url(#p9f9583a565)" style="fill: none; stroke: #e5ae38; stroke-width: 4"/>
   </g>
   <g id="line2d_26">
    <path d="M 95.176145 218.157214 
L 98.820655 217.952207 
L 102.465164 214.262907 
L 106.109673 200.254042 
L 109.754182 196.110886 
L 113.398691 185.717207 
L 117.0432 180.262754 
L 120.687709 169.790586 
L 124.332218 159.185961 
L 127.976727 149.785856 
L 131.621236 160.224047 
L 135.265745 167.652423 
L 138.910255 163.559294 
L 142.554764 163.94118 
L 146.199273 165.371088 
L 149.843782 176.301855 
L 153.488291 174.846733 
L 157.1328 183.853799 
L 160.777309 202.603108 
L 164.421818 207.869212 
L 168.066327 220.71536 
L 171.710836 213.265675 
L 175.355345 204.574855 
L 178.999855 205.514248 
L 182.644364 203.295837 
L 186.288873 204.863444 
L 189.933382 199.939103 
L 193.577891 202.945179 
L 197.2224 198.804824 
L 200.866909 197.94614 
L 204.511418 197.388153 
L 208.155927 187.859351 
L 211.800436 186.295381 
L 215.444945 192.786163 
L 219.089455 195.320588 
L 222.733964 204.763965 
L 226.378473 201.34798 
L 230.022982 199.537553 
L 233.667491 197.630105 
L 237.312 202.561573 
L 240.956509 191.939495 
L 244.601018 188.936523 
L 248.245527 196.307137 
L 251.890036 187.972634 
L 255.534545 185.459449 
L 259.179055 178.135389 
L 262.823564 171.974291 
L 266.468073 173.586365 
L 270.112582 176.501411 
L 273.757091 173.571338 
L 277.4016 168.360857 
L 281.046109 163.788169 
L 284.690618 165.660608 
L 288.335127 161.678623 
L 291.979636 165.435923 
L 295.624145 162.095431 
L 299.268655 166.493434 
L 302.913164 170.622332 
L 306.557673 177.601632 
L 310.202182 166.000255 
L 313.846691 161.801869 
L 317.4912 165.329466 
L 321.135709 180.022014 
L 324.780218 183.549552 
L 328.424727 187.962829 
L 332.069236 187.970039 
L 335.713745 191.152265 
L 339.358255 198.307205 
L 343.002764 188.47149 
L 346.647273 186.913709 
L 350.291782 195.280259 
L 353.936291 193.177957 
L 357.5808 191.026565 
L 361.225309 192.645819 
L 364.869818 177.284575 
L 368.514327 164.385538 
L 372.158836 173.836164 
L 375.803345 169.355842 
L 379.447855 156.982179 
L 383.092364 161.402896 
L 386.736873 155.050027 
L 390.381382 155.59437 
L 394.025891 165.043717 
L 397.6704 158.826101 
L 401.314909 154.127334 
L 404.959418 177.240795 
L 408.603927 184.790379 
L 412.248436 186.541383 
L 415.892945 192.126031 
L 419.537455 199.661985 
" clip-path="url(#p9f9583a565)" style="fill: none; stroke: #6d904f; stroke-width: 4"/>
   </g>
   <g id="patch_3">
    <path d="M 36.864 321.408 
L 36.864 41.472 
" style="fill: none; stroke: #f0f0f0; stroke-width: 3; stroke-linejoin: miter; stroke-linecap: square"/>
   </g>
   <g id="patch_4">
    <path d="M 437.76 321.408 
L 437.76 41.472 
" style="fill: none; stroke: #f0f0f0; stroke-width: 3; stroke-linejoin: miter; stroke-linecap: square"/>
   </g>
   <g id="patch_5">
    <path d="M 36.864 321.408 
L 437.76 321.408 
" style="fill: none; stroke: #f0f0f0; stroke-width: 3; stroke-linejoin: miter; stroke-linecap: square"/>
   </g>
   <g id="patch_6">
    <path d="M 36.864 41.472 
L 437.76 41.472 
" style="fill: none; stroke: #f0f0f0; stroke-width: 3; stroke-linejoin: miter; stroke-linecap: square"/>
   </g>
   <g id="text_12">
    <!-- SMA for random data -->
    <g transform="translate(130.049775 35.472) scale(0.2016 -0.2016)">
     <defs>
      <path id="DejaVuSans-53" d="M 3425 4513 
L 3425 3897 
Q 3066 4069 2747 4153 
Q 2428 4238 2131 4238 
Q 1616 4238 1336 4038 
Q 1056 3838 1056 3469 
Q 1056 3159 1242 3001 
Q 1428 2844 1947 2747 
L 2328 2669 
Q 3034 2534 3370 2195 
Q 3706 1856 3706 1288 
Q 3706 609 3251 259 
Q 2797 -91 1919 -91 
Q 1588 -91 1214 -16 
Q 841 59 441 206 
L 441 856 
Q 825 641 1194 531 
Q 1563 422 1919 422 
Q 2459 422 2753 634 
Q 3047 847 3047 1241 
Q 3047 1584 2836 1778 
Q 2625 1972 2144 2069 
L 1759 2144 
Q 1053 2284 737 2584 
Q 422 2884 422 3419 
Q 422 4038 858 4394 
Q 1294 4750 2059 4750 
Q 2388 4750 2728 4690 
Q 3069 4631 3425 4513 
z
" transform="scale(0.015625)"/>
      <path id="DejaVuSans-4d" d="M 628 4666 
L 1569 4666 
L 2759 1491 
L 3956 4666 
L 4897 4666 
L 4897 0 
L 4281 0 
L 4281 4097 
L 3078 897 
L 2444 897 
L 1241 4097 
L 1241 0 
L 628 0 
L 628 4666 
z
" transform="scale(0.015625)"/>
      <path id="DejaVuSans-41" d="M 2188 4044 
L 1331 1722 
L 3047 1722 
L 2188 4044 
z
M 1831 4666 
L 2547 4666 
L 4325 0 
L 3669 0 
L 3244 1197 
L 1141 1197 
L 716 0 
L 50 0 
L 1831 4666 
z
" transform="scale(0.015625)"/>
      <path id="DejaVuSans-20" transform="scale(0.015625)"/>
      <path id="DejaVuSans-66" d="M 2375 4863 
L 2375 4384 
L 1825 4384 
Q 1516 4384 1395 4259 
Q 1275 4134 1275 3809 
L 1275 3500 
L 2222 3500 
L 2222 3053 
L 1275 3053 
L 1275 0 
L 697 0 
L 697 3053 
L 147 3053 
L 147 3500 
L 697 3500 
L 697 3744 
Q 697 4328 969 4595 
Q 1241 4863 1831 4863 
L 2375 4863 
z
" transform="scale(0.015625)"/>
      <path id="DejaVuSans-6f" d="M 1959 3097 
Q 1497 3097 1228 2736 
Q 959 2375 959 1747 
Q 959 1119 1226 758 
Q 1494 397 1959 397 
Q 2419 397 2687 759 
Q 2956 1122 2956 1747 
Q 2956 2369 2687 2733 
Q 2419 3097 1959 3097 
z
M 1959 3584 
Q 2709 3584 3137 3096 
Q 3566 2609 3566 1747 
Q 3566 888 3137 398 
Q 2709 -91 1959 -91 
Q 1206 -91 779 398 
Q 353 888 353 1747 
Q 353 2609 779 3096 
Q 1206 3584 1959 3584 
z
" transform="scale(0.015625)"/>
      <path id="DejaVuSans-72" d="M 2631 2963 
Q 2534 3019 2420 3045 
Q 2306 3072 2169 3072 
Q 1681 3072 1420 2755 
Q 1159 2438 1159 1844 
L 1159 0 
L 581 0 
L 581 3500 
L 1159 3500 
L 1159 2956 
Q 1341 3275 1631 3429 
Q 1922 3584 2338 3584 
Q 2397 3584 2469 3576 
Q 2541 3569 2628 3553 
L 2631 2963 
z
" transform="scale(0.015625)"/>
      <path id="DejaVuSans-61" d="M 2194 1759 
Q 1497 1759 1228 1600 
Q 959 1441 959 1056 
Q 959 750 1161 570 
Q 1363 391 1709 391 
Q 2188 391 2477 730 
Q 2766 1069 2766 1631 
L 2766 1759 
L 2194 1759 
z
M 3341 1997 
L 3341 0 
L 2766 0 
L 2766 531 
Q 2569 213 2275 61 
Q 1981 -91 1556 -91 
Q 1019 -91 701 211 
Q 384 513 384 1019 
Q 384 1609 779 1909 
Q 1175 2209 1959 2209 
L 2766 2209 
L 2766 2266 
Q 2766 2663 2505 2880 
Q 2244 3097 1772 3097 
Q 1472 3097 1187 3025 
Q 903 2953 641 2809 
L 641 3341 
Q 956 3463 1253 3523 
Q 1550 3584 1831 3584 
Q 2591 3584 2966 3190 
Q 3341 2797 3341 1997 
z
" transform="scale(0.015625)"/>
      <path id="DejaVuSans-6e" d="M 3513 2113 
L 3513 0 
L 2938 0 
L 2938 2094 
Q 2938 2591 2744 2837 
Q 2550 3084 2163 3084 
Q 1697 3084 1428 2787 
Q 1159 2491 1159 1978 
L 1159 0 
L 581 0 
L 581 3500 
L 1159 3500 
L 1159 2956 
Q 1366 3272 1645 3428 
Q 1925 3584 2291 3584 
Q 2894 3584 3203 3211 
Q 3513 2838 3513 2113 
z
" transform="scale(0.015625)"/>
      <path id="DejaVuSans-64" d="M 2906 2969 
L 2906 4863 
L 3481 4863 
L 3481 0 
L 2906 0 
L 2906 525 
Q 2725 213 2448 61 
Q 2172 -91 1784 -91 
Q 1150 -91 751 415 
Q 353 922 353 1747 
Q 353 2572 751 3078 
Q 1150 3584 1784 3584 
Q 2172 3584 2448 3432 
Q 2725 3281 2906 2969 
z
M 947 1747 
Q 947 1113 1208 752 
Q 1469 391 1925 391 
Q 2381 391 2643 752 
Q 2906 1113 2906 1747 
Q 2906 2381 2643 2742 
Q 2381 3103 1925 3103 
Q 1469 3103 1208 2742 
Q 947 2381 947 1747 
z
" transform="scale(0.015625)"/>
      <path id="DejaVuSans-6d" d="M 3328 2828 
Q 3544 3216 3844 3400 
Q 4144 3584 4550 3584 
Q 5097 3584 5394 3201 
Q 5691 2819 5691 2113 
L 5691 0 
L 5113 0 
L 5113 2094 
Q 5113 2597 4934 2840 
Q 4756 3084 4391 3084 
Q 3944 3084 3684 2787 
Q 3425 2491 3425 1978 
L 3425 0 
L 2847 0 
L 2847 2094 
Q 2847 2600 2669 2842 
Q 2491 3084 2119 3084 
Q 1678 3084 1418 2786 
Q 1159 2488 1159 1978 
L 1159 0 
L 581 0 
L 581 3500 
L 1159 3500 
L 1159 2956 
Q 1356 3278 1631 3431 
Q 1906 3584 2284 3584 
Q 2666 3584 2933 3390 
Q 3200 3197 3328 2828 
z
" transform="scale(0.015625)"/>
      <path id="DejaVuSans-74" d="M 1172 4494 
L 1172 3500 
L 2356 3500 
L 2356 3053 
L 1172 3053 
L 1172 1153 
Q 1172 725 1289 603 
Q 1406 481 1766 481 
L 2356 481 
L 2356 0 
L 1766 0 
Q 1100 0 847 248 
Q 594 497 594 1153 
L 594 3053 
L 172 3053 
L 172 3500 
L 594 3500 
L 594 4494 
L 1172 4494 
z
" transform="scale(0.015625)"/>
     </defs>
     <use xlink:href="#DejaVuSans-53"/>
     <use xlink:href="#DejaVuSans-4d" x="63.476562"/>
     <use xlink:href="#DejaVuSans-41" x="149.755859"/>
     <use xlink:href="#DejaVuSans-20" x="218.164062"/>
     <use xlink:href="#DejaVuSans-66" x="249.951172"/>
     <use xlink:href="#DejaVuSans-6f" x="285.15625"/>
     <use xlink:href="#DejaVuSans-72" x="346.337891"/>
     <use xlink:href="#DejaVuSans-20" x="387.451172"/>
     <use xlink:href="#DejaVuSans-72" x="419.238281"/>
     <use xlink:href="#DejaVuSans-61" x="460.351562"/>
     <use xlink:href="#DejaVuSans-6e" x="521.630859"/>
     <use xlink:href="#DejaVuSans-64" x="585.009766"/>
     <use xlink:href="#DejaVuSans-6f" x="648.486328"/>
     <use xlink:href="#DejaVuSans-6d" x="709.667969"/>
     <use xlink:href="#DejaVuSans-20" x="807.080078"/>
     <use xlink:href="#DejaVuSans-64" x="838.867188"/>
     <use xlink:href="#DejaVuSans-61" x="902.34375"/>
     <use xlink:href="#DejaVuSans-74" x="963.623047"/>
     <use xlink:href="#DejaVuSans-61" x="1002.832031"/>
    </g>
   </g>
   <g id="legend_1">
    <g id="patch_7">
     <path d="M 185.011063 314.408 
L 289.612937 314.408 
Q 292.412937 314.408 292.412937 311.608 
L 292.412937 230.8105 
Q 292.412937 228.0105 289.612937 228.0105 
L 185.011063 228.0105 
Q 182.211062 228.0105 182.211062 230.8105 
L 182.211062 311.608 
Q 182.211062 314.408 185.011063 314.408 
z
" style="fill: #f0f0f0; opacity: 0.8; stroke: #cccccc; stroke-width: 0.5; stroke-linejoin: miter"/>
    </g>
    <g id="line2d_27">
     <path d="M 187.811062 239.348312 
L 201.811062 239.348312 
L 215.811062 239.348312 
" style="fill: none; stroke: #008fd5; stroke-width: 4"/>
    </g>
    <g id="text_13">
     <!-- Data -->
     <g transform="translate(227.011062 244.248312) scale(0.14 -0.14)">
      <defs>
       <path id="DejaVuSans-44" d="M 1259 4147 
L 1259 519 
L 2022 519 
Q 2988 519 3436 956 
Q 3884 1394 3884 2338 
Q 3884 3275 3436 3711 
Q 2988 4147 2022 4147 
L 1259 4147 
z
M 628 4666 
L 1925 4666 
Q 3281 4666 3915 4102 
Q 4550 3538 4550 2338 
Q 4550 1131 3912 565 
Q 3275 0 1925 0 
L 628 0 
L 628 4666 
z
" transform="scale(0.015625)"/>
      </defs>
      <use xlink:href="#DejaVuSans-44"/>
      <use xlink:href="#DejaVuSans-61" x="77.001953"/>
      <use xlink:href="#DejaVuSans-74" x="138.28125"/>
      <use xlink:href="#DejaVuSans-61" x="177.490234"/>
     </g>
    </g>
    <g id="line2d_28">
     <path d="M 187.811062 259.897688 
L 201.811062 259.897688 
L 215.811062 259.897688 
" style="fill: none; stroke: #fc4f30; stroke-width: 4"/>
    </g>
    <g id="text_14">
     <!-- lag = 3 -->
     <g transform="translate(227.011062 264.797687) scale(0.14 -0.14)">
      <defs>
       <path id="DejaVuSans-6c" d="M 603 4863 
L 1178 4863 
L 1178 0 
L 603 0 
L 603 4863 
z
" transform="scale(0.015625)"/>
       <path id="DejaVuSans-67" d="M 2906 1791 
Q 2906 2416 2648 2759 
Q 2391 3103 1925 3103 
Q 1463 3103 1205 2759 
Q 947 2416 947 1791 
Q 947 1169 1205 825 
Q 1463 481 1925 481 
Q 2391 481 2648 825 
Q 2906 1169 2906 1791 
z
M 3481 434 
Q 3481 -459 3084 -895 
Q 2688 -1331 1869 -1331 
Q 1566 -1331 1297 -1286 
Q 1028 -1241 775 -1147 
L 775 -588 
Q 1028 -725 1275 -790 
Q 1522 -856 1778 -856 
Q 2344 -856 2625 -561 
Q 2906 -266 2906 331 
L 2906 616 
Q 2728 306 2450 153 
Q 2172 0 1784 0 
Q 1141 0 747 490 
Q 353 981 353 1791 
Q 353 2603 747 3093 
Q 1141 3584 1784 3584 
Q 2172 3584 2450 3431 
Q 2728 3278 2906 2969 
L 2906 3500 
L 3481 3500 
L 3481 434 
z
" transform="scale(0.015625)"/>
       <path id="DejaVuSans-3d" d="M 678 2906 
L 4684 2906 
L 4684 2381 
L 678 2381 
L 678 2906 
z
M 678 1631 
L 4684 1631 
L 4684 1100 
L 678 1100 
L 678 1631 
z
" transform="scale(0.015625)"/>
       <path id="DejaVuSans-33" d="M 2597 2516 
Q 3050 2419 3304 2112 
Q 3559 1806 3559 1356 
Q 3559 666 3084 287 
Q 2609 -91 1734 -91 
Q 1441 -91 1130 -33 
Q 819 25 488 141 
L 488 750 
Q 750 597 1062 519 
Q 1375 441 1716 441 
Q 2309 441 2620 675 
Q 2931 909 2931 1356 
Q 2931 1769 2642 2001 
Q 2353 2234 1838 2234 
L 1294 2234 
L 1294 2753 
L 1863 2753 
Q 2328 2753 2575 2939 
Q 2822 3125 2822 3475 
Q 2822 3834 2567 4026 
Q 2313 4219 1838 4219 
Q 1578 4219 1281 4162 
Q 984 4106 628 3988 
L 628 4550 
Q 988 4650 1302 4700 
Q 1616 4750 1894 4750 
Q 2613 4750 3031 4423 
Q 3450 4097 3450 3541 
Q 3450 3153 3228 2886 
Q 3006 2619 2597 2516 
z
" transform="scale(0.015625)"/>
      </defs>
      <use xlink:href="#DejaVuSans-6c"/>
      <use xlink:href="#DejaVuSans-61" x="27.783203"/>
      <use xlink:href="#DejaVuSans-67" x="89.0625"/>
      <use xlink:href="#DejaVuSans-20" x="152.539062"/>
      <use xlink:href="#DejaVuSans-3d" x="184.326172"/>
      <use xlink:href="#DejaVuSans-20" x="268.115234"/>
      <use xlink:href="#DejaVuSans-33" x="299.902344"/>
     </g>
    </g>
    <g id="line2d_29">
     <path d="M 187.811062 280.447063 
L 201.811062 280.447063 
L 215.811062 280.447063 
" style="fill: none; stroke: #e5ae38; stroke-width: 4"/>
    </g>
    <g id="text_15">
     <!-- lag = 7 -->
     <g transform="translate(227.011062 285.347062) scale(0.14 -0.14)">
      <defs>
       <path id="DejaVuSans-37" d="M 525 4666 
L 3525 4666 
L 3525 4397 
L 1831 0 
L 1172 0 
L 2766 4134 
L 525 4134 
L 525 4666 
z
" transform="scale(0.015625)"/>
      </defs>
      <use xlink:href="#DejaVuSans-6c"/>
      <use xlink:href="#DejaVuSans-61" x="27.783203"/>
      <use xlink:href="#DejaVuSans-67" x="89.0625"/>
      <use xlink:href="#DejaVuSans-20" x="152.539062"/>
      <use xlink:href="#DejaVuSans-3d" x="184.326172"/>
      <use xlink:href="#DejaVuSans-20" x="268.115234"/>
      <use xlink:href="#DejaVuSans-37" x="299.902344"/>
     </g>
    </g>
    <g id="line2d_30">
     <path d="M 187.811062 300.996438 
L 201.811062 300.996438 
L 215.811062 300.996438 
" style="fill: none; stroke: #6d904f; stroke-width: 4"/>
    </g>
    <g id="text_16">
     <!-- lag = 11 -->
     <g transform="translate(227.011062 305.896437) scale(0.14 -0.14)">
      <use xlink:href="#DejaVuSans-6c"/>
      <use xlink:href="#DejaVuSans-61" x="27.783203"/>
      <use xlink:href="#DejaVuSans-67" x="89.0625"/>
      <use xlink:href="#DejaVuSans-20" x="152.539062"/>
      <use xlink:href="#DejaVuSans-3d" x="184.326172"/>
      <use xlink:href="#DejaVuSans-20" x="268.115234"/>
      <use xlink:href="#DejaVuSans-31" x="299.902344"/>
      <use xlink:href="#DejaVuSans-31" x="363.525391"/>
     </g>
    </g>
   </g>
  </g>
 </g>
 <defs>
  <clipPath id="p9f9583a565">
   <rect x="36.864" y="41.472" width="400.896" height="279.936"/>
  </clipPath>
 </defs>
</svg>
