<?xml version="1.0" encoding="utf-8" standalone="no"?>
<!DOCTYPE svg PUBLIC "-//W3C//DTD SVG 1.1//EN"
  "http://www.w3.org/Graphics/SVG/1.1/DTD/svg11.dtd">
<svg xmlns:xlink="http://www.w3.org/1999/xlink" width="460.8pt" height="345.6pt" viewBox="0 0 460.8 345.6" xmlns="http://www.w3.org/2000/svg" version="1.1">
 <metadata>
  <rdf:RDF xmlns:dc="http://purl.org/dc/elements/1.1/" xmlns:cc="http://creativecommons.org/ns#" xmlns:rdf="http://www.w3.org/1999/02/22-rdf-syntax-ns#">
   <cc:Work>
    <dc:type rdf:resource="http://purl.org/dc/dcmitype/StillImage"/>
    <dc:date>2023-04-30T19:54:58.230860</dc:date>
    <dc:format>image/svg+xml</dc:format>
    <dc:creator>
     <cc:Agent>
      <dc:title>Matplotlib v3.6.3, https://matplotlib.org/</dc:title>
     </cc:Agent>
    </dc:creator>
   </cc:Work>
  </rdf:RDF>
 </metadata>
 <defs>
  <style type="text/css">*{stroke-linejoin: round; stroke-linecap: butt}</style>
 </defs>
 <g id="figure_1">
  <g id="patch_1">
   <path d="M 0 345.6 
L 460.8 345.6 
L 460.8 0 
L 0 0 
L 0 345.6 
z
" style="fill: none"/>
  </g>
  <g id="axes_1">
   <g id="patch_2">
    <path d="M 36.864 321.408 
L 437.76 321.408 
L 437.76 41.472 
L 36.864 41.472 
L 36.864 321.408 
z
" style="fill: none"/>
   </g>
   <g id="matplotlib.axis_1">
    <g id="xtick_1">
     <g id="line2d_1">
      <path d="M 55.086545 321.408 
L 55.086545 41.472 
" clip-path="url(#pab092341e8)" style="fill: none; stroke: #cbcbcb"/>
     </g>
     <g id="line2d_2"/>
     <g id="text_1">
      <!-- 0 -->
      <g transform="translate(50.632795 335.545813) scale(0.14 -0.14)">
       <defs>
        <path id="DejaVuSans-30" d="M 2034 4250 
Q 1547 4250 1301 3770 
Q 1056 3291 1056 2328 
Q 1056 1369 1301 889 
Q 1547 409 2034 409 
Q 2525 409 2770 889 
Q 3016 1369 3016 2328 
Q 3016 3291 2770 3770 
Q 2525 4250 2034 4250 
z
M 2034 4750 
Q 2819 4750 3233 4129 
Q 3647 3509 3647 2328 
Q 3647 1150 3233 529 
Q 2819 -91 2034 -91 
Q 1250 -91 836 529 
Q 422 1150 422 2328 
Q 422 3509 836 4129 
Q 1250 4750 2034 4750 
z
" transform="scale(0.015625)"/>
       </defs>
       <use xlink:href="#DejaVuSans-30"/>
      </g>
     </g>
    </g>
    <g id="xtick_2">
     <g id="line2d_3">
      <path d="M 100.642909 321.408 
L 100.642909 41.472 
" clip-path="url(#pab092341e8)" style="fill: none; stroke: #cbcbcb"/>
     </g>
     <g id="line2d_4"/>
     <g id="text_2">
      <!-- 25 -->
      <g transform="translate(91.735409 335.545813) scale(0.14 -0.14)">
       <defs>
        <path id="DejaVuSans-32" d="M 1228 531 
L 3431 531 
L 3431 0 
L 469 0 
L 469 531 
Q 828 903 1448 1529 
Q 2069 2156 2228 2338 
Q 2531 2678 2651 2914 
Q 2772 3150 2772 3378 
Q 2772 3750 2511 3984 
Q 2250 4219 1831 4219 
Q 1534 4219 1204 4116 
Q 875 4013 500 3803 
L 500 4441 
Q 881 4594 1212 4672 
Q 1544 4750 1819 4750 
Q 2544 4750 2975 4387 
Q 3406 4025 3406 3419 
Q 3406 3131 3298 2873 
Q 3191 2616 2906 2266 
Q 2828 2175 2409 1742 
Q 1991 1309 1228 531 
z
" transform="scale(0.015625)"/>
        <path id="DejaVuSans-35" d="M 691 4666 
L 3169 4666 
L 3169 4134 
L 1269 4134 
L 1269 2991 
Q 1406 3038 1543 3061 
Q 1681 3084 1819 3084 
Q 2600 3084 3056 2656 
Q 3513 2228 3513 1497 
Q 3513 744 3044 326 
Q 2575 -91 1722 -91 
Q 1428 -91 1123 -41 
Q 819 9 494 109 
L 494 744 
Q 775 591 1075 516 
Q 1375 441 1709 441 
Q 2250 441 2565 725 
Q 2881 1009 2881 1497 
Q 2881 1984 2565 2268 
Q 2250 2553 1709 2553 
Q 1456 2553 1204 2497 
Q 953 2441 691 2322 
L 691 4666 
z
" transform="scale(0.015625)"/>
       </defs>
       <use xlink:href="#DejaVuSans-32"/>
       <use xlink:href="#DejaVuSans-35" x="63.623047"/>
      </g>
     </g>
    </g>
    <g id="xtick_3">
     <g id="line2d_5">
      <path d="M 146.199273 321.408 
L 146.199273 41.472 
" clip-path="url(#pab092341e8)" style="fill: none; stroke: #cbcbcb"/>
     </g>
     <g id="line2d_6"/>
     <g id="text_3">
      <!-- 50 -->
      <g transform="translate(137.291773 335.545813) scale(0.14 -0.14)">
       <use xlink:href="#DejaVuSans-35"/>
       <use xlink:href="#DejaVuSans-30" x="63.623047"/>
      </g>
     </g>
    </g>
    <g id="xtick_4">
     <g id="line2d_7">
      <path d="M 191.755636 321.408 
L 191.755636 41.472 
" clip-path="url(#pab092341e8)" style="fill: none; stroke: #cbcbcb"/>
     </g>
     <g id="line2d_8"/>
     <g id="text_4">
      <!-- 75 -->
      <g transform="translate(182.848136 335.545813) scale(0.14 -0.14)">
       <defs>
        <path id="DejaVuSans-37" d="M 525 4666 
L 3525 4666 
L 3525 4397 
L 1831 0 
L 1172 0 
L 2766 4134 
L 525 4134 
L 525 4666 
z
" transform="scale(0.015625)"/>
       </defs>
       <use xlink:href="#DejaVuSans-37"/>
       <use xlink:href="#DejaVuSans-35" x="63.623047"/>
      </g>
     </g>
    </g>
    <g id="xtick_5">
     <g id="line2d_9">
      <path d="M 237.312 321.408 
L 237.312 41.472 
" clip-path="url(#pab092341e8)" style="fill: none; stroke: #cbcbcb"/>
     </g>
     <g id="line2d_10"/>
     <g id="text_5">
      <!-- 100 -->
      <g transform="translate(223.95075 335.545813) scale(0.14 -0.14)">
       <defs>
        <path id="DejaVuSans-31" d="M 794 531 
L 1825 531 
L 1825 4091 
L 703 3866 
L 703 4441 
L 1819 4666 
L 2450 4666 
L 2450 531 
L 3481 531 
L 3481 0 
L 794 0 
L 794 531 
z
" transform="scale(0.015625)"/>
       </defs>
       <use xlink:href="#DejaVuSans-31"/>
       <use xlink:href="#DejaVuSans-30" x="63.623047"/>
       <use xlink:href="#DejaVuSans-30" x="127.246094"/>
      </g>
     </g>
    </g>
    <g id="xtick_6">
     <g id="line2d_11">
      <path d="M 282.868364 321.408 
L 282.868364 41.472 
" clip-path="url(#pab092341e8)" style="fill: none; stroke: #cbcbcb"/>
     </g>
     <g id="line2d_12"/>
     <g id="text_6">
      <!-- 125 -->
      <g transform="translate(269.507114 335.545813) scale(0.14 -0.14)">
       <use xlink:href="#DejaVuSans-31"/>
       <use xlink:href="#DejaVuSans-32" x="63.623047"/>
       <use xlink:href="#DejaVuSans-35" x="127.246094"/>
      </g>
     </g>
    </g>
    <g id="xtick_7">
     <g id="line2d_13">
      <path d="M 328.424727 321.408 
L 328.424727 41.472 
" clip-path="url(#pab092341e8)" style="fill: none; stroke: #cbcbcb"/>
     </g>
     <g id="line2d_14"/>
     <g id="text_7">
      <!-- 150 -->
      <g transform="translate(315.063477 335.545813) scale(0.14 -0.14)">
       <use xlink:href="#DejaVuSans-31"/>
       <use xlink:href="#DejaVuSans-35" x="63.623047"/>
       <use xlink:href="#DejaVuSans-30" x="127.246094"/>
      </g>
     </g>
    </g>
    <g id="xtick_8">
     <g id="line2d_15">
      <path d="M 373.981091 321.408 
L 373.981091 41.472 
" clip-path="url(#pab092341e8)" style="fill: none; stroke: #cbcbcb"/>
     </g>
     <g id="line2d_16"/>
     <g id="text_8">
      <!-- 175 -->
      <g transform="translate(360.619841 335.545813) scale(0.14 -0.14)">
       <use xlink:href="#DejaVuSans-31"/>
       <use xlink:href="#DejaVuSans-37" x="63.623047"/>
       <use xlink:href="#DejaVuSans-35" x="127.246094"/>
      </g>
     </g>
    </g>
    <g id="xtick_9">
     <g id="line2d_17">
      <path d="M 419.537455 321.408 
L 419.537455 41.472 
" clip-path="url(#pab092341e8)" style="fill: none; stroke: #cbcbcb"/>
     </g>
     <g id="line2d_18"/>
     <g id="text_9">
      <!-- 200 -->
      <g transform="translate(406.176205 335.545813) scale(0.14 -0.14)">
       <use xlink:href="#DejaVuSans-32"/>
       <use xlink:href="#DejaVuSans-30" x="63.623047"/>
       <use xlink:href="#DejaVuSans-30" x="127.246094"/>
      </g>
     </g>
    </g>
   </g>
   <g id="matplotlib.axis_2">
    <g id="ytick_1">
     <g id="line2d_19">
      <path d="M 36.864 308.687601 
L 437.76 308.687601 
" clip-path="url(#pab092341e8)" style="fill: none; stroke: #cbcbcb"/>
     </g>
     <g id="line2d_20"/>
     <g id="text_10">
      <!-- −1.00 -->
      <g transform="translate(-9.539437 314.006507) scale(0.14 -0.14)">
       <defs>
        <path id="DejaVuSans-2212" d="M 678 2272 
L 4684 2272 
L 4684 1741 
L 678 1741 
L 678 2272 
z
" transform="scale(0.015625)"/>
        <path id="DejaVuSans-2e" d="M 684 794 
L 1344 794 
L 1344 0 
L 684 0 
L 684 794 
z
" transform="scale(0.015625)"/>
       </defs>
       <use xlink:href="#DejaVuSans-2212"/>
       <use xlink:href="#DejaVuSans-31" x="83.789062"/>
       <use xlink:href="#DejaVuSans-2e" x="147.412109"/>
       <use xlink:href="#DejaVuSans-30" x="179.199219"/>
       <use xlink:href="#DejaVuSans-30" x="242.822266"/>
      </g>
     </g>
    </g>
    <g id="ytick_2">
     <g id="line2d_21">
      <path d="M 36.864 276.8757 
L 437.76 276.8757 
" clip-path="url(#pab092341e8)" style="fill: none; stroke: #cbcbcb"/>
     </g>
     <g id="line2d_22"/>
     <g id="text_11">
      <!-- −0.75 -->
      <g transform="translate(-9.539437 282.194607) scale(0.14 -0.14)">
       <use xlink:href="#DejaVuSans-2212"/>
       <use xlink:href="#DejaVuSans-30" x="83.789062"/>
       <use xlink:href="#DejaVuSans-2e" x="147.412109"/>
       <use xlink:href="#DejaVuSans-37" x="179.199219"/>
       <use xlink:href="#DejaVuSans-35" x="242.822266"/>
      </g>
     </g>
    </g>
    <g id="ytick_3">
     <g id="line2d_23">
      <path d="M 36.864 245.0638 
L 437.76 245.0638 
" clip-path="url(#pab092341e8)" style="fill: none; stroke: #cbcbcb"/>
     </g>
     <g id="line2d_24"/>
     <g id="text_12">
      <!-- −0.50 -->
      <g transform="translate(-9.539437 250.382707) scale(0.14 -0.14)">
       <use xlink:href="#DejaVuSans-2212"/>
       <use xlink:href="#DejaVuSans-30" x="83.789062"/>
       <use xlink:href="#DejaVuSans-2e" x="147.412109"/>
       <use xlink:href="#DejaVuSans-35" x="179.199219"/>
       <use xlink:href="#DejaVuSans-30" x="242.822266"/>
      </g>
     </g>
    </g>
    <g id="ytick_4">
     <g id="line2d_25">
      <path d="M 36.864 213.2519 
L 437.76 213.2519 
" clip-path="url(#pab092341e8)" style="fill: none; stroke: #cbcbcb"/>
     </g>
     <g id="line2d_26"/>
     <g id="text_13">
      <!-- −0.25 -->
      <g transform="translate(-9.539437 218.570806) scale(0.14 -0.14)">
       <use xlink:href="#DejaVuSans-2212"/>
       <use xlink:href="#DejaVuSans-30" x="83.789062"/>
       <use xlink:href="#DejaVuSans-2e" x="147.412109"/>
       <use xlink:href="#DejaVuSans-32" x="179.199219"/>
       <use xlink:href="#DejaVuSans-35" x="242.822266"/>
      </g>
     </g>
    </g>
    <g id="ytick_5">
     <g id="line2d_27">
      <path d="M 36.864 181.44 
L 437.76 181.44 
" clip-path="url(#pab092341e8)" style="fill: none; stroke: #cbcbcb"/>
     </g>
     <g id="line2d_28"/>
     <g id="text_14">
      <!-- 0.00 -->
      <g transform="translate(2.192125 186.758906) scale(0.14 -0.14)">
       <use xlink:href="#DejaVuSans-30"/>
       <use xlink:href="#DejaVuSans-2e" x="63.623047"/>
       <use xlink:href="#DejaVuSans-30" x="95.410156"/>
       <use xlink:href="#DejaVuSans-30" x="159.033203"/>
      </g>
     </g>
    </g>
    <g id="ytick_6">
     <g id="line2d_29">
      <path d="M 36.864 149.6281 
L 437.76 149.6281 
" clip-path="url(#pab092341e8)" style="fill: none; stroke: #cbcbcb"/>
     </g>
     <g id="line2d_30"/>
     <g id="text_15">
      <!-- 0.25 -->
      <g transform="translate(2.192125 154.947006) scale(0.14 -0.14)">
       <use xlink:href="#DejaVuSans-30"/>
       <use xlink:href="#DejaVuSans-2e" x="63.623047"/>
       <use xlink:href="#DejaVuSans-32" x="95.410156"/>
       <use xlink:href="#DejaVuSans-35" x="159.033203"/>
      </g>
     </g>
    </g>
    <g id="ytick_7">
     <g id="line2d_31">
      <path d="M 36.864 117.8162 
L 437.76 117.8162 
" clip-path="url(#pab092341e8)" style="fill: none; stroke: #cbcbcb"/>
     </g>
     <g id="line2d_32"/>
     <g id="text_16">
      <!-- 0.50 -->
      <g transform="translate(2.192125 123.135106) scale(0.14 -0.14)">
       <use xlink:href="#DejaVuSans-30"/>
       <use xlink:href="#DejaVuSans-2e" x="63.623047"/>
       <use xlink:href="#DejaVuSans-35" x="95.410156"/>
       <use xlink:href="#DejaVuSans-30" x="159.033203"/>
      </g>
     </g>
    </g>
    <g id="ytick_8">
     <g id="line2d_33">
      <path d="M 36.864 86.0043 
L 437.76 86.0043 
" clip-path="url(#pab092341e8)" style="fill: none; stroke: #cbcbcb"/>
     </g>
     <g id="line2d_34"/>
     <g id="text_17">
      <!-- 0.75 -->
      <g transform="translate(2.192125 91.323206) scale(0.14 -0.14)">
       <use xlink:href="#DejaVuSans-30"/>
       <use xlink:href="#DejaVuSans-2e" x="63.623047"/>
       <use xlink:href="#DejaVuSans-37" x="95.410156"/>
       <use xlink:href="#DejaVuSans-35" x="159.033203"/>
      </g>
     </g>
    </g>
    <g id="ytick_9">
     <g id="line2d_35">
      <path d="M 36.864 54.192399 
L 437.76 54.192399 
" clip-path="url(#pab092341e8)" style="fill: none; stroke: #cbcbcb"/>
     </g>
     <g id="line2d_36"/>
     <g id="text_18">
      <!-- 1.00 -->
      <g transform="translate(2.192125 59.511306) scale(0.14 -0.14)">
       <use xlink:href="#DejaVuSans-31"/>
       <use xlink:href="#DejaVuSans-2e" x="63.623047"/>
       <use xlink:href="#DejaVuSans-30" x="95.410156"/>
       <use xlink:href="#DejaVuSans-30" x="159.033203"/>
      </g>
     </g>
    </g>
   </g>
   <g id="line2d_37">
    <path d="M 55.086545 181.44 
L 58.731055 141.927326 
L 60.553309 123.402476 
L 62.375564 106.321072 
L 64.197818 91.107944 
L 66.020073 78.141454 
L 67.842327 67.744091 
L 69.664582 60.174448 
L 71.486836 55.620788 
L 73.309091 54.196364 
L 75.131345 55.936603 
L 76.9536 60.798224 
L 78.775855 68.660314 
L 80.598109 79.327336 
L 82.420364 92.533992 
L 84.242618 107.951819 
L 86.064873 125.197363 
L 89.709382 163.421165 
L 95.176145 222.857214 
L 96.9984 241.257946 
L 98.820655 258.170953 
L 100.642909 273.175592 
L 102.465164 285.898685 
L 104.287418 296.023796 
L 106.109673 303.299106 
L 107.931927 307.543671 
L 109.754182 308.651925 
L 111.576436 306.596304 
L 113.398691 301.427933 
L 115.220945 293.275356 
L 117.0432 282.341333 
L 118.865455 268.897803 
L 120.687709 253.279119 
L 122.509964 235.873733 
L 126.154473 197.46807 
L 131.621236 138.128568 
L 133.443491 119.856539 
L 135.265745 103.116145 
L 137.088 88.323735 
L 138.910255 75.84721 
L 140.732509 65.996873 
L 142.554764 59.01771 
L 144.377018 55.083298 
L 146.199273 54.291491 
L 148.021527 56.661981 
L 149.843782 62.135813 
L 151.666036 70.576846 
L 153.488291 81.775145 
L 155.310545 95.452199 
L 157.1328 111.267846 
L 158.955055 128.828737 
L 162.599564 167.406689 
L 168.066327 226.634855 
L 169.888582 244.773629 
L 171.710836 261.337238 
L 173.533091 275.913732 
L 175.355345 288.140579 
L 177.1776 297.713687 
L 178.999855 304.394965 
L 180.822109 308.018242 
L 182.644364 308.493405 
L 184.466618 305.808636 
L 186.288873 300.030708 
L 188.111127 291.303323 
L 189.933382 279.843538 
L 191.755636 265.93637 
L 193.577891 249.927701 
L 195.400145 232.215681 
L 199.044655 193.475054 
L 204.511418 134.372985 
L 206.333673 116.371988 
L 208.155927 99.989292 
L 209.978182 85.632347 
L 211.800436 73.658224 
L 213.622691 64.364731 
L 215.444945 57.983004 
L 217.2672 54.671764 
L 219.089455 54.513363 
L 220.911709 57.511741 
L 222.733964 63.592326 
L 224.556218 72.603888 
L 226.378473 84.322302 
L 228.200727 98.45612 
L 230.022982 114.653822 
L 231.845236 132.512555 
L 235.489745 171.406203 
L 239.134255 211.291842 
L 240.956509 230.367445 
L 242.778764 248.226178 
L 244.601018 264.42388 
L 246.423273 278.557698 
L 248.245527 290.276112 
L 250.067782 299.287674 
L 251.890036 305.368259 
L 253.712291 308.366637 
L 255.534545 308.208236 
L 257.3568 304.896996 
L 259.179055 298.515269 
L 261.001309 289.221776 
L 262.823564 277.247653 
L 264.645818 262.890708 
L 266.468073 246.508012 
L 268.290327 228.507015 
L 271.934836 189.47004 
L 275.579345 149.639175 
L 277.4016 130.664319 
L 279.223855 112.952299 
L 281.046109 96.94363 
L 282.868364 83.036462 
L 284.690618 71.576677 
L 286.512873 62.849292 
L 288.335127 57.071364 
L 290.157382 54.386595 
L 291.979636 54.861758 
L 293.801891 58.485035 
L 295.624145 65.166313 
L 297.4464 74.739421 
L 299.268655 86.966268 
L 301.090909 101.542762 
L 302.913164 118.106371 
L 304.735418 136.245145 
L 308.379927 175.415718 
L 312.024436 215.181882 
L 313.846691 234.051263 
L 315.668945 251.612154 
L 317.4912 267.427801 
L 319.313455 281.104855 
L 321.135709 292.303154 
L 322.957964 300.744187 
L 324.780218 306.218019 
L 326.602473 308.588509 
L 328.424727 307.796702 
L 330.246982 303.86229 
L 332.069236 296.883127 
L 333.891491 287.03279 
L 335.713745 274.556265 
L 337.536 259.763855 
L 339.358255 243.023461 
L 343.002764 205.402208 
L 348.469527 145.76547 
L 350.291782 127.006267 
L 352.114036 109.600881 
L 353.936291 93.982197 
L 355.758545 80.538667 
L 357.5808 69.604644 
L 359.403055 61.452067 
L 361.225309 56.283696 
L 363.047564 54.228075 
L 364.869818 55.336329 
L 366.692073 59.580894 
L 368.514327 66.856204 
L 370.336582 76.981315 
L 372.158836 89.704408 
L 373.981091 104.709047 
L 375.803345 121.622054 
L 379.447855 159.453602 
L 384.914618 219.038287 
L 386.736873 237.682637 
L 388.559127 254.928181 
L 390.381382 270.346008 
L 392.203636 283.552664 
L 394.025891 294.219686 
L 395.848145 302.081776 
L 397.6704 306.943397 
L 399.492655 308.683636 
L 401.314909 307.259212 
L 403.137164 302.705552 
L 404.959418 295.135909 
L 406.781673 284.738546 
L 408.603927 271.772056 
L 410.426182 256.558928 
L 412.248436 239.477524 
L 415.892945 201.44511 
L 417.7152 181.44 
L 417.7152 181.44 
" clip-path="url(#pab092341e8)" style="fill: none; stroke: #008fd5; stroke-width: 4"/>
   </g>
   <g id="line2d_38">
    <path d="M 75.131345 101.955532 
L 76.9536 90.546132 
L 78.775855 81.397344 
L 80.598109 74.736707 
L 82.420364 70.729876 
L 84.242618 69.476505 
L 86.064873 71.007767 
L 87.887127 75.285577 
L 89.709382 82.203542 
L 91.531636 91.589607 
L 93.353891 103.210332 
L 95.176145 116.776699 
L 96.9984 131.9513 
L 100.642909 165.584969 
L 106.109673 217.883599 
L 107.931927 234.074666 
L 109.754182 248.956663 
L 111.576436 262.159459 
L 113.398691 273.35469 
L 115.220945 282.26392 
L 117.0432 288.66557 
L 118.865455 292.400423 
L 120.687709 293.375591 
L 122.509964 291.566821 
L 124.332218 287.019098 
L 126.154473 279.845528 
L 127.976727 270.224525 
L 129.798982 258.395371 
L 131.621236 244.652268 
L 133.443491 229.33702 
L 137.088 195.543328 
L 142.554764 143.329652 
L 144.377018 127.251832 
L 146.199273 112.52172 
L 148.021527 99.505667 
L 149.843782 88.527395 
L 151.666036 79.859942 
L 153.488291 73.718876 
L 155.310545 70.256932 
L 157.1328 69.560209 
L 158.955055 71.646037 
L 160.777309 76.46254 
L 162.599564 83.889926 
L 164.421818 93.743469 
L 166.244073 105.778104 
L 168.066327 119.694518 
L 169.888582 135.146598 
L 173.533091 169.091889 
L 178.999855 221.207599 
L 180.822109 237.168165 
L 182.644364 251.742722 
L 184.466618 264.568787 
L 186.288873 275.327365 
L 188.111127 283.75088 
L 189.933382 289.629831 
L 191.755636 292.818005 
L 193.577891 293.236108 
L 195.400145 290.873741 
L 197.2224 285.78966 
L 199.044655 278.110309 
L 200.866909 268.02668 
L 202.689164 255.789564 
L 204.511418 241.703307 
L 206.333673 226.118248 
L 209.978182 192.029816 
L 215.444945 140.025061 
L 217.2672 124.185726 
L 219.089455 109.770357 
L 220.911709 97.137476 
L 222.733964 86.601274 
L 224.556218 78.423797 
L 226.378473 72.808424 
L 228.200727 69.894817 
L 230.022982 69.755437 
L 231.845236 72.393753 
L 233.667491 77.744147 
L 235.489745 85.673549 
L 237.312 95.984749 
L 239.134255 108.421298 
L 240.956509 122.673887 
L 242.778764 138.388042 
L 246.423273 172.611118 
L 250.067782 207.707063 
L 251.890036 224.491958 
L 253.712291 240.206113 
L 255.534545 254.458702 
L 257.3568 266.895251 
L 259.179055 277.206451 
L 261.001309 285.135853 
L 262.823564 290.486247 
L 264.645818 293.124563 
L 266.468073 292.985183 
L 268.290327 290.071576 
L 270.112582 284.456203 
L 271.934836 276.278726 
L 273.757091 265.742524 
L 275.579345 253.109643 
L 277.4016 238.694274 
L 279.223855 222.854939 
L 282.868364 188.505747 
L 286.512873 153.458 
L 288.335127 136.761752 
L 290.157382 121.176693 
L 291.979636 107.090436 
L 293.801891 94.85332 
L 295.624145 84.769691 
L 297.4464 77.09034 
L 299.268655 72.006259 
L 301.090909 69.643892 
L 302.913164 70.061995 
L 304.735418 73.250169 
L 306.557673 79.12912 
L 308.379927 87.552635 
L 310.202182 98.311213 
L 312.024436 111.137278 
L 313.846691 125.711835 
L 315.668945 141.672401 
L 319.313455 176.139148 
L 322.957964 211.129964 
L 324.780218 227.733402 
L 326.602473 243.185482 
L 328.424727 257.101896 
L 330.246982 269.136531 
L 332.069236 278.990074 
L 333.891491 286.41746 
L 335.713745 291.233963 
L 337.536 293.319791 
L 339.358255 292.623068 
L 341.180509 289.161124 
L 343.002764 283.020058 
L 344.825018 274.352605 
L 346.647273 263.374333 
L 348.469527 250.35828 
L 350.291782 235.628168 
L 353.936291 202.524689 
L 359.403055 150.049471 
L 361.225309 133.54298 
L 363.047564 118.227732 
L 364.869818 104.484629 
L 366.692073 92.655475 
L 368.514327 83.034472 
L 370.336582 75.860902 
L 372.158836 71.313179 
L 373.981091 69.504409 
L 375.803345 70.479577 
L 377.6256 74.21443 
L 379.447855 80.61608 
L 381.270109 89.52531 
L 383.092364 100.720541 
L 384.914618 113.923337 
L 386.736873 128.805334 
L 390.381382 162.093854 
L 395.848145 214.523271 
L 397.6704 230.9287 
L 399.492655 246.103301 
L 401.314909 259.669668 
L 403.137164 271.290393 
L 404.959418 280.676458 
L 406.781673 287.594423 
L 408.603927 291.872233 
L 410.426182 293.403495 
L 412.248436 292.150124 
L 414.070691 288.143293 
L 415.892945 281.482656 
L 417.7152 272.333868 
L 419.537455 260.924468 
L 419.537455 260.924468 
" clip-path="url(#pab092341e8)" style="fill: none; stroke: #fc4f30; stroke-width: 4"/>
   </g>
   <g id="patch_3">
    <path d="M 36.864 321.408 
L 36.864 41.472 
" style="fill: none; stroke: #f0f0f0; stroke-width: 3; stroke-linejoin: miter; stroke-linecap: square"/>
   </g>
   <g id="patch_4">
    <path d="M 437.76 321.408 
L 437.76 41.472 
" style="fill: none; stroke: #f0f0f0; stroke-width: 3; stroke-linejoin: miter; stroke-linecap: square"/>
   </g>
   <g id="patch_5">
    <path d="M 36.864 321.408 
L 437.76 321.408 
" style="fill: none; stroke: #f0f0f0; stroke-width: 3; stroke-linejoin: miter; stroke-linecap: square"/>
   </g>
   <g id="patch_6">
    <path d="M 36.864 41.472 
L 437.76 41.472 
" style="fill: none; stroke: #f0f0f0; stroke-width: 3; stroke-linejoin: miter; stroke-linecap: square"/>
   </g>
   <g id="text_19">
    <!-- SMA for sinusoid data with lag = 11 -->
    <g transform="translate(56.850075 35.472) scale(0.2016 -0.2016)">
     <defs>
      <path id="DejaVuSans-53" d="M 3425 4513 
L 3425 3897 
Q 3066 4069 2747 4153 
Q 2428 4238 2131 4238 
Q 1616 4238 1336 4038 
Q 1056 3838 1056 3469 
Q 1056 3159 1242 3001 
Q 1428 2844 1947 2747 
L 2328 2669 
Q 3034 2534 3370 2195 
Q 3706 1856 3706 1288 
Q 3706 609 3251 259 
Q 2797 -91 1919 -91 
Q 1588 -91 1214 -16 
Q 841 59 441 206 
L 441 856 
Q 825 641 1194 531 
Q 1563 422 1919 422 
Q 2459 422 2753 634 
Q 3047 847 3047 1241 
Q 3047 1584 2836 1778 
Q 2625 1972 2144 2069 
L 1759 2144 
Q 1053 2284 737 2584 
Q 422 2884 422 3419 
Q 422 4038 858 4394 
Q 1294 4750 2059 4750 
Q 2388 4750 2728 4690 
Q 3069 4631 3425 4513 
z
" transform="scale(0.015625)"/>
      <path id="DejaVuSans-4d" d="M 628 4666 
L 1569 4666 
L 2759 1491 
L 3956 4666 
L 4897 4666 
L 4897 0 
L 4281 0 
L 4281 4097 
L 3078 897 
L 2444 897 
L 1241 4097 
L 1241 0 
L 628 0 
L 628 4666 
z
" transform="scale(0.015625)"/>
      <path id="DejaVuSans-41" d="M 2188 4044 
L 1331 1722 
L 3047 1722 
L 2188 4044 
z
M 1831 4666 
L 2547 4666 
L 4325 0 
L 3669 0 
L 3244 1197 
L 1141 1197 
L 716 0 
L 50 0 
L 1831 4666 
z
" transform="scale(0.015625)"/>
      <path id="DejaVuSans-20" transform="scale(0.015625)"/>
      <path id="DejaVuSans-66" d="M 2375 4863 
L 2375 4384 
L 1825 4384 
Q 1516 4384 1395 4259 
Q 1275 4134 1275 3809 
L 1275 3500 
L 2222 3500 
L 2222 3053 
L 1275 3053 
L 1275 0 
L 697 0 
L 697 3053 
L 147 3053 
L 147 3500 
L 697 3500 
L 697 3744 
Q 697 4328 969 4595 
Q 1241 4863 1831 4863 
L 2375 4863 
z
" transform="scale(0.015625)"/>
      <path id="DejaVuSans-6f" d="M 1959 3097 
Q 1497 3097 1228 2736 
Q 959 2375 959 1747 
Q 959 1119 1226 758 
Q 1494 397 1959 397 
Q 2419 397 2687 759 
Q 2956 1122 2956 1747 
Q 2956 2369 2687 2733 
Q 2419 3097 1959 3097 
z
M 1959 3584 
Q 2709 3584 3137 3096 
Q 3566 2609 3566 1747 
Q 3566 888 3137 398 
Q 2709 -91 1959 -91 
Q 1206 -91 779 398 
Q 353 888 353 1747 
Q 353 2609 779 3096 
Q 1206 3584 1959 3584 
z
" transform="scale(0.015625)"/>
      <path id="DejaVuSans-72" d="M 2631 2963 
Q 2534 3019 2420 3045 
Q 2306 3072 2169 3072 
Q 1681 3072 1420 2755 
Q 1159 2438 1159 1844 
L 1159 0 
L 581 0 
L 581 3500 
L 1159 3500 
L 1159 2956 
Q 1341 3275 1631 3429 
Q 1922 3584 2338 3584 
Q 2397 3584 2469 3576 
Q 2541 3569 2628 3553 
L 2631 2963 
z
" transform="scale(0.015625)"/>
      <path id="DejaVuSans-73" d="M 2834 3397 
L 2834 2853 
Q 2591 2978 2328 3040 
Q 2066 3103 1784 3103 
Q 1356 3103 1142 2972 
Q 928 2841 928 2578 
Q 928 2378 1081 2264 
Q 1234 2150 1697 2047 
L 1894 2003 
Q 2506 1872 2764 1633 
Q 3022 1394 3022 966 
Q 3022 478 2636 193 
Q 2250 -91 1575 -91 
Q 1294 -91 989 -36 
Q 684 19 347 128 
L 347 722 
Q 666 556 975 473 
Q 1284 391 1588 391 
Q 1994 391 2212 530 
Q 2431 669 2431 922 
Q 2431 1156 2273 1281 
Q 2116 1406 1581 1522 
L 1381 1569 
Q 847 1681 609 1914 
Q 372 2147 372 2553 
Q 372 3047 722 3315 
Q 1072 3584 1716 3584 
Q 2034 3584 2315 3537 
Q 2597 3491 2834 3397 
z
" transform="scale(0.015625)"/>
      <path id="DejaVuSans-69" d="M 603 3500 
L 1178 3500 
L 1178 0 
L 603 0 
L 603 3500 
z
M 603 4863 
L 1178 4863 
L 1178 4134 
L 603 4134 
L 603 4863 
z
" transform="scale(0.015625)"/>
      <path id="DejaVuSans-6e" d="M 3513 2113 
L 3513 0 
L 2938 0 
L 2938 2094 
Q 2938 2591 2744 2837 
Q 2550 3084 2163 3084 
Q 1697 3084 1428 2787 
Q 1159 2491 1159 1978 
L 1159 0 
L 581 0 
L 581 3500 
L 1159 3500 
L 1159 2956 
Q 1366 3272 1645 3428 
Q 1925 3584 2291 3584 
Q 2894 3584 3203 3211 
Q 3513 2838 3513 2113 
z
" transform="scale(0.015625)"/>
      <path id="DejaVuSans-75" d="M 544 1381 
L 544 3500 
L 1119 3500 
L 1119 1403 
Q 1119 906 1312 657 
Q 1506 409 1894 409 
Q 2359 409 2629 706 
Q 2900 1003 2900 1516 
L 2900 3500 
L 3475 3500 
L 3475 0 
L 2900 0 
L 2900 538 
Q 2691 219 2414 64 
Q 2138 -91 1772 -91 
Q 1169 -91 856 284 
Q 544 659 544 1381 
z
M 1991 3584 
L 1991 3584 
z
" transform="scale(0.015625)"/>
      <path id="DejaVuSans-64" d="M 2906 2969 
L 2906 4863 
L 3481 4863 
L 3481 0 
L 2906 0 
L 2906 525 
Q 2725 213 2448 61 
Q 2172 -91 1784 -91 
Q 1150 -91 751 415 
Q 353 922 353 1747 
Q 353 2572 751 3078 
Q 1150 3584 1784 3584 
Q 2172 3584 2448 3432 
Q 2725 3281 2906 2969 
z
M 947 1747 
Q 947 1113 1208 752 
Q 1469 391 1925 391 
Q 2381 391 2643 752 
Q 2906 1113 2906 1747 
Q 2906 2381 2643 2742 
Q 2381 3103 1925 3103 
Q 1469 3103 1208 2742 
Q 947 2381 947 1747 
z
" transform="scale(0.015625)"/>
      <path id="DejaVuSans-61" d="M 2194 1759 
Q 1497 1759 1228 1600 
Q 959 1441 959 1056 
Q 959 750 1161 570 
Q 1363 391 1709 391 
Q 2188 391 2477 730 
Q 2766 1069 2766 1631 
L 2766 1759 
L 2194 1759 
z
M 3341 1997 
L 3341 0 
L 2766 0 
L 2766 531 
Q 2569 213 2275 61 
Q 1981 -91 1556 -91 
Q 1019 -91 701 211 
Q 384 513 384 1019 
Q 384 1609 779 1909 
Q 1175 2209 1959 2209 
L 2766 2209 
L 2766 2266 
Q 2766 2663 2505 2880 
Q 2244 3097 1772 3097 
Q 1472 3097 1187 3025 
Q 903 2953 641 2809 
L 641 3341 
Q 956 3463 1253 3523 
Q 1550 3584 1831 3584 
Q 2591 3584 2966 3190 
Q 3341 2797 3341 1997 
z
" transform="scale(0.015625)"/>
      <path id="DejaVuSans-74" d="M 1172 4494 
L 1172 3500 
L 2356 3500 
L 2356 3053 
L 1172 3053 
L 1172 1153 
Q 1172 725 1289 603 
Q 1406 481 1766 481 
L 2356 481 
L 2356 0 
L 1766 0 
Q 1100 0 847 248 
Q 594 497 594 1153 
L 594 3053 
L 172 3053 
L 172 3500 
L 594 3500 
L 594 4494 
L 1172 4494 
z
" transform="scale(0.015625)"/>
      <path id="DejaVuSans-77" d="M 269 3500 
L 844 3500 
L 1563 769 
L 2278 3500 
L 2956 3500 
L 3675 769 
L 4391 3500 
L 4966 3500 
L 4050 0 
L 3372 0 
L 2619 2869 
L 1863 0 
L 1184 0 
L 269 3500 
z
" transform="scale(0.015625)"/>
      <path id="DejaVuSans-68" d="M 3513 2113 
L 3513 0 
L 2938 0 
L 2938 2094 
Q 2938 2591 2744 2837 
Q 2550 3084 2163 3084 
Q 1697 3084 1428 2787 
Q 1159 2491 1159 1978 
L 1159 0 
L 581 0 
L 581 4863 
L 1159 4863 
L 1159 2956 
Q 1366 3272 1645 3428 
Q 1925 3584 2291 3584 
Q 2894 3584 3203 3211 
Q 3513 2838 3513 2113 
z
" transform="scale(0.015625)"/>
      <path id="DejaVuSans-6c" d="M 603 4863 
L 1178 4863 
L 1178 0 
L 603 0 
L 603 4863 
z
" transform="scale(0.015625)"/>
      <path id="DejaVuSans-67" d="M 2906 1791 
Q 2906 2416 2648 2759 
Q 2391 3103 1925 3103 
Q 1463 3103 1205 2759 
Q 947 2416 947 1791 
Q 947 1169 1205 825 
Q 1463 481 1925 481 
Q 2391 481 2648 825 
Q 2906 1169 2906 1791 
z
M 3481 434 
Q 3481 -459 3084 -895 
Q 2688 -1331 1869 -1331 
Q 1566 -1331 1297 -1286 
Q 1028 -1241 775 -1147 
L 775 -588 
Q 1028 -725 1275 -790 
Q 1522 -856 1778 -856 
Q 2344 -856 2625 -561 
Q 2906 -266 2906 331 
L 2906 616 
Q 2728 306 2450 153 
Q 2172 0 1784 0 
Q 1141 0 747 490 
Q 353 981 353 1791 
Q 353 2603 747 3093 
Q 1141 3584 1784 3584 
Q 2172 3584 2450 3431 
Q 2728 3278 2906 2969 
L 2906 3500 
L 3481 3500 
L 3481 434 
z
" transform="scale(0.015625)"/>
      <path id="DejaVuSans-3d" d="M 678 2906 
L 4684 2906 
L 4684 2381 
L 678 2381 
L 678 2906 
z
M 678 1631 
L 4684 1631 
L 4684 1100 
L 678 1100 
L 678 1631 
z
" transform="scale(0.015625)"/>
     </defs>
     <use xlink:href="#DejaVuSans-53"/>
     <use xlink:href="#DejaVuSans-4d" x="63.476562"/>
     <use xlink:href="#DejaVuSans-41" x="149.755859"/>
     <use xlink:href="#DejaVuSans-20" x="218.164062"/>
     <use xlink:href="#DejaVuSans-66" x="249.951172"/>
     <use xlink:href="#DejaVuSans-6f" x="285.15625"/>
     <use xlink:href="#DejaVuSans-72" x="346.337891"/>
     <use xlink:href="#DejaVuSans-20" x="387.451172"/>
     <use xlink:href="#DejaVuSans-73" x="419.238281"/>
     <use xlink:href="#DejaVuSans-69" x="471.337891"/>
     <use xlink:href="#DejaVuSans-6e" x="499.121094"/>
     <use xlink:href="#DejaVuSans-75" x="562.5"/>
     <use xlink:href="#DejaVuSans-73" x="625.878906"/>
     <use xlink:href="#DejaVuSans-6f" x="677.978516"/>
     <use xlink:href="#DejaVuSans-69" x="739.160156"/>
     <use xlink:href="#DejaVuSans-64" x="766.943359"/>
     <use xlink:href="#DejaVuSans-20" x="830.419922"/>
     <use xlink:href="#DejaVuSans-64" x="862.207031"/>
     <use xlink:href="#DejaVuSans-61" x="925.683594"/>
     <use xlink:href="#DejaVuSans-74" x="986.962891"/>
     <use xlink:href="#DejaVuSans-61" x="1026.171875"/>
     <use xlink:href="#DejaVuSans-20" x="1087.451172"/>
     <use xlink:href="#DejaVuSans-77" x="1119.238281"/>
     <use xlink:href="#DejaVuSans-69" x="1201.025391"/>
     <use xlink:href="#DejaVuSans-74" x="1228.808594"/>
     <use xlink:href="#DejaVuSans-68" x="1268.017578"/>
     <use xlink:href="#DejaVuSans-20" x="1331.396484"/>
     <use xlink:href="#DejaVuSans-6c" x="1363.183594"/>
     <use xlink:href="#DejaVuSans-61" x="1390.966797"/>
     <use xlink:href="#DejaVuSans-67" x="1452.246094"/>
     <use xlink:href="#DejaVuSans-20" x="1515.722656"/>
     <use xlink:href="#DejaVuSans-3d" x="1547.509766"/>
     <use xlink:href="#DejaVuSans-20" x="1631.298828"/>
     <use xlink:href="#DejaVuSans-31" x="1663.085938"/>
     <use xlink:href="#DejaVuSans-31" x="1726.708984"/>
    </g>
   </g>
  </g>
 </g>
 <defs>
  <clipPath id="pab092341e8">
   <rect x="36.864" y="41.472" width="400.896" height="279.936"/>
  </clipPath>
 </defs>
</svg>
