<?xml version="1.0" encoding="utf-8" standalone="no"?>
<!DOCTYPE svg PUBLIC "-//W3C//DTD SVG 1.1//EN"
  "http://www.w3.org/Graphics/SVG/1.1/DTD/svg11.dtd">
<svg xmlns:xlink="http://www.w3.org/1999/xlink" width="1440pt" height="720pt" viewBox="0 0 1440 720" xmlns="http://www.w3.org/2000/svg" version="1.1">
 <metadata>
  <rdf:RDF xmlns:dc="http://purl.org/dc/elements/1.1/" xmlns:cc="http://creativecommons.org/ns#" xmlns:rdf="http://www.w3.org/1999/02/22-rdf-syntax-ns#">
   <cc:Work>
    <dc:type rdf:resource="http://purl.org/dc/dcmitype/StillImage"/>
    <dc:date>2023-04-30T18:15:03.667462</dc:date>
    <dc:format>image/svg+xml</dc:format>
    <dc:creator>
     <cc:Agent>
      <dc:title>Matplotlib v3.6.3, https://matplotlib.org/</dc:title>
     </cc:Agent>
    </dc:creator>
   </cc:Work>
  </rdf:RDF>
 </metadata>
 <defs>
  <style type="text/css">*{stroke-linejoin: round; stroke-linecap: butt}</style>
 </defs>
 <g id="figure_1">
  <g id="patch_1">
   <path d="M 0 720 
L 1440 720 
L 1440 0 
L 0 0 
L 0 720 
z
" style="fill: none"/>
  </g>
  <g id="axes_1">
   <g id="patch_2">
    <path d="M 115.2 669.6 
L 1368 669.6 
L 1368 86.4 
L 115.2 86.4 
L 115.2 669.6 
z
" style="fill: none"/>
   </g>
   <g id="matplotlib.axis_1">
    <g id="xtick_1">
     <g id="line2d_1">
      <path d="M 172.145455 669.6 
L 172.145455 86.4 
" clip-path="url(#pa53585fe1e)" style="fill: none; stroke: #cbcbcb"/>
     </g>
     <g id="line2d_2"/>
     <g id="text_1">
      <!-- 0 -->
      <g transform="translate(167.691705 683.737813) scale(0.14 -0.14)">
       <defs>
        <path id="DejaVuSans-30" d="M 2034 4250 
Q 1547 4250 1301 3770 
Q 1056 3291 1056 2328 
Q 1056 1369 1301 889 
Q 1547 409 2034 409 
Q 2525 409 2770 889 
Q 3016 1369 3016 2328 
Q 3016 3291 2770 3770 
Q 2525 4250 2034 4250 
z
M 2034 4750 
Q 2819 4750 3233 4129 
Q 3647 3509 3647 2328 
Q 3647 1150 3233 529 
Q 2819 -91 2034 -91 
Q 1250 -91 836 529 
Q 422 1150 422 2328 
Q 422 3509 836 4129 
Q 1250 4750 2034 4750 
z
" transform="scale(0.015625)"/>
       </defs>
       <use xlink:href="#DejaVuSans-30"/>
      </g>
     </g>
    </g>
    <g id="xtick_2">
     <g id="line2d_3">
      <path d="M 399.927273 669.6 
L 399.927273 86.4 
" clip-path="url(#pa53585fe1e)" style="fill: none; stroke: #cbcbcb"/>
     </g>
     <g id="line2d_4"/>
     <g id="text_2">
      <!-- 200 -->
      <g transform="translate(386.566023 683.737813) scale(0.14 -0.14)">
       <defs>
        <path id="DejaVuSans-32" d="M 1228 531 
L 3431 531 
L 3431 0 
L 469 0 
L 469 531 
Q 828 903 1448 1529 
Q 2069 2156 2228 2338 
Q 2531 2678 2651 2914 
Q 2772 3150 2772 3378 
Q 2772 3750 2511 3984 
Q 2250 4219 1831 4219 
Q 1534 4219 1204 4116 
Q 875 4013 500 3803 
L 500 4441 
Q 881 4594 1212 4672 
Q 1544 4750 1819 4750 
Q 2544 4750 2975 4387 
Q 3406 4025 3406 3419 
Q 3406 3131 3298 2873 
Q 3191 2616 2906 2266 
Q 2828 2175 2409 1742 
Q 1991 1309 1228 531 
z
" transform="scale(0.015625)"/>
       </defs>
       <use xlink:href="#DejaVuSans-32"/>
       <use xlink:href="#DejaVuSans-30" x="63.623047"/>
       <use xlink:href="#DejaVuSans-30" x="127.246094"/>
      </g>
     </g>
    </g>
    <g id="xtick_3">
     <g id="line2d_5">
      <path d="M 627.709091 669.6 
L 627.709091 86.4 
" clip-path="url(#pa53585fe1e)" style="fill: none; stroke: #cbcbcb"/>
     </g>
     <g id="line2d_6"/>
     <g id="text_3">
      <!-- 400 -->
      <g transform="translate(614.347841 683.737813) scale(0.14 -0.14)">
       <defs>
        <path id="DejaVuSans-34" d="M 2419 4116 
L 825 1625 
L 2419 1625 
L 2419 4116 
z
M 2253 4666 
L 3047 4666 
L 3047 1625 
L 3713 1625 
L 3713 1100 
L 3047 1100 
L 3047 0 
L 2419 0 
L 2419 1100 
L 313 1100 
L 313 1709 
L 2253 4666 
z
" transform="scale(0.015625)"/>
       </defs>
       <use xlink:href="#DejaVuSans-34"/>
       <use xlink:href="#DejaVuSans-30" x="63.623047"/>
       <use xlink:href="#DejaVuSans-30" x="127.246094"/>
      </g>
     </g>
    </g>
    <g id="xtick_4">
     <g id="line2d_7">
      <path d="M 855.490909 669.6 
L 855.490909 86.4 
" clip-path="url(#pa53585fe1e)" style="fill: none; stroke: #cbcbcb"/>
     </g>
     <g id="line2d_8"/>
     <g id="text_4">
      <!-- 600 -->
      <g transform="translate(842.129659 683.737813) scale(0.14 -0.14)">
       <defs>
        <path id="DejaVuSans-36" d="M 2113 2584 
Q 1688 2584 1439 2293 
Q 1191 2003 1191 1497 
Q 1191 994 1439 701 
Q 1688 409 2113 409 
Q 2538 409 2786 701 
Q 3034 994 3034 1497 
Q 3034 2003 2786 2293 
Q 2538 2584 2113 2584 
z
M 3366 4563 
L 3366 3988 
Q 3128 4100 2886 4159 
Q 2644 4219 2406 4219 
Q 1781 4219 1451 3797 
Q 1122 3375 1075 2522 
Q 1259 2794 1537 2939 
Q 1816 3084 2150 3084 
Q 2853 3084 3261 2657 
Q 3669 2231 3669 1497 
Q 3669 778 3244 343 
Q 2819 -91 2113 -91 
Q 1303 -91 875 529 
Q 447 1150 447 2328 
Q 447 3434 972 4092 
Q 1497 4750 2381 4750 
Q 2619 4750 2861 4703 
Q 3103 4656 3366 4563 
z
" transform="scale(0.015625)"/>
       </defs>
       <use xlink:href="#DejaVuSans-36"/>
       <use xlink:href="#DejaVuSans-30" x="63.623047"/>
       <use xlink:href="#DejaVuSans-30" x="127.246094"/>
      </g>
     </g>
    </g>
    <g id="xtick_5">
     <g id="line2d_9">
      <path d="M 1083.272727 669.6 
L 1083.272727 86.4 
" clip-path="url(#pa53585fe1e)" style="fill: none; stroke: #cbcbcb"/>
     </g>
     <g id="line2d_10"/>
     <g id="text_5">
      <!-- 800 -->
      <g transform="translate(1069.911477 683.737813) scale(0.14 -0.14)">
       <defs>
        <path id="DejaVuSans-38" d="M 2034 2216 
Q 1584 2216 1326 1975 
Q 1069 1734 1069 1313 
Q 1069 891 1326 650 
Q 1584 409 2034 409 
Q 2484 409 2743 651 
Q 3003 894 3003 1313 
Q 3003 1734 2745 1975 
Q 2488 2216 2034 2216 
z
M 1403 2484 
Q 997 2584 770 2862 
Q 544 3141 544 3541 
Q 544 4100 942 4425 
Q 1341 4750 2034 4750 
Q 2731 4750 3128 4425 
Q 3525 4100 3525 3541 
Q 3525 3141 3298 2862 
Q 3072 2584 2669 2484 
Q 3125 2378 3379 2068 
Q 3634 1759 3634 1313 
Q 3634 634 3220 271 
Q 2806 -91 2034 -91 
Q 1263 -91 848 271 
Q 434 634 434 1313 
Q 434 1759 690 2068 
Q 947 2378 1403 2484 
z
M 1172 3481 
Q 1172 3119 1398 2916 
Q 1625 2713 2034 2713 
Q 2441 2713 2670 2916 
Q 2900 3119 2900 3481 
Q 2900 3844 2670 4047 
Q 2441 4250 2034 4250 
Q 1625 4250 1398 4047 
Q 1172 3844 1172 3481 
z
" transform="scale(0.015625)"/>
       </defs>
       <use xlink:href="#DejaVuSans-38"/>
       <use xlink:href="#DejaVuSans-30" x="63.623047"/>
       <use xlink:href="#DejaVuSans-30" x="127.246094"/>
      </g>
     </g>
    </g>
    <g id="xtick_6">
     <g id="line2d_11">
      <path d="M 1311.054545 669.6 
L 1311.054545 86.4 
" clip-path="url(#pa53585fe1e)" style="fill: none; stroke: #cbcbcb"/>
     </g>
     <g id="line2d_12"/>
     <g id="text_6">
      <!-- 1000 -->
      <g transform="translate(1293.239545 683.737813) scale(0.14 -0.14)">
       <defs>
        <path id="DejaVuSans-31" d="M 794 531 
L 1825 531 
L 1825 4091 
L 703 3866 
L 703 4441 
L 1819 4666 
L 2450 4666 
L 2450 531 
L 3481 531 
L 3481 0 
L 794 0 
L 794 531 
z
" transform="scale(0.015625)"/>
       </defs>
       <use xlink:href="#DejaVuSans-31"/>
       <use xlink:href="#DejaVuSans-30" x="63.623047"/>
       <use xlink:href="#DejaVuSans-30" x="127.246094"/>
       <use xlink:href="#DejaVuSans-30" x="190.869141"/>
      </g>
     </g>
    </g>
   </g>
   <g id="matplotlib.axis_2">
    <g id="ytick_1">
     <g id="line2d_13">
      <path d="M 115.2 651.375 
L 1368 651.375 
" clip-path="url(#pa53585fe1e)" style="fill: none; stroke: #cbcbcb"/>
     </g>
     <g id="line2d_14"/>
     <g id="text_7">
      <!-- −30 -->
      <g transform="translate(82.153437 656.693906) scale(0.14 -0.14)">
       <defs>
        <path id="DejaVuSans-2212" d="M 678 2272 
L 4684 2272 
L 4684 1741 
L 678 1741 
L 678 2272 
z
" transform="scale(0.015625)"/>
        <path id="DejaVuSans-33" d="M 2597 2516 
Q 3050 2419 3304 2112 
Q 3559 1806 3559 1356 
Q 3559 666 3084 287 
Q 2609 -91 1734 -91 
Q 1441 -91 1130 -33 
Q 819 25 488 141 
L 488 750 
Q 750 597 1062 519 
Q 1375 441 1716 441 
Q 2309 441 2620 675 
Q 2931 909 2931 1356 
Q 2931 1769 2642 2001 
Q 2353 2234 1838 2234 
L 1294 2234 
L 1294 2753 
L 1863 2753 
Q 2328 2753 2575 2939 
Q 2822 3125 2822 3475 
Q 2822 3834 2567 4026 
Q 2313 4219 1838 4219 
Q 1578 4219 1281 4162 
Q 984 4106 628 3988 
L 628 4550 
Q 988 4650 1302 4700 
Q 1616 4750 1894 4750 
Q 2613 4750 3031 4423 
Q 3450 4097 3450 3541 
Q 3450 3153 3228 2886 
Q 3006 2619 2597 2516 
z
" transform="scale(0.015625)"/>
       </defs>
       <use xlink:href="#DejaVuSans-2212"/>
       <use xlink:href="#DejaVuSans-33" x="83.789062"/>
       <use xlink:href="#DejaVuSans-30" x="147.412109"/>
      </g>
     </g>
    </g>
    <g id="ytick_2">
     <g id="line2d_15">
      <path d="M 115.2 568.534091 
L 1368 568.534091 
" clip-path="url(#pa53585fe1e)" style="fill: none; stroke: #cbcbcb"/>
     </g>
     <g id="line2d_16"/>
     <g id="text_8">
      <!-- −20 -->
      <g transform="translate(82.153437 573.852997) scale(0.14 -0.14)">
       <use xlink:href="#DejaVuSans-2212"/>
       <use xlink:href="#DejaVuSans-32" x="83.789062"/>
       <use xlink:href="#DejaVuSans-30" x="147.412109"/>
      </g>
     </g>
    </g>
    <g id="ytick_3">
     <g id="line2d_17">
      <path d="M 115.2 485.693182 
L 1368 485.693182 
" clip-path="url(#pa53585fe1e)" style="fill: none; stroke: #cbcbcb"/>
     </g>
     <g id="line2d_18"/>
     <g id="text_9">
      <!-- −10 -->
      <g transform="translate(82.153437 491.012088) scale(0.14 -0.14)">
       <use xlink:href="#DejaVuSans-2212"/>
       <use xlink:href="#DejaVuSans-31" x="83.789062"/>
       <use xlink:href="#DejaVuSans-30" x="147.412109"/>
      </g>
     </g>
    </g>
    <g id="ytick_4">
     <g id="line2d_19">
      <path d="M 115.2 402.852273 
L 1368 402.852273 
" clip-path="url(#pa53585fe1e)" style="fill: none; stroke: #cbcbcb"/>
     </g>
     <g id="line2d_20"/>
     <g id="text_10">
      <!-- 0 -->
      <g transform="translate(102.7925 408.171179) scale(0.14 -0.14)">
       <use xlink:href="#DejaVuSans-30"/>
      </g>
     </g>
    </g>
    <g id="ytick_5">
     <g id="line2d_21">
      <path d="M 115.2 320.011364 
L 1368 320.011364 
" clip-path="url(#pa53585fe1e)" style="fill: none; stroke: #cbcbcb"/>
     </g>
     <g id="line2d_22"/>
     <g id="text_11">
      <!-- 10 -->
      <g transform="translate(93.885 325.33027) scale(0.14 -0.14)">
       <use xlink:href="#DejaVuSans-31"/>
       <use xlink:href="#DejaVuSans-30" x="63.623047"/>
      </g>
     </g>
    </g>
    <g id="ytick_6">
     <g id="line2d_23">
      <path d="M 115.2 237.170455 
L 1368 237.170455 
" clip-path="url(#pa53585fe1e)" style="fill: none; stroke: #cbcbcb"/>
     </g>
     <g id="line2d_24"/>
     <g id="text_12">
      <!-- 20 -->
      <g transform="translate(93.885 242.489361) scale(0.14 -0.14)">
       <use xlink:href="#DejaVuSans-32"/>
       <use xlink:href="#DejaVuSans-30" x="63.623047"/>
      </g>
     </g>
    </g>
    <g id="ytick_7">
     <g id="line2d_25">
      <path d="M 115.2 154.329545 
L 1368 154.329545 
" clip-path="url(#pa53585fe1e)" style="fill: none; stroke: #cbcbcb"/>
     </g>
     <g id="line2d_26"/>
     <g id="text_13">
      <!-- 30 -->
      <g transform="translate(93.885 159.648452) scale(0.14 -0.14)">
       <use xlink:href="#DejaVuSans-33"/>
       <use xlink:href="#DejaVuSans-30" x="63.623047"/>
      </g>
     </g>
    </g>
   </g>
   <g id="line2d_27">
    <path d="M 172.145455 402.852273 
L 173.284364 411.136364 
L 174.423273 402.852273 
L 175.562182 411.136364 
L 178.978909 386.284091 
L 183.534545 419.420455 
L 185.812364 402.852273 
L 189.229091 427.704545 
L 193.784727 394.568182 
L 198.340364 427.704545 
L 200.618182 411.136364 
L 201.757091 419.420455 
L 205.173818 394.568182 
L 208.590545 419.420455 
L 210.868364 402.852273 
L 213.146182 419.420455 
L 214.285091 411.136364 
L 216.562909 427.704545 
L 217.701818 419.420455 
L 221.118545 444.272727 
L 222.257455 435.988636 
L 224.535273 452.556818 
L 225.674182 444.272727 
L 227.952 460.840909 
L 230.229818 444.272727 
L 231.368727 452.556818 
L 233.646545 435.988636 
L 235.924364 452.556818 
L 237.063273 444.272727 
L 239.341091 460.840909 
L 240.48 452.556818 
L 243.896727 477.409091 
L 246.174545 460.840909 
L 247.313455 469.125 
L 248.452364 460.840909 
L 250.730182 477.409091 
L 251.869091 469.125 
L 254.146909 485.693182 
L 255.285818 477.409091 
L 256.424727 485.693182 
L 257.563636 477.409091 
L 259.841455 493.977273 
L 264.397091 460.840909 
L 265.536 469.125 
L 268.952727 444.272727 
L 270.091636 452.556818 
L 271.230545 444.272727 
L 273.508364 460.840909 
L 274.647273 452.556818 
L 278.064 477.409091 
L 279.202909 469.125 
L 280.341818 477.409091 
L 286.036364 435.988636 
L 287.175273 444.272727 
L 289.453091 427.704545 
L 290.592 435.988636 
L 294.008727 411.136364 
L 296.286545 427.704545 
L 297.425455 419.420455 
L 298.564364 427.704545 
L 300.842182 411.136364 
L 304.258909 435.988636 
L 305.397818 427.704545 
L 306.536727 435.988636 
L 309.953455 411.136364 
L 312.231273 427.704545 
L 320.203636 369.715909 
L 322.481455 386.284091 
L 323.620364 378 
L 324.759273 386.284091 
L 325.898182 378 
L 327.037091 386.284091 
L 328.176 378 
L 329.314909 386.284091 
L 331.592727 369.715909 
L 332.731636 378 
L 337.287273 344.863636 
L 339.565091 361.431818 
L 340.704 353.147727 
L 342.981818 369.715909 
L 344.120727 361.431818 
L 347.537455 386.284091 
L 348.676364 378 
L 349.815273 386.284091 
L 352.093091 369.715909 
L 355.509818 394.568182 
L 356.648727 386.284091 
L 357.787636 394.568182 
L 360.065455 378 
L 362.343273 394.568182 
L 364.621091 378 
L 368.037818 402.852273 
L 369.176727 394.568182 
L 371.454545 411.136364 
L 372.593455 402.852273 
L 373.732364 411.136364 
L 374.871273 402.852273 
L 376.010182 411.136364 
L 378.288 394.568182 
L 379.426909 402.852273 
L 380.565818 394.568182 
L 381.704727 402.852273 
L 382.843636 394.568182 
L 383.982545 402.852273 
L 385.121455 394.568182 
L 389.677091 427.704545 
L 396.510545 378 
L 398.788364 394.568182 
L 402.205091 369.715909 
L 404.482909 386.284091 
L 406.760727 369.715909 
L 411.316364 402.852273 
L 412.455273 394.568182 
L 413.594182 402.852273 
L 414.733091 394.568182 
L 418.149818 419.420455 
L 420.427636 402.852273 
L 421.566545 411.136364 
L 422.705455 402.852273 
L 424.983273 419.420455 
L 426.122182 411.136364 
L 430.677818 444.272727 
L 431.816727 435.988636 
L 434.094545 452.556818 
L 435.233455 444.272727 
L 442.066909 493.977273 
L 443.205818 485.693182 
L 444.344727 493.977273 
L 447.761455 469.125 
L 448.900364 477.409091 
L 452.317091 452.556818 
L 455.733818 477.409091 
L 456.872727 469.125 
L 462.567273 510.545455 
L 463.706182 502.261364 
L 465.984 518.829545 
L 467.122909 510.545455 
L 470.539636 535.397727 
L 472.817455 518.829545 
L 473.956364 527.113636 
L 475.095273 518.829545 
L 479.650909 551.965909 
L 481.928727 535.397727 
L 483.067636 543.681818 
L 484.206545 535.397727 
L 485.345455 543.681818 
L 487.623273 527.113636 
L 489.901091 543.681818 
L 495.595636 502.261364 
L 496.734545 510.545455 
L 499.012364 493.977273 
L 500.151273 502.261364 
L 502.429091 485.693182 
L 504.706909 502.261364 
L 505.845818 493.977273 
L 511.540364 535.397727 
L 512.679273 527.113636 
L 513.818182 535.397727 
L 514.957091 527.113636 
L 516.096 535.397727 
L 517.234909 527.113636 
L 518.373818 535.397727 
L 520.651636 518.829545 
L 521.790545 527.113636 
L 522.929455 518.829545 
L 524.068364 527.113636 
L 526.346182 510.545455 
L 528.624 527.113636 
L 530.901818 510.545455 
L 533.179636 527.113636 
L 534.318545 518.829545 
L 535.457455 527.113636 
L 536.596364 518.829545 
L 540.013091 543.681818 
L 541.152 535.397727 
L 542.290909 543.681818 
L 543.429818 535.397727 
L 545.707636 551.965909 
L 546.846545 543.681818 
L 549.124364 560.25 
L 550.263273 551.965909 
L 557.096727 601.670455 
L 560.513455 576.818182 
L 561.652364 585.102273 
L 562.791273 576.818182 
L 563.930182 585.102273 
L 565.069091 576.818182 
L 573.041455 634.806818 
L 574.180364 626.522727 
L 576.458182 643.090909 
L 578.736 626.522727 
L 579.874909 634.806818 
L 582.152727 618.238636 
L 584.430545 634.806818 
L 585.569455 626.522727 
L 587.847273 643.090909 
L 591.264 618.238636 
L 592.402909 626.522727 
L 593.541818 618.238636 
L 594.680727 626.522727 
L 596.958545 609.954545 
L 598.097455 618.238636 
L 599.236364 609.954545 
L 600.375273 618.238636 
L 601.514182 609.954545 
L 603.792 626.522727 
L 607.208727 601.670455 
L 609.486545 618.238636 
L 611.764364 601.670455 
L 615.181091 626.522727 
L 620.875636 585.102273 
L 624.292364 609.954545 
L 626.570182 593.386364 
L 627.709091 601.670455 
L 629.986909 585.102273 
L 632.264727 601.670455 
L 636.820364 568.534091 
L 637.959273 576.818182 
L 640.237091 560.25 
L 643.653818 585.102273 
L 644.792727 576.818182 
L 645.931636 585.102273 
L 649.348364 560.25 
L 650.487273 568.534091 
L 653.904 543.681818 
L 655.042909 551.965909 
L 657.320727 535.397727 
L 658.459636 543.681818 
L 659.598545 535.397727 
L 660.737455 543.681818 
L 664.154182 518.829545 
L 665.293091 527.113636 
L 667.570909 510.545455 
L 673.265455 551.965909 
L 675.543273 535.397727 
L 676.682182 543.681818 
L 680.098909 518.829545 
L 681.237818 527.113636 
L 683.515636 510.545455 
L 685.793455 527.113636 
L 688.071273 510.545455 
L 691.488 535.397727 
L 692.626909 527.113636 
L 693.765818 535.397727 
L 697.182545 510.545455 
L 699.460364 527.113636 
L 702.877091 502.261364 
L 704.016 510.545455 
L 706.293818 493.977273 
L 707.432727 502.261364 
L 708.571636 493.977273 
L 710.849455 510.545455 
L 711.988364 502.261364 
L 713.127273 510.545455 
L 714.266182 502.261364 
L 715.405091 510.545455 
L 719.960727 477.409091 
L 722.238545 493.977273 
L 724.516364 477.409091 
L 725.655273 485.693182 
L 726.794182 477.409091 
L 729.072 493.977273 
L 731.349818 477.409091 
L 732.488727 485.693182 
L 733.627636 477.409091 
L 734.766545 485.693182 
L 738.183273 460.840909 
L 741.6 485.693182 
L 742.738909 477.409091 
L 745.016727 493.977273 
L 746.155636 485.693182 
L 749.572364 510.545455 
L 755.266909 469.125 
L 757.544727 485.693182 
L 760.961455 460.840909 
L 762.100364 469.125 
L 763.239273 460.840909 
L 765.517091 477.409091 
L 768.933818 452.556818 
L 772.350545 477.409091 
L 773.489455 469.125 
L 774.628364 477.409091 
L 775.767273 469.125 
L 776.906182 477.409091 
L 778.045091 469.125 
L 780.322909 485.693182 
L 781.461818 477.409091 
L 784.878545 502.261364 
L 787.156364 485.693182 
L 788.295273 493.977273 
L 789.434182 485.693182 
L 791.712 502.261364 
L 795.128727 477.409091 
L 797.406545 493.977273 
L 803.101091 452.556818 
L 804.24 460.840909 
L 806.517818 444.272727 
L 809.934545 469.125 
L 813.351273 444.272727 
L 815.629091 460.840909 
L 819.045818 435.988636 
L 820.184727 444.272727 
L 821.323636 435.988636 
L 822.462545 444.272727 
L 823.601455 435.988636 
L 824.740364 444.272727 
L 825.879273 435.988636 
L 827.018182 444.272727 
L 830.434909 419.420455 
L 831.573818 427.704545 
L 838.407273 378 
L 839.546182 386.284091 
L 840.685091 378 
L 841.824 386.284091 
L 842.962909 378 
L 844.101818 386.284091 
L 845.240727 378 
L 846.379636 386.284091 
L 848.657455 369.715909 
L 854.352 411.136364 
L 857.768727 386.284091 
L 862.324364 419.420455 
L 866.88 386.284091 
L 869.157818 402.852273 
L 872.574545 378 
L 874.852364 394.568182 
L 875.991273 386.284091 
L 878.269091 402.852273 
L 879.408 394.568182 
L 881.685818 411.136364 
L 882.824727 402.852273 
L 883.963636 411.136364 
L 886.241455 394.568182 
L 888.519273 411.136364 
L 889.658182 402.852273 
L 894.213818 435.988636 
L 895.352727 427.704545 
L 896.491636 435.988636 
L 898.769455 419.420455 
L 899.908364 427.704545 
L 901.047273 419.420455 
L 905.602909 452.556818 
L 906.741818 444.272727 
L 909.019636 460.840909 
L 911.297455 444.272727 
L 912.436364 452.556818 
L 913.575273 444.272727 
L 914.714182 452.556818 
L 915.853091 444.272727 
L 916.992 452.556818 
L 918.130909 444.272727 
L 919.269818 452.556818 
L 920.408727 444.272727 
L 921.547636 452.556818 
L 922.686545 444.272727 
L 923.825455 452.556818 
L 931.797818 394.568182 
L 932.936727 402.852273 
L 938.631273 361.431818 
L 939.770182 369.715909 
L 942.048 353.147727 
L 943.186909 361.431818 
L 945.464727 344.863636 
L 946.603636 353.147727 
L 947.742545 344.863636 
L 950.020364 361.431818 
L 951.159273 353.147727 
L 952.298182 361.431818 
L 953.437091 353.147727 
L 954.576 361.431818 
L 956.853818 344.863636 
L 957.992727 353.147727 
L 959.131636 344.863636 
L 960.270545 353.147727 
L 961.409455 344.863636 
L 962.548364 353.147727 
L 964.826182 336.579545 
L 967.104 353.147727 
L 971.659636 320.011364 
L 977.354182 361.431818 
L 978.493091 353.147727 
L 980.770909 369.715909 
L 986.465455 328.295455 
L 987.604364 336.579545 
L 989.882182 320.011364 
L 991.021091 328.295455 
L 993.298909 311.727273 
L 998.993455 353.147727 
L 1001.271273 336.579545 
L 1002.410182 344.863636 
L 1003.549091 336.579545 
L 1004.688 344.863636 
L 1010.382545 303.443182 
L 1012.660364 320.011364 
L 1013.799273 311.727273 
L 1016.077091 328.295455 
L 1019.493818 303.443182 
L 1020.632727 311.727273 
L 1021.771636 303.443182 
L 1022.910545 311.727273 
L 1024.049455 303.443182 
L 1026.327273 320.011364 
L 1033.160727 270.306818 
L 1034.299636 278.590909 
L 1037.716364 253.738636 
L 1039.994182 270.306818 
L 1041.133091 262.022727 
L 1043.410909 278.590909 
L 1044.549818 270.306818 
L 1046.827636 286.875 
L 1049.105455 270.306818 
L 1050.244364 278.590909 
L 1051.383273 270.306818 
L 1053.661091 286.875 
L 1057.077818 262.022727 
L 1059.355636 278.590909 
L 1062.772364 253.738636 
L 1065.050182 270.306818 
L 1066.189091 262.022727 
L 1069.605818 286.875 
L 1070.744727 278.590909 
L 1073.022545 295.159091 
L 1076.439273 270.306818 
L 1077.578182 278.590909 
L 1080.994909 253.738636 
L 1082.133818 262.022727 
L 1084.411636 245.454545 
L 1086.689455 262.022727 
L 1094.661818 204.034091 
L 1098.078545 228.886364 
L 1099.217455 220.602273 
L 1100.356364 228.886364 
L 1102.634182 212.318182 
L 1107.189818 245.454545 
L 1108.328727 237.170455 
L 1109.467636 245.454545 
L 1111.745455 228.886364 
L 1114.023273 245.454545 
L 1118.578909 212.318182 
L 1119.717818 220.602273 
L 1120.856727 212.318182 
L 1123.134545 228.886364 
L 1124.273455 220.602273 
L 1127.690182 245.454545 
L 1128.829091 237.170455 
L 1132.245818 262.022727 
L 1135.662545 237.170455 
L 1136.801455 245.454545 
L 1141.357091 212.318182 
L 1142.496 220.602273 
L 1143.634909 212.318182 
L 1144.773818 220.602273 
L 1145.912727 212.318182 
L 1147.051636 220.602273 
L 1148.190545 212.318182 
L 1149.329455 220.602273 
L 1150.468364 212.318182 
L 1151.607273 220.602273 
L 1152.746182 212.318182 
L 1153.885091 220.602273 
L 1155.024 212.318182 
L 1156.162909 220.602273 
L 1157.301818 212.318182 
L 1158.440727 220.602273 
L 1161.857455 195.75 
L 1165.274182 220.602273 
L 1166.413091 212.318182 
L 1167.552 220.602273 
L 1168.690909 212.318182 
L 1170.968727 228.886364 
L 1172.107636 220.602273 
L 1173.246545 228.886364 
L 1178.941091 187.465909 
L 1182.357818 212.318182 
L 1183.496727 204.034091 
L 1184.635636 212.318182 
L 1185.774545 204.034091 
L 1188.052364 220.602273 
L 1190.330182 204.034091 
L 1192.608 220.602273 
L 1201.719273 154.329545 
L 1202.858182 162.613636 
L 1203.997091 154.329545 
L 1205.136 162.613636 
L 1207.413818 146.045455 
L 1208.552727 154.329545 
L 1214.247273 112.909091 
L 1216.525091 129.477273 
L 1217.664 121.193182 
L 1218.802909 129.477273 
L 1221.080727 112.909091 
L 1224.497455 137.761364 
L 1225.636364 129.477273 
L 1226.775273 137.761364 
L 1229.053091 121.193182 
L 1230.192 129.477273 
L 1231.330909 121.193182 
L 1233.608727 137.761364 
L 1235.886545 121.193182 
L 1237.025455 129.477273 
L 1239.303273 112.909091 
L 1246.136727 162.613636 
L 1247.275636 154.329545 
L 1248.414545 162.613636 
L 1249.553455 154.329545 
L 1250.692364 162.613636 
L 1251.831273 154.329545 
L 1254.109091 170.897727 
L 1255.248 162.613636 
L 1257.525818 179.181818 
L 1258.664727 170.897727 
L 1262.081455 195.75 
L 1263.220364 187.465909 
L 1265.498182 204.034091 
L 1270.053818 170.897727 
L 1271.192727 179.181818 
L 1272.331636 170.897727 
L 1274.609455 187.465909 
L 1275.748364 179.181818 
L 1276.887273 187.465909 
L 1281.442909 154.329545 
L 1283.720727 170.897727 
L 1284.859636 162.613636 
L 1288.276364 187.465909 
L 1290.554182 170.897727 
L 1291.693091 179.181818 
L 1292.832 170.897727 
L 1293.970909 179.181818 
L 1295.109818 170.897727 
L 1303.082182 228.886364 
L 1306.498909 204.034091 
L 1308.776727 220.602273 
L 1311.054545 204.034091 
L 1311.054545 204.034091 
" clip-path="url(#pa53585fe1e)" style="fill: none; stroke: #008fd5; stroke-width: 4"/>
   </g>
   <g id="line2d_28">
    <path d="M 172.145455 402.852273 
L 173.284364 404.509091 
L 174.423273 404.177727 
L 175.562182 405.569455 
L 176.701091 405.026018 
L 177.84 402.934451 
L 178.978909 399.604379 
L 180.117818 398.597139 
L 181.256727 399.448166 
L 182.395636 401.785806 
L 183.534545 405.312735 
L 184.673455 406.477461 
L 185.812364 405.752423 
L 186.951273 406.829211 
L 188.090182 409.34746 
L 189.229091 413.018877 
L 190.368 414.299193 
L 191.506909 413.666627 
L 192.645818 411.503756 
L 193.784727 408.116641 
L 194.923636 407.063767 
L 196.062545 407.878287 
L 197.201455 410.18672 
L 198.340364 413.690285 
L 199.479273 414.836319 
L 200.618182 414.096328 
L 201.757091 415.161153 
L 202.896 414.356195 
L 204.034909 412.055411 
L 205.173818 408.557965 
L 206.312727 407.416827 
L 207.451636 408.160734 
L 208.590545 410.412678 
L 209.729455 410.557415 
L 210.868364 409.016387 
L 212.007273 409.440382 
L 213.146182 411.436397 
L 214.285091 411.37639 
L 215.424 412.985203 
L 216.562909 415.929071 
L 217.701818 416.627348 
L 218.840727 418.842788 
L 219.979636 422.271957 
L 221.118545 426.672111 
L 222.257455 428.535416 
L 223.396364 431.682878 
L 224.535273 435.857666 
L 225.674182 437.540679 
L 226.813091 440.543907 
L 227.952 444.603307 
L 229.090909 446.194009 
L 230.229818 445.809753 
L 231.368727 447.159166 
L 232.507636 446.581878 
L 233.646545 444.46323 
L 234.785455 444.425129 
L 235.924364 446.051467 
L 237.063273 445.695719 
L 238.202182 447.067939 
L 239.341091 449.822533 
L 240.48 450.36939 
L 241.618909 452.463694 
L 242.757818 455.795955 
L 243.896727 460.118582 
L 245.035636 461.919866 
L 246.174545 461.704074 
L 247.313455 463.18826 
L 248.452364 462.718789 
L 249.591273 464.000032 
L 250.730182 466.681843 
L 251.869091 467.170475 
L 253.008 469.218198 
L 254.146909 472.513195 
L 255.285818 473.492374 
L 256.424727 475.932536 
L 257.563636 476.227847 
L 258.702545 478.120914 
L 259.841455 481.292185 
L 260.980364 482.172385 
L 262.119273 481.219726 
L 263.258182 478.800781 
L 264.397091 475.208806 
L 265.536 473.992045 
L 266.674909 471.361818 
L 267.813818 467.600818 
L 268.952727 462.9352 
L 270.091636 460.859524 
L 271.230545 457.542164 
L 272.369455 456.545095 
L 273.508364 457.404258 
L 274.647273 456.43477 
L 275.786182 457.315998 
L 276.925091 459.677798 
L 278.064 463.224057 
L 279.202909 464.404245 
L 280.341818 467.005214 
L 281.480727 467.429172 
L 282.619636 466.111519 
L 283.758545 463.400579 
L 284.897455 459.575009 
L 286.036364 454.857734 
L 287.175273 452.740733 
L 288.314182 449.390313 
L 289.453091 445.05316 
L 290.592 443.240255 
L 291.730909 440.133113 
L 292.869818 435.990581 
L 294.008727 431.019738 
L 295.147636 428.699881 
L 296.286545 428.500814 
L 297.425455 426.684742 
L 298.564364 426.888703 
L 299.703273 425.395053 
L 300.842182 422.543315 
L 301.981091 421.918743 
L 303.12 423.075904 
L 304.258909 425.65845 
L 305.397818 426.067669 
L 306.536727 428.051863 
L 307.675636 427.982399 
L 308.814545 426.27001 
L 309.953455 423.243281 
L 311.092364 422.478716 
L 312.231273 423.523882 
L 313.370182 422.703196 
L 314.509091 420.38983 
L 315.648 416.882318 
L 316.786909 412.419491 
L 317.925818 407.192411 
L 320.203636 395.026325 
L 321.342545 391.62106 
L 322.481455 390.553666 
L 323.620364 388.042933 
L 324.759273 387.691164 
L 325.898182 385.752932 
L 327.037091 385.859163 
L 328.176 384.287331 
L 329.314909 384.686683 
L 330.453818 383.349346 
L 331.592727 380.622659 
L 332.731636 380.098127 
L 333.870545 378.021683 
L 335.009455 374.70371 
L 336.148364 370.392514 
L 337.287273 365.286738 
L 338.426182 362.858936 
L 339.565091 362.573513 
L 340.704 360.688355 
L 341.842909 360.837048 
L 342.981818 362.61282 
L 344.120727 362.37662 
L 345.259636 363.844478 
L 346.398545 366.675582 
L 347.537455 370.597284 
L 348.676364 372.077827 
L 349.815273 374.91908 
L 350.954182 375.535264 
L 352.093091 374.371393 
L 353.232 375.097114 
L 354.370909 377.33451 
L 355.509818 380.781244 
L 356.648727 381.881813 
L 357.787636 384.419087 
L 358.926545 384.792088 
L 360.065455 383.43367 
L 361.204364 384.003754 
L 362.343273 386.11664 
L 363.482182 386.15013 
L 364.621091 384.520104 
L 365.76 384.872901 
L 366.898909 386.811958 
L 368.037818 390.020021 
L 369.176727 390.929653 
L 370.315636 393.314177 
L 371.454545 396.878614 
L 372.593455 398.073346 
L 373.732364 400.685949 
L 374.871273 401.119214 
L 376.010182 403.122644 
L 377.149091 403.06857 
L 378.288 401.368492 
L 379.426909 401.665248 
L 380.565818 400.245835 
L 381.704727 400.767123 
L 382.843636 399.527334 
L 383.982545 400.192322 
L 385.121455 399.067494 
L 386.260364 399.82445 
L 387.399273 402.086833 
L 388.538182 405.553557 
L 389.677091 409.983755 
L 390.816 411.871095 
L 391.954909 411.724148 
L 393.093818 409.949773 
L 394.232727 406.873455 
L 395.371636 402.755582 
L 396.510545 397.804466 
L 397.649455 395.500391 
L 398.788364 395.313949 
L 399.927273 393.507977 
L 401.066182 390.406382 
L 402.205091 386.268287 
L 403.344 384.61463 
L 404.482909 384.948522 
L 405.621818 383.558818 
L 406.760727 380.790236 
L 407.899636 380.232189 
L 409.038545 381.442569 
L 410.177455 384.067692 
L 411.316364 387.824608 
L 412.455273 389.173323 
L 413.594182 391.909113 
L 414.733091 392.440927 
L 415.872 394.523196 
L 417.010909 397.845829 
L 418.149818 402.160754 
L 419.288727 403.955876 
L 420.427636 403.735156 
L 421.566545 405.215397 
L 422.705455 404.742772 
L 423.844364 406.021491 
L 424.983273 408.701283 
L 426.122182 409.188299 
L 427.261091 411.23473 
L 428.4 414.528693 
L 429.538909 418.820682 
L 430.677818 423.911091 
L 431.816727 426.3266 
L 432.955636 429.915826 
L 434.094545 434.444024 
L 435.233455 436.409765 
L 436.372364 439.639175 
L 437.511273 443.879522 
L 438.650182 448.928618 
L 440.928 460.838406 
L 442.066909 467.46618 
L 443.205818 471.11158 
L 444.344727 475.684719 
L 445.483636 477.686411 
L 446.622545 477.630947 
L 447.761455 475.929758 
L 448.900364 476.225624 
L 450.039273 474.805499 
L 451.178182 472.012581 
L 452.317091 468.121429 
L 453.456 466.665325 
L 454.594909 467.15726 
L 455.733818 469.207626 
L 456.872727 469.191101 
L 458.011636 470.834699 
L 459.150545 473.806395 
L 460.289455 477.840571 
L 461.428364 482.724729 
L 462.567273 488.288874 
L 463.706182 491.083372 
L 464.845091 494.975789 
L 465.984 499.74654 
L 467.122909 501.906323 
L 468.261818 505.290967 
L 469.400727 509.655501 
L 470.539636 514.803946 
L 471.678545 517.265884 
L 472.817455 517.578617 
L 473.956364 519.485621 
L 475.095273 519.354406 
L 476.234182 520.906252 
L 477.373091 523.804547 
L 478.512 527.780001 
L 479.650909 532.617183 
L 480.789818 534.83011 
L 481.928727 534.943633 
L 483.067636 536.69127 
L 484.206545 536.432562 
L 485.345455 537.882413 
L 486.484364 537.385476 
L 487.623273 535.331108 
L 488.762182 535.344432 
L 489.901091 537.011909 
L 491.04 536.689073 
L 492.178909 534.773985 
L 493.317818 531.585097 
L 494.456727 527.377169 
L 495.595636 522.354008 
L 496.734545 519.992297 
L 497.873455 516.44611 
L 499.012364 511.952343 
L 500.151273 510.014147 
L 501.290182 506.806772 
L 502.429091 502.584054 
L 503.568 500.862698 
L 504.706909 501.142431 
L 505.845818 499.709399 
L 506.984727 500.219792 
L 508.123636 502.284925 
L 509.262545 505.593849 
L 510.401455 509.897806 
L 511.540364 514.997791 
L 512.679273 517.42096 
L 513.818182 521.016313 
L 514.957091 522.235778 
L 516.096 524.868168 
L 517.234909 525.317261 
L 518.373818 527.333355 
L 519.512727 527.289411 
L 520.651636 525.597438 
L 521.790545 525.900678 
L 522.929455 524.486451 
L 524.068364 525.011888 
L 525.207273 523.77542 
L 526.346182 521.129427 
L 527.485091 520.66945 
L 528.624 521.958288 
L 529.762909 521.332539 
L 530.901818 519.175122 
L 532.040727 519.106007 
L 533.179636 520.707533 
L 534.318545 520.331935 
L 535.457455 521.688276 
L 536.596364 521.11653 
L 537.735273 522.315951 
L 538.874182 524.932306 
L 540.013091 528.682209 
L 541.152 530.025312 
L 542.290909 532.756613 
L 543.429818 533.284836 
L 544.568727 535.364233 
L 545.707636 538.684568 
L 546.846545 539.684018 
L 547.985455 542.140396 
L 549.124364 545.762317 
L 550.263273 547.003035 
L 551.402182 549.652428 
L 552.541091 553.428761 
L 553.68 558.106645 
L 554.818909 563.505771 
L 557.096727 575.919602 
L 558.235636 579.412955 
L 559.374545 580.550818 
L 560.513455 579.804291 
L 561.652364 580.863887 
L 562.791273 580.054746 
L 563.930182 581.064251 
L 565.069091 580.215038 
L 566.208 581.192485 
L 567.346909 583.63126 
L 568.485818 587.239099 
L 569.624727 591.782188 
L 570.763636 597.073478 
L 573.041455 609.332026 
L 574.180364 612.770166 
L 575.319273 617.177497 
L 576.458182 622.360179 
L 577.597091 624.849507 
L 578.736 625.184151 
L 579.874909 627.108684 
L 581.013818 626.991493 
L 582.152727 625.240922 
L 583.291636 625.497283 
L 584.430545 627.35919 
L 585.569455 627.191897 
L 586.708364 628.714882 
L 587.847273 631.590087 
L 588.986182 632.233433 
L 590.125091 631.091292 
L 591.264 628.520761 
L 592.402909 628.121154 
L 593.541818 626.144651 
L 594.680727 626.220266 
L 595.819636 624.62394 
L 596.958545 621.690061 
L 598.097455 620.999776 
L 599.236364 618.79073 
L 600.375273 618.680311 
L 601.514182 616.935158 
L 602.653091 617.195854 
L 603.792 619.061228 
L 604.930909 618.89671 
L 606.069818 617.108277 
L 607.208727 614.020713 
L 608.347636 613.207479 
L 609.486545 614.213711 
L 610.625455 613.361878 
L 611.764364 611.023593 
L 612.903273 610.809783 
L 614.042182 612.295554 
L 615.181091 615.140989 
L 616.32 615.760518 
L 617.458909 614.599324 
L 618.597818 612.01355 
L 619.736727 608.288113 
L 620.875636 603.650945 
L 622.014545 601.598028 
L 623.153455 601.612514 
L 624.292364 603.28092 
L 625.431273 602.958827 
L 626.570182 601.044334 
L 627.709091 601.169558 
L 628.848 599.612919 
L 629.986909 596.71079 
L 631.125818 596.045905 
L 632.264727 597.170815 
L 633.403636 596.413925 
L 634.542545 594.151594 
L 635.681455 590.684912 
L 636.820364 586.254748 
L 637.959273 584.367434 
L 639.098182 581.200766 
L 640.237091 577.010613 
L 641.376 575.315308 
L 642.514909 575.615883 
L 643.653818 577.513161 
L 644.792727 577.374165 
L 645.931636 578.919787 
L 647.070545 578.499466 
L 648.209455 576.506391 
L 649.348364 573.255113 
L 650.487273 572.310908 
L 651.626182 569.898727 
L 652.765091 566.312163 
L 653.904 561.786094 
L 655.042909 559.822057 
L 656.181818 556.594009 
L 657.320727 552.354753 
L 658.459636 550.620166 
L 659.598545 547.575678 
L 660.737455 546.796906 
L 661.876364 544.51707 
L 663.015273 541.036384 
L 664.154182 536.595016 
L 665.293091 534.69874 
L 666.432 531.524901 
L 667.570909 527.329012 
L 668.709818 525.629119 
L 669.848727 525.926022 
L 670.987636 527.820363 
L 672.126545 530.992654 
L 673.265455 535.187305 
L 674.404364 536.886208 
L 675.543273 536.588512 
L 676.682182 538.007173 
L 677.821091 537.485284 
L 678.96 535.410954 
L 680.098909 532.094673 
L 681.237818 531.098465 
L 682.376727 528.644681 
L 683.515636 525.024836 
L 684.654545 523.785778 
L 685.793455 524.45135 
L 686.932364 523.326989 
L 688.071273 520.770682 
L 689.210182 520.382455 
L 690.349091 521.728691 
L 691.488 524.462498 
L 692.626909 524.992726 
L 693.765818 527.073726 
L 694.904727 527.081708 
L 696.043636 525.431276 
L 697.182545 522.454111 
L 698.321455 521.729198 
L 699.460364 522.806086 
L 700.599273 522.010778 
L 701.738182 519.717713 
L 702.877091 516.226443 
L 704.016 515.090245 
L 705.154909 512.524469 
L 706.293818 508.81503 
L 707.432727 507.504297 
L 708.571636 504.798892 
L 709.710545 504.291386 
L 710.849455 505.5422 
L 711.988364 504.886033 
L 713.127273 506.017917 
L 714.266182 505.266606 
L 715.405091 506.322376 
L 716.544 505.510174 
L 717.682909 503.203593 
L 718.821818 499.701511 
L 719.960727 495.243027 
L 721.099636 493.333058 
L 722.238545 493.461901 
L 723.377455 491.908157 
L 724.516364 489.008344 
L 725.655273 488.345311 
L 726.794182 486.158067 
L 727.933091 486.06509 
L 729.072 487.647527 
L 730.210909 487.256658 
L 731.349818 485.287144 
L 732.488727 485.368352 
L 733.627636 483.7765 
L 734.766545 484.159836 
L 735.905455 482.809687 
L 737.044364 480.07275 
L 738.183273 476.226382 
L 739.322182 474.806105 
L 740.461091 475.326702 
L 741.6 477.399998 
L 742.738909 477.401817 
L 743.877818 479.06009 
L 745.016727 482.043526 
L 746.155636 482.773457 
L 747.294545 485.014221 
L 748.433455 488.463649 
L 749.572364 492.88001 
L 750.711273 494.756281 
L 751.850182 494.600479 
L 752.989091 492.81902 
L 754.128 489.737034 
L 755.266909 485.614627 
L 756.405818 483.97352 
L 757.544727 484.317452 
L 758.683636 482.93578 
L 759.822545 480.173624 
L 760.961455 476.307081 
L 762.100364 474.870665 
L 763.239273 472.064714 
L 764.378182 471.476771 
L 765.517091 472.663235 
L 766.656 471.955588 
L 767.794909 469.732652 
L 768.933818 466.297485 
L 770.072727 465.20617 
L 771.211636 465.989936 
L 772.350545 468.273767 
L 773.489455 468.444014 
L 774.628364 470.237029 
L 775.767273 470.014623 
L 776.906182 471.493517 
L 778.045091 471.019813 
L 779.184 472.297669 
L 780.322909 474.976772 
L 781.461818 475.463235 
L 782.600727 477.509225 
L 783.739636 480.802834 
L 784.878545 485.09454 
L 786.017455 486.871087 
L 787.156364 486.635506 
L 788.295273 488.103859 
L 789.434182 487.621724 
L 790.573091 488.892833 
L 791.712 491.566539 
L 792.850909 492.048686 
L 793.989818 490.777585 
L 795.128727 488.103886 
L 796.267636 487.621745 
L 797.406545 488.892851 
L 798.545455 488.252917 
L 799.684364 486.084152 
L 800.823273 482.692321 
L 801.962182 478.322039 
L 803.101091 473.168995 
L 804.24 470.703378 
L 805.378909 467.074066 
L 806.517818 462.513798 
L 807.656727 460.522402 
L 808.795636 460.586104 
L 809.934545 462.293883 
L 811.073455 462.003288 
L 812.212364 460.113994 
L 813.351273 456.945741 
L 814.490182 456.067956 
L 815.629091 457.022547 
L 816.768 456.129401 
L 817.906909 453.758066 
L 819.045818 450.20418 
L 820.184727 449.01789 
L 821.323636 446.412039 
L 822.462545 445.984177 
L 823.601455 443.985069 
L 824.740364 444.0426 
L 825.879273 442.431808 
L 827.018182 442.799991 
L 828.157091 441.43772 
L 829.296 438.691085 
L 830.434909 434.836959 
L 831.573818 433.410477 
L 832.712727 430.612472 
L 833.851636 426.71725 
L 834.990545 421.944255 
L 836.129455 416.46904 
L 838.407273 403.94564 
L 839.546182 400.41333 
L 840.685091 395.930664 
L 841.824 394.00135 
L 842.962909 390.80108 
L 844.101818 389.897682 
L 845.240727 387.518146 
L 846.379636 387.271335 
L 847.518545 385.417068 
L 848.657455 382.276836 
L 849.796364 381.421469 
L 850.935273 382.393993 
L 852.074182 384.828831 
L 853.213091 388.433519 
L 854.352 392.974088 
L 855.490909 394.949725 
L 856.629818 394.873416 
L 857.768727 393.155551 
L 858.907636 393.438077 
L 860.046545 395.320916 
L 861.185455 398.484006 
L 862.324364 402.671296 
L 863.463273 404.364309 
L 864.602182 404.061902 
L 865.741091 402.163158 
L 866.88 398.987345 
L 868.018909 398.103512 
L 869.157818 399.053264 
L 870.296727 398.156248 
L 871.435636 395.781816 
L 872.574545 392.225453 
L 873.713455 391.037181 
L 874.852364 391.743381 
L 875.991273 390.651523 
L 877.130182 391.434855 
L 878.269091 393.718338 
L 879.408 393.888307 
L 880.546909 395.6811 
L 881.685818 398.772153 
L 882.824727 399.588177 
L 883.963636 401.897814 
L 885.102545 402.088706 
L 886.241455 400.584601 
L 887.380364 401.038135 
L 888.519273 403.057781 
L 889.658182 403.016679 
L 890.797091 404.640616 
L 891.936 407.596584 
L 893.074909 411.618176 
L 894.213818 416.492268 
L 895.352727 418.734724 
L 896.491636 422.185506 
L 897.630545 423.289314 
L 898.769455 422.515542 
L 899.908364 423.553343 
L 901.047273 422.726765 
L 902.186182 423.722321 
L 903.325091 426.175584 
L 904.464 429.795013 
L 905.602909 434.347374 
L 906.741818 436.332445 
L 907.880727 439.577319 
L 909.019636 443.830037 
L 910.158545 445.575393 
L 911.297455 445.31486 
L 912.436364 446.763252 
L 913.575273 446.265147 
L 914.714182 447.523481 
L 915.853091 446.87333 
L 916.992 448.010028 
L 918.130909 447.262568 
L 919.269818 448.321418 
L 920.408727 447.51168 
L 921.547636 448.520707 
L 922.686545 447.671111 
L 923.825455 448.648253 
L 924.964364 447.773148 
L 926.103273 445.416245 
L 927.242182 441.873905 
L 928.381091 437.383215 
L 929.52 432.133845 
L 931.797818 419.935661 
L 932.936727 416.518983 
L 934.075636 412.128823 
L 935.214545 406.959876 
L 937.492364 394.877503 
L 938.631273 388.188366 
L 939.770182 384.493874 
L 940.909091 379.881463 
L 942.048 374.534716 
L 943.186909 371.914136 
L 944.325818 368.160855 
L 945.464727 363.501411 
L 946.603636 361.430674 
L 947.742545 358.117267 
L 948.881455 357.123359 
L 950.020364 357.985051 
L 951.159273 357.017586 
L 952.298182 357.900432 
L 953.437091 356.949891 
L 954.576 357.846277 
L 955.714909 356.906567 
L 956.853818 354.497981 
L 957.992727 354.22793 
L 959.131636 352.355071 
L 960.270545 352.513603 
L 961.409455 350.983609 
L 962.548364 351.416433 
L 963.687273 350.105874 
L 964.826182 347.400608 
L 965.965091 346.893214 
L 967.104 348.144116 
L 968.242909 347.48802 
L 969.381818 345.306325 
L 970.520727 341.904151 
L 971.659636 337.525594 
L 972.798545 335.679566 
L 973.937455 335.859562 
L 975.076364 337.660377 
L 976.215273 340.757847 
L 977.354182 344.892641 
L 978.493091 346.543658 
L 979.632 349.52129 
L 980.770909 353.560214 
L 981.909818 355.134535 
L 983.048727 354.737173 
L 984.187636 352.762466 
L 985.326545 349.525882 
L 986.465455 345.279796 
L 987.604364 343.539746 
L 988.743273 340.490888 
L 989.882182 336.394983 
L 991.021091 334.775077 
L 992.16 331.822335 
L 993.298909 327.803322 
L 994.437818 326.244931 
L 995.576727 326.655035 
L 996.715636 328.639937 
L 997.854545 331.884677 
L 998.993455 336.137287 
L 1000.132364 337.882557 
L 1001.271273 337.621955 
L 1002.410182 339.070291 
L 1003.549091 338.572142 
L 1004.688 339.830441 
L 1005.826909 339.180262 
L 1006.965818 337.0033 
L 1008.104727 333.604913 
L 1009.243636 329.229385 
L 1010.382545 324.072144 
L 1011.521455 321.60317 
L 1012.660364 321.284809 
L 1013.799273 319.373302 
L 1014.938182 319.500914 
L 1016.077091 321.259822 
L 1017.216 321.01013 
L 1018.354909 319.153559 
L 1019.493818 316.011483 
L 1020.632727 315.154641 
L 1021.771636 312.812349 
L 1022.910545 312.595334 
L 1024.049455 310.764904 
L 1025.188364 310.957377 
L 1026.327273 312.768175 
L 1027.466182 312.559994 
L 1028.605091 310.736632 
L 1029.744 307.621124 
L 1030.882909 303.471899 
L 1032.021818 298.495701 
L 1033.160727 292.857924 
L 1034.299636 290.004521 
L 1035.438545 286.064981 
L 1036.577455 281.25653 
L 1037.716364 275.752951 
L 1038.855273 273.006906 
L 1039.994182 272.466889 
L 1041.133091 270.378057 
L 1042.272 270.363809 
L 1043.410909 272.009229 
L 1044.549818 271.668747 
L 1045.688727 273.053179 
L 1046.827636 275.817543 
L 1047.966545 276.372217 
L 1049.105455 275.159137 
L 1050.244364 275.845491 
L 1051.383273 274.737757 
L 1052.522182 275.508387 
L 1053.661091 277.78171 
L 1054.8 277.94355 
L 1055.938909 276.416203 
L 1057.077818 273.537508 
L 1058.216727 272.89137 
L 1059.355636 274.031278 
L 1060.494545 273.286386 
L 1061.633455 271.033654 
L 1062.772364 267.574651 
L 1063.911273 266.464266 
L 1065.050182 267.232776 
L 1066.189091 266.190767 
L 1067.328 267.013977 
L 1068.466909 269.329363 
L 1069.605818 272.838491 
L 1070.744727 273.988974 
L 1071.883636 276.566179 
L 1073.022545 280.284762 
L 1074.161455 281.602809 
L 1075.300364 281.000429 
L 1076.439273 278.861707 
L 1077.578182 278.807548 
L 1078.717091 277.107402 
L 1079.856 274.090467 
L 1080.994909 270.020101 
L 1082.133818 268.420626 
L 1083.272727 265.484228 
L 1084.411636 261.478292 
L 1085.550545 259.930361 
L 1086.689455 260.348834 
L 1087.828364 259.026794 
L 1088.967273 256.312345 
L 1090.106182 252.483967 
L 1091.245091 247.764446 
L 1092.384 242.332011 
L 1094.661818 229.870215 
L 1095.800727 226.359808 
L 1096.939636 225.208301 
L 1098.078545 225.943913 
L 1099.217455 224.875585 
L 1100.356364 225.677741 
L 1101.495273 224.662647 
L 1102.634182 222.193754 
L 1103.773091 221.875458 
L 1104.912 223.277639 
L 1106.050909 226.056202 
L 1107.189818 229.935871 
L 1108.328727 231.382788 
L 1109.467636 234.197139 
L 1110.606545 234.791802 
L 1111.745455 233.610715 
L 1112.884364 234.322663 
L 1114.023273 236.549039 
L 1115.162182 236.673322 
L 1116.301091 235.11593 
L 1117.44 232.213199 
L 1118.578909 228.234196 
L 1119.717818 226.707811 
L 1120.856727 223.829885 
L 1121.995636 223.184363 
L 1123.134545 224.324763 
L 1124.273455 223.580265 
L 1125.412364 224.641485 
L 1126.551273 227.147279 
L 1127.690182 230.808732 
L 1128.829091 232.081076 
L 1129.968 234.75577 
L 1131.106909 238.552343 
L 1132.245818 243.24642 
L 1133.384727 245.344863 
L 1134.523636 245.3668 
L 1135.662545 243.727531 
L 1136.801455 244.072934 
L 1137.940364 242.692438 
L 1139.079273 239.931223 
L 1140.218182 236.065433 
L 1141.357091 231.315983 
L 1142.496 229.173241 
L 1143.634909 225.802229 
L 1144.773818 224.762238 
L 1145.912727 222.273427 
L 1147.051636 221.939196 
L 1148.190545 220.014993 
L 1149.329455 220.132449 
L 1150.468364 218.569596 
L 1151.607273 218.976131 
L 1152.746182 217.644541 
L 1153.885091 218.236087 
L 1155.024 217.052506 
L 1156.162909 217.76246 
L 1157.301818 216.673604 
L 1158.440727 217.459338 
L 1159.579636 216.431107 
L 1160.718545 213.951703 
L 1161.857455 210.311363 
L 1162.996364 209.055908 
L 1164.135273 209.708363 
L 1165.274182 211.887145 
L 1166.413091 211.973352 
L 1167.552 213.699136 
L 1168.690909 213.422946 
L 1169.829818 214.858811 
L 1170.968727 217.664321 
L 1172.107636 218.251912 
L 1173.246545 220.378802 
L 1174.385455 220.423496 
L 1175.524364 218.802433 
L 1176.663273 215.848765 
L 1177.802182 211.829012 
L 1178.941091 206.956391 
L 1180.08 204.715113 
L 1181.218909 204.578909 
L 1182.357818 206.126763 
L 1183.496727 205.708229 
L 1184.635636 207.030219 
L 1185.774545 206.430994 
L 1186.913455 207.608431 
L 1188.052364 210.2072 
L 1189.191273 210.629396 
L 1190.330182 209.310335 
L 1191.469091 209.911904 
L 1192.608 212.049978 
L 1193.746909 212.103619 
L 1194.885818 210.489713 
L 1196.024727 207.541771 
L 1197.163636 203.526598 
L 1198.302545 198.657642 
L 1200.580364 187.007255 
L 1201.719273 180.471713 
L 1202.858182 176.900098 
L 1203.997091 172.385987 
L 1205.136 170.431517 
L 1206.274909 167.211123 
L 1207.413818 162.977989 
L 1208.552727 161.2483 
L 1209.691636 158.207731 
L 1210.830545 154.118458 
L 1211.969455 149.190221 
L 1214.247273 137.454469 
L 1215.386182 134.202211 
L 1216.525091 133.257223 
L 1217.664 130.844415 
L 1218.802909 130.570987 
L 1219.941818 128.695426 
L 1221.080727 125.538159 
L 1222.219636 124.669163 
L 1223.358545 125.630785 
L 1224.497455 128.056901 
L 1225.636364 128.340975 
L 1226.775273 130.225053 
L 1227.914182 130.075497 
L 1229.053091 128.299034 
L 1230.192 128.534682 
L 1231.330909 127.066382 
L 1232.469818 127.54856 
L 1233.608727 129.591121 
L 1234.747636 129.568351 
L 1235.886545 127.893317 
L 1237.025455 128.210108 
L 1238.164364 126.806723 
L 1239.303273 124.027197 
L 1240.442182 123.460394 
L 1241.581091 124.663769 
L 1242.72 127.283288 
L 1243.858909 131.035722 
L 1244.997818 135.694486 
L 1246.136727 141.078316 
L 1247.275636 143.728562 
L 1248.414545 147.505577 
L 1249.553455 148.870371 
L 1250.692364 151.619024 
L 1251.831273 152.161128 
L 1252.970182 154.25163 
L 1254.109091 157.580849 
L 1255.248 158.587407 
L 1256.386909 161.049471 
L 1257.525818 164.67594 
L 1258.664727 165.920298 
L 1259.803636 168.572602 
L 1260.942545 172.351263 
L 1262.081455 177.031011 
L 1263.220364 179.11799 
L 1264.359273 182.444392 
L 1265.498182 186.762332 
L 1266.637091 188.559866 
L 1267.776 188.341074 
L 1268.914909 186.509223 
L 1270.053818 183.386924 
L 1271.192727 182.545903 
L 1272.331636 180.216268 
L 1273.470545 180.009378 
L 1274.609455 181.500684 
L 1275.748364 181.036911 
L 1276.887273 182.322711 
L 1278.026182 181.694532 
L 1279.165091 179.535171 
L 1280.304 176.150864 
L 1281.442909 171.7866 
L 1282.581818 169.952008 
L 1283.720727 170.141152 
L 1284.859636 168.635648 
L 1285.998545 169.088064 
L 1287.137455 171.106815 
L 1288.276364 174.378634 
L 1289.415273 175.339271 
L 1290.554182 174.450962 
L 1291.693091 175.397133 
L 1292.832 174.497252 
L 1293.970909 175.434165 
L 1295.109818 174.526878 
L 1296.248727 175.457866 
L 1297.387636 177.859474 
L 1298.526545 181.43758 
L 1299.665455 185.956882 
L 1300.804364 191.229142 
L 1303.082182 203.460287 
L 1304.221091 206.888684 
L 1305.36 207.974584 
L 1306.498909 207.186485 
L 1307.637818 208.212825 
L 1308.776727 210.690714 
L 1309.915636 211.016208 
L 1309.915636 211.016208 
" clip-path="url(#pa53585fe1e)" style="fill: none; stroke: #fc4f30; stroke-width: 4"/>
   </g>
   <g id="patch_3">
    <path d="M 115.2 669.6 
L 115.2 86.4 
" style="fill: none; stroke: #f0f0f0; stroke-width: 3; stroke-linejoin: miter; stroke-linecap: square"/>
   </g>
   <g id="patch_4">
    <path d="M 1368 669.6 
L 1368 86.4 
" style="fill: none; stroke: #f0f0f0; stroke-width: 3; stroke-linejoin: miter; stroke-linecap: square"/>
   </g>
   <g id="patch_5">
    <path d="M 115.2 669.6 
L 1368 669.6 
" style="fill: none; stroke: #f0f0f0; stroke-width: 3; stroke-linejoin: miter; stroke-linecap: square"/>
   </g>
   <g id="patch_6">
    <path d="M 115.2 86.4 
L 1368 86.4 
" style="fill: none; stroke: #f0f0f0; stroke-width: 3; stroke-linejoin: miter; stroke-linecap: square"/>
   </g>
   <g id="legend_1">
    <g id="patch_7">
     <path d="M 125 138.69875 
L 388.633125 138.69875 
Q 391.433125 138.69875 391.433125 135.89875 
L 391.433125 96.2 
Q 391.433125 93.4 388.633125 93.4 
L 125 93.4 
Q 122.2 93.4 122.2 96.2 
L 122.2 135.89875 
Q 122.2 138.69875 125 138.69875 
z
" style="fill: #f0f0f0; opacity: 0.8; stroke: #cccccc; stroke-width: 0.5; stroke-linejoin: miter"/>
    </g>
    <g id="line2d_29">
     <path d="M 127.8 104.737812 
L 141.8 104.737812 
L 155.8 104.737812 
" style="fill: none; stroke: #008fd5; stroke-width: 4"/>
    </g>
    <g id="text_14">
     <!-- Random walk -->
     <g transform="translate(167 109.637812) scale(0.14 -0.14)">
      <defs>
       <path id="DejaVuSans-52" d="M 2841 2188 
Q 3044 2119 3236 1894 
Q 3428 1669 3622 1275 
L 4263 0 
L 3584 0 
L 2988 1197 
Q 2756 1666 2539 1819 
Q 2322 1972 1947 1972 
L 1259 1972 
L 1259 0 
L 628 0 
L 628 4666 
L 2053 4666 
Q 2853 4666 3247 4331 
Q 3641 3997 3641 3322 
Q 3641 2881 3436 2590 
Q 3231 2300 2841 2188 
z
M 1259 4147 
L 1259 2491 
L 2053 2491 
Q 2509 2491 2742 2702 
Q 2975 2913 2975 3322 
Q 2975 3731 2742 3939 
Q 2509 4147 2053 4147 
L 1259 4147 
z
" transform="scale(0.015625)"/>
       <path id="DejaVuSans-61" d="M 2194 1759 
Q 1497 1759 1228 1600 
Q 959 1441 959 1056 
Q 959 750 1161 570 
Q 1363 391 1709 391 
Q 2188 391 2477 730 
Q 2766 1069 2766 1631 
L 2766 1759 
L 2194 1759 
z
M 3341 1997 
L 3341 0 
L 2766 0 
L 2766 531 
Q 2569 213 2275 61 
Q 1981 -91 1556 -91 
Q 1019 -91 701 211 
Q 384 513 384 1019 
Q 384 1609 779 1909 
Q 1175 2209 1959 2209 
L 2766 2209 
L 2766 2266 
Q 2766 2663 2505 2880 
Q 2244 3097 1772 3097 
Q 1472 3097 1187 3025 
Q 903 2953 641 2809 
L 641 3341 
Q 956 3463 1253 3523 
Q 1550 3584 1831 3584 
Q 2591 3584 2966 3190 
Q 3341 2797 3341 1997 
z
" transform="scale(0.015625)"/>
       <path id="DejaVuSans-6e" d="M 3513 2113 
L 3513 0 
L 2938 0 
L 2938 2094 
Q 2938 2591 2744 2837 
Q 2550 3084 2163 3084 
Q 1697 3084 1428 2787 
Q 1159 2491 1159 1978 
L 1159 0 
L 581 0 
L 581 3500 
L 1159 3500 
L 1159 2956 
Q 1366 3272 1645 3428 
Q 1925 3584 2291 3584 
Q 2894 3584 3203 3211 
Q 3513 2838 3513 2113 
z
" transform="scale(0.015625)"/>
       <path id="DejaVuSans-64" d="M 2906 2969 
L 2906 4863 
L 3481 4863 
L 3481 0 
L 2906 0 
L 2906 525 
Q 2725 213 2448 61 
Q 2172 -91 1784 -91 
Q 1150 -91 751 415 
Q 353 922 353 1747 
Q 353 2572 751 3078 
Q 1150 3584 1784 3584 
Q 2172 3584 2448 3432 
Q 2725 3281 2906 2969 
z
M 947 1747 
Q 947 1113 1208 752 
Q 1469 391 1925 391 
Q 2381 391 2643 752 
Q 2906 1113 2906 1747 
Q 2906 2381 2643 2742 
Q 2381 3103 1925 3103 
Q 1469 3103 1208 2742 
Q 947 2381 947 1747 
z
" transform="scale(0.015625)"/>
       <path id="DejaVuSans-6f" d="M 1959 3097 
Q 1497 3097 1228 2736 
Q 959 2375 959 1747 
Q 959 1119 1226 758 
Q 1494 397 1959 397 
Q 2419 397 2687 759 
Q 2956 1122 2956 1747 
Q 2956 2369 2687 2733 
Q 2419 3097 1959 3097 
z
M 1959 3584 
Q 2709 3584 3137 3096 
Q 3566 2609 3566 1747 
Q 3566 888 3137 398 
Q 2709 -91 1959 -91 
Q 1206 -91 779 398 
Q 353 888 353 1747 
Q 353 2609 779 3096 
Q 1206 3584 1959 3584 
z
" transform="scale(0.015625)"/>
       <path id="DejaVuSans-6d" d="M 3328 2828 
Q 3544 3216 3844 3400 
Q 4144 3584 4550 3584 
Q 5097 3584 5394 3201 
Q 5691 2819 5691 2113 
L 5691 0 
L 5113 0 
L 5113 2094 
Q 5113 2597 4934 2840 
Q 4756 3084 4391 3084 
Q 3944 3084 3684 2787 
Q 3425 2491 3425 1978 
L 3425 0 
L 2847 0 
L 2847 2094 
Q 2847 2600 2669 2842 
Q 2491 3084 2119 3084 
Q 1678 3084 1418 2786 
Q 1159 2488 1159 1978 
L 1159 0 
L 581 0 
L 581 3500 
L 1159 3500 
L 1159 2956 
Q 1356 3278 1631 3431 
Q 1906 3584 2284 3584 
Q 2666 3584 2933 3390 
Q 3200 3197 3328 2828 
z
" transform="scale(0.015625)"/>
       <path id="DejaVuSans-20" transform="scale(0.015625)"/>
       <path id="DejaVuSans-77" d="M 269 3500 
L 844 3500 
L 1563 769 
L 2278 3500 
L 2956 3500 
L 3675 769 
L 4391 3500 
L 4966 3500 
L 4050 0 
L 3372 0 
L 2619 2869 
L 1863 0 
L 1184 0 
L 269 3500 
z
" transform="scale(0.015625)"/>
       <path id="DejaVuSans-6c" d="M 603 4863 
L 1178 4863 
L 1178 0 
L 603 0 
L 603 4863 
z
" transform="scale(0.015625)"/>
       <path id="DejaVuSans-6b" d="M 581 4863 
L 1159 4863 
L 1159 1991 
L 2875 3500 
L 3609 3500 
L 1753 1863 
L 3688 0 
L 2938 0 
L 1159 1709 
L 1159 0 
L 581 0 
L 581 4863 
z
" transform="scale(0.015625)"/>
      </defs>
      <use xlink:href="#DejaVuSans-52"/>
      <use xlink:href="#DejaVuSans-61" x="67.232422"/>
      <use xlink:href="#DejaVuSans-6e" x="128.511719"/>
      <use xlink:href="#DejaVuSans-64" x="191.890625"/>
      <use xlink:href="#DejaVuSans-6f" x="255.367188"/>
      <use xlink:href="#DejaVuSans-6d" x="316.548828"/>
      <use xlink:href="#DejaVuSans-20" x="413.960938"/>
      <use xlink:href="#DejaVuSans-77" x="445.748047"/>
      <use xlink:href="#DejaVuSans-61" x="527.535156"/>
      <use xlink:href="#DejaVuSans-6c" x="588.814453"/>
      <use xlink:href="#DejaVuSans-6b" x="616.597656"/>
     </g>
    </g>
    <g id="line2d_30">
     <path d="M 127.8 125.287187 
L 141.8 125.287187 
L 155.8 125.287187 
" style="fill: none; stroke: #fc4f30; stroke-width: 4"/>
    </g>
    <g id="text_15">
     <!-- Exponential Smoothing a = 0.2 -->
     <g transform="translate(167 130.187187) scale(0.14 -0.14)">
      <defs>
       <path id="DejaVuSans-45" d="M 628 4666 
L 3578 4666 
L 3578 4134 
L 1259 4134 
L 1259 2753 
L 3481 2753 
L 3481 2222 
L 1259 2222 
L 1259 531 
L 3634 531 
L 3634 0 
L 628 0 
L 628 4666 
z
" transform="scale(0.015625)"/>
       <path id="DejaVuSans-78" d="M 3513 3500 
L 2247 1797 
L 3578 0 
L 2900 0 
L 1881 1375 
L 863 0 
L 184 0 
L 1544 1831 
L 300 3500 
L 978 3500 
L 1906 2253 
L 2834 3500 
L 3513 3500 
z
" transform="scale(0.015625)"/>
       <path id="DejaVuSans-70" d="M 1159 525 
L 1159 -1331 
L 581 -1331 
L 581 3500 
L 1159 3500 
L 1159 2969 
Q 1341 3281 1617 3432 
Q 1894 3584 2278 3584 
Q 2916 3584 3314 3078 
Q 3713 2572 3713 1747 
Q 3713 922 3314 415 
Q 2916 -91 2278 -91 
Q 1894 -91 1617 61 
Q 1341 213 1159 525 
z
M 3116 1747 
Q 3116 2381 2855 2742 
Q 2594 3103 2138 3103 
Q 1681 3103 1420 2742 
Q 1159 2381 1159 1747 
Q 1159 1113 1420 752 
Q 1681 391 2138 391 
Q 2594 391 2855 752 
Q 3116 1113 3116 1747 
z
" transform="scale(0.015625)"/>
       <path id="DejaVuSans-65" d="M 3597 1894 
L 3597 1613 
L 953 1613 
Q 991 1019 1311 708 
Q 1631 397 2203 397 
Q 2534 397 2845 478 
Q 3156 559 3463 722 
L 3463 178 
Q 3153 47 2828 -22 
Q 2503 -91 2169 -91 
Q 1331 -91 842 396 
Q 353 884 353 1716 
Q 353 2575 817 3079 
Q 1281 3584 2069 3584 
Q 2775 3584 3186 3129 
Q 3597 2675 3597 1894 
z
M 3022 2063 
Q 3016 2534 2758 2815 
Q 2500 3097 2075 3097 
Q 1594 3097 1305 2825 
Q 1016 2553 972 2059 
L 3022 2063 
z
" transform="scale(0.015625)"/>
       <path id="DejaVuSans-74" d="M 1172 4494 
L 1172 3500 
L 2356 3500 
L 2356 3053 
L 1172 3053 
L 1172 1153 
Q 1172 725 1289 603 
Q 1406 481 1766 481 
L 2356 481 
L 2356 0 
L 1766 0 
Q 1100 0 847 248 
Q 594 497 594 1153 
L 594 3053 
L 172 3053 
L 172 3500 
L 594 3500 
L 594 4494 
L 1172 4494 
z
" transform="scale(0.015625)"/>
       <path id="DejaVuSans-69" d="M 603 3500 
L 1178 3500 
L 1178 0 
L 603 0 
L 603 3500 
z
M 603 4863 
L 1178 4863 
L 1178 4134 
L 603 4134 
L 603 4863 
z
" transform="scale(0.015625)"/>
       <path id="DejaVuSans-53" d="M 3425 4513 
L 3425 3897 
Q 3066 4069 2747 4153 
Q 2428 4238 2131 4238 
Q 1616 4238 1336 4038 
Q 1056 3838 1056 3469 
Q 1056 3159 1242 3001 
Q 1428 2844 1947 2747 
L 2328 2669 
Q 3034 2534 3370 2195 
Q 3706 1856 3706 1288 
Q 3706 609 3251 259 
Q 2797 -91 1919 -91 
Q 1588 -91 1214 -16 
Q 841 59 441 206 
L 441 856 
Q 825 641 1194 531 
Q 1563 422 1919 422 
Q 2459 422 2753 634 
Q 3047 847 3047 1241 
Q 3047 1584 2836 1778 
Q 2625 1972 2144 2069 
L 1759 2144 
Q 1053 2284 737 2584 
Q 422 2884 422 3419 
Q 422 4038 858 4394 
Q 1294 4750 2059 4750 
Q 2388 4750 2728 4690 
Q 3069 4631 3425 4513 
z
" transform="scale(0.015625)"/>
       <path id="DejaVuSans-68" d="M 3513 2113 
L 3513 0 
L 2938 0 
L 2938 2094 
Q 2938 2591 2744 2837 
Q 2550 3084 2163 3084 
Q 1697 3084 1428 2787 
Q 1159 2491 1159 1978 
L 1159 0 
L 581 0 
L 581 4863 
L 1159 4863 
L 1159 2956 
Q 1366 3272 1645 3428 
Q 1925 3584 2291 3584 
Q 2894 3584 3203 3211 
Q 3513 2838 3513 2113 
z
" transform="scale(0.015625)"/>
       <path id="DejaVuSans-67" d="M 2906 1791 
Q 2906 2416 2648 2759 
Q 2391 3103 1925 3103 
Q 1463 3103 1205 2759 
Q 947 2416 947 1791 
Q 947 1169 1205 825 
Q 1463 481 1925 481 
Q 2391 481 2648 825 
Q 2906 1169 2906 1791 
z
M 3481 434 
Q 3481 -459 3084 -895 
Q 2688 -1331 1869 -1331 
Q 1566 -1331 1297 -1286 
Q 1028 -1241 775 -1147 
L 775 -588 
Q 1028 -725 1275 -790 
Q 1522 -856 1778 -856 
Q 2344 -856 2625 -561 
Q 2906 -266 2906 331 
L 2906 616 
Q 2728 306 2450 153 
Q 2172 0 1784 0 
Q 1141 0 747 490 
Q 353 981 353 1791 
Q 353 2603 747 3093 
Q 1141 3584 1784 3584 
Q 2172 3584 2450 3431 
Q 2728 3278 2906 2969 
L 2906 3500 
L 3481 3500 
L 3481 434 
z
" transform="scale(0.015625)"/>
       <path id="DejaVuSans-3d" d="M 678 2906 
L 4684 2906 
L 4684 2381 
L 678 2381 
L 678 2906 
z
M 678 1631 
L 4684 1631 
L 4684 1100 
L 678 1100 
L 678 1631 
z
" transform="scale(0.015625)"/>
       <path id="DejaVuSans-2e" d="M 684 794 
L 1344 794 
L 1344 0 
L 684 0 
L 684 794 
z
" transform="scale(0.015625)"/>
      </defs>
      <use xlink:href="#DejaVuSans-45"/>
      <use xlink:href="#DejaVuSans-78" x="63.183594"/>
      <use xlink:href="#DejaVuSans-70" x="122.363281"/>
      <use xlink:href="#DejaVuSans-6f" x="185.839844"/>
      <use xlink:href="#DejaVuSans-6e" x="247.021484"/>
      <use xlink:href="#DejaVuSans-65" x="310.400391"/>
      <use xlink:href="#DejaVuSans-6e" x="371.923828"/>
      <use xlink:href="#DejaVuSans-74" x="435.302734"/>
      <use xlink:href="#DejaVuSans-69" x="474.511719"/>
      <use xlink:href="#DejaVuSans-61" x="502.294922"/>
      <use xlink:href="#DejaVuSans-6c" x="563.574219"/>
      <use xlink:href="#DejaVuSans-20" x="591.357422"/>
      <use xlink:href="#DejaVuSans-53" x="623.144531"/>
      <use xlink:href="#DejaVuSans-6d" x="686.621094"/>
      <use xlink:href="#DejaVuSans-6f" x="784.033203"/>
      <use xlink:href="#DejaVuSans-6f" x="845.214844"/>
      <use xlink:href="#DejaVuSans-74" x="906.396484"/>
      <use xlink:href="#DejaVuSans-68" x="945.605469"/>
      <use xlink:href="#DejaVuSans-69" x="1008.984375"/>
      <use xlink:href="#DejaVuSans-6e" x="1036.767578"/>
      <use xlink:href="#DejaVuSans-67" x="1100.146484"/>
      <use xlink:href="#DejaVuSans-20" x="1163.623047"/>
      <use xlink:href="#DejaVuSans-61" x="1195.410156"/>
      <use xlink:href="#DejaVuSans-20" x="1256.689453"/>
      <use xlink:href="#DejaVuSans-3d" x="1288.476562"/>
      <use xlink:href="#DejaVuSans-20" x="1372.265625"/>
      <use xlink:href="#DejaVuSans-30" x="1404.052734"/>
      <use xlink:href="#DejaVuSans-2e" x="1467.675781"/>
      <use xlink:href="#DejaVuSans-32" x="1499.462891"/>
     </g>
    </g>
   </g>
  </g>
 </g>
 <defs>
  <clipPath id="pa53585fe1e">
   <rect x="115.2" y="86.4" width="1252.8" height="583.2"/>
  </clipPath>
 </defs>
</svg>
