<?xml version="1.0" encoding="utf-8" standalone="no"?>
<!DOCTYPE svg PUBLIC "-//W3C//DTD SVG 1.1//EN"
  "http://www.w3.org/Graphics/SVG/1.1/DTD/svg11.dtd">
<svg xmlns:xlink="http://www.w3.org/1999/xlink" width="1440pt" height="720pt" viewBox="0 0 1440 720" xmlns="http://www.w3.org/2000/svg" version="1.1">
 <metadata>
  <rdf:RDF xmlns:dc="http://purl.org/dc/elements/1.1/" xmlns:cc="http://creativecommons.org/ns#" xmlns:rdf="http://www.w3.org/1999/02/22-rdf-syntax-ns#">
   <cc:Work>
    <dc:type rdf:resource="http://purl.org/dc/dcmitype/StillImage"/>
    <dc:date>2023-04-30T18:15:02.461455</dc:date>
    <dc:format>image/svg+xml</dc:format>
    <dc:creator>
     <cc:Agent>
      <dc:title>Matplotlib v3.6.3, https://matplotlib.org/</dc:title>
     </cc:Agent>
    </dc:creator>
   </cc:Work>
  </rdf:RDF>
 </metadata>
 <defs>
  <style type="text/css">*{stroke-linejoin: round; stroke-linecap: butt}</style>
 </defs>
 <g id="figure_1">
  <g id="patch_1">
   <path d="M 0 720 
L 1440 720 
L 1440 0 
L 0 0 
L 0 720 
z
" style="fill: none"/>
  </g>
  <g id="axes_1">
   <g id="patch_2">
    <path d="M 115.2 669.6 
L 1368 669.6 
L 1368 86.4 
L 115.2 86.4 
L 115.2 669.6 
z
" style="fill: none"/>
   </g>
   <g id="matplotlib.axis_1">
    <g id="xtick_1">
     <g id="line2d_1">
      <path d="M 172.145455 669.6 
L 172.145455 86.4 
" clip-path="url(#p1b2c107f3b)" style="fill: none; stroke: #cbcbcb"/>
     </g>
     <g id="line2d_2"/>
     <g id="text_1">
      <!-- 0 -->
      <g transform="translate(167.691705 683.737813) scale(0.14 -0.14)">
       <defs>
        <path id="DejaVuSans-30" d="M 2034 4250 
Q 1547 4250 1301 3770 
Q 1056 3291 1056 2328 
Q 1056 1369 1301 889 
Q 1547 409 2034 409 
Q 2525 409 2770 889 
Q 3016 1369 3016 2328 
Q 3016 3291 2770 3770 
Q 2525 4250 2034 4250 
z
M 2034 4750 
Q 2819 4750 3233 4129 
Q 3647 3509 3647 2328 
Q 3647 1150 3233 529 
Q 2819 -91 2034 -91 
Q 1250 -91 836 529 
Q 422 1150 422 2328 
Q 422 3509 836 4129 
Q 1250 4750 2034 4750 
z
" transform="scale(0.015625)"/>
       </defs>
       <use xlink:href="#DejaVuSans-30"/>
      </g>
     </g>
    </g>
    <g id="xtick_2">
     <g id="line2d_3">
      <path d="M 400.155283 669.6 
L 400.155283 86.4 
" clip-path="url(#p1b2c107f3b)" style="fill: none; stroke: #cbcbcb"/>
     </g>
     <g id="line2d_4"/>
     <g id="text_2">
      <!-- 200 -->
      <g transform="translate(386.794033 683.737813) scale(0.14 -0.14)">
       <defs>
        <path id="DejaVuSans-32" d="M 1228 531 
L 3431 531 
L 3431 0 
L 469 0 
L 469 531 
Q 828 903 1448 1529 
Q 2069 2156 2228 2338 
Q 2531 2678 2651 2914 
Q 2772 3150 2772 3378 
Q 2772 3750 2511 3984 
Q 2250 4219 1831 4219 
Q 1534 4219 1204 4116 
Q 875 4013 500 3803 
L 500 4441 
Q 881 4594 1212 4672 
Q 1544 4750 1819 4750 
Q 2544 4750 2975 4387 
Q 3406 4025 3406 3419 
Q 3406 3131 3298 2873 
Q 3191 2616 2906 2266 
Q 2828 2175 2409 1742 
Q 1991 1309 1228 531 
z
" transform="scale(0.015625)"/>
       </defs>
       <use xlink:href="#DejaVuSans-32"/>
       <use xlink:href="#DejaVuSans-30" x="63.623047"/>
       <use xlink:href="#DejaVuSans-30" x="127.246094"/>
      </g>
     </g>
    </g>
    <g id="xtick_3">
     <g id="line2d_5">
      <path d="M 628.165111 669.6 
L 628.165111 86.4 
" clip-path="url(#p1b2c107f3b)" style="fill: none; stroke: #cbcbcb"/>
     </g>
     <g id="line2d_6"/>
     <g id="text_3">
      <!-- 400 -->
      <g transform="translate(614.803861 683.737813) scale(0.14 -0.14)">
       <defs>
        <path id="DejaVuSans-34" d="M 2419 4116 
L 825 1625 
L 2419 1625 
L 2419 4116 
z
M 2253 4666 
L 3047 4666 
L 3047 1625 
L 3713 1625 
L 3713 1100 
L 3047 1100 
L 3047 0 
L 2419 0 
L 2419 1100 
L 313 1100 
L 313 1709 
L 2253 4666 
z
" transform="scale(0.015625)"/>
       </defs>
       <use xlink:href="#DejaVuSans-34"/>
       <use xlink:href="#DejaVuSans-30" x="63.623047"/>
       <use xlink:href="#DejaVuSans-30" x="127.246094"/>
      </g>
     </g>
    </g>
    <g id="xtick_4">
     <g id="line2d_7">
      <path d="M 856.174939 669.6 
L 856.174939 86.4 
" clip-path="url(#p1b2c107f3b)" style="fill: none; stroke: #cbcbcb"/>
     </g>
     <g id="line2d_8"/>
     <g id="text_4">
      <!-- 600 -->
      <g transform="translate(842.813689 683.737813) scale(0.14 -0.14)">
       <defs>
        <path id="DejaVuSans-36" d="M 2113 2584 
Q 1688 2584 1439 2293 
Q 1191 2003 1191 1497 
Q 1191 994 1439 701 
Q 1688 409 2113 409 
Q 2538 409 2786 701 
Q 3034 994 3034 1497 
Q 3034 2003 2786 2293 
Q 2538 2584 2113 2584 
z
M 3366 4563 
L 3366 3988 
Q 3128 4100 2886 4159 
Q 2644 4219 2406 4219 
Q 1781 4219 1451 3797 
Q 1122 3375 1075 2522 
Q 1259 2794 1537 2939 
Q 1816 3084 2150 3084 
Q 2853 3084 3261 2657 
Q 3669 2231 3669 1497 
Q 3669 778 3244 343 
Q 2819 -91 2113 -91 
Q 1303 -91 875 529 
Q 447 1150 447 2328 
Q 447 3434 972 4092 
Q 1497 4750 2381 4750 
Q 2619 4750 2861 4703 
Q 3103 4656 3366 4563 
z
" transform="scale(0.015625)"/>
       </defs>
       <use xlink:href="#DejaVuSans-36"/>
       <use xlink:href="#DejaVuSans-30" x="63.623047"/>
       <use xlink:href="#DejaVuSans-30" x="127.246094"/>
      </g>
     </g>
    </g>
    <g id="xtick_5">
     <g id="line2d_9">
      <path d="M 1084.184767 669.6 
L 1084.184767 86.4 
" clip-path="url(#p1b2c107f3b)" style="fill: none; stroke: #cbcbcb"/>
     </g>
     <g id="line2d_10"/>
     <g id="text_5">
      <!-- 800 -->
      <g transform="translate(1070.823517 683.737813) scale(0.14 -0.14)">
       <defs>
        <path id="DejaVuSans-38" d="M 2034 2216 
Q 1584 2216 1326 1975 
Q 1069 1734 1069 1313 
Q 1069 891 1326 650 
Q 1584 409 2034 409 
Q 2484 409 2743 651 
Q 3003 894 3003 1313 
Q 3003 1734 2745 1975 
Q 2488 2216 2034 2216 
z
M 1403 2484 
Q 997 2584 770 2862 
Q 544 3141 544 3541 
Q 544 4100 942 4425 
Q 1341 4750 2034 4750 
Q 2731 4750 3128 4425 
Q 3525 4100 3525 3541 
Q 3525 3141 3298 2862 
Q 3072 2584 2669 2484 
Q 3125 2378 3379 2068 
Q 3634 1759 3634 1313 
Q 3634 634 3220 271 
Q 2806 -91 2034 -91 
Q 1263 -91 848 271 
Q 434 634 434 1313 
Q 434 1759 690 2068 
Q 947 2378 1403 2484 
z
M 1172 3481 
Q 1172 3119 1398 2916 
Q 1625 2713 2034 2713 
Q 2441 2713 2670 2916 
Q 2900 3119 2900 3481 
Q 2900 3844 2670 4047 
Q 2441 4250 2034 4250 
Q 1625 4250 1398 4047 
Q 1172 3844 1172 3481 
z
" transform="scale(0.015625)"/>
       </defs>
       <use xlink:href="#DejaVuSans-38"/>
       <use xlink:href="#DejaVuSans-30" x="63.623047"/>
       <use xlink:href="#DejaVuSans-30" x="127.246094"/>
      </g>
     </g>
    </g>
    <g id="xtick_6">
     <g id="line2d_11">
      <path d="M 1312.194595 669.6 
L 1312.194595 86.4 
" clip-path="url(#p1b2c107f3b)" style="fill: none; stroke: #cbcbcb"/>
     </g>
     <g id="line2d_12"/>
     <g id="text_6">
      <!-- 1000 -->
      <g transform="translate(1294.379595 683.737813) scale(0.14 -0.14)">
       <defs>
        <path id="DejaVuSans-31" d="M 794 531 
L 1825 531 
L 1825 4091 
L 703 3866 
L 703 4441 
L 1819 4666 
L 2450 4666 
L 2450 531 
L 3481 531 
L 3481 0 
L 794 0 
L 794 531 
z
" transform="scale(0.015625)"/>
       </defs>
       <use xlink:href="#DejaVuSans-31"/>
       <use xlink:href="#DejaVuSans-30" x="63.623047"/>
       <use xlink:href="#DejaVuSans-30" x="127.246094"/>
       <use xlink:href="#DejaVuSans-30" x="190.869141"/>
      </g>
     </g>
    </g>
   </g>
   <g id="matplotlib.axis_2">
    <g id="ytick_1">
     <g id="line2d_13">
      <path d="M 115.2 596.990861 
L 1368 596.990861 
" clip-path="url(#p1b2c107f3b)" style="fill: none; stroke: #cbcbcb"/>
     </g>
     <g id="line2d_14"/>
     <g id="text_7">
      <!-- −3 -->
      <g transform="translate(91.060937 602.309767) scale(0.14 -0.14)">
       <defs>
        <path id="DejaVuSans-2212" d="M 678 2272 
L 4684 2272 
L 4684 1741 
L 678 1741 
L 678 2272 
z
" transform="scale(0.015625)"/>
        <path id="DejaVuSans-33" d="M 2597 2516 
Q 3050 2419 3304 2112 
Q 3559 1806 3559 1356 
Q 3559 666 3084 287 
Q 2609 -91 1734 -91 
Q 1441 -91 1130 -33 
Q 819 25 488 141 
L 488 750 
Q 750 597 1062 519 
Q 1375 441 1716 441 
Q 2309 441 2620 675 
Q 2931 909 2931 1356 
Q 2931 1769 2642 2001 
Q 2353 2234 1838 2234 
L 1294 2234 
L 1294 2753 
L 1863 2753 
Q 2328 2753 2575 2939 
Q 2822 3125 2822 3475 
Q 2822 3834 2567 4026 
Q 2313 4219 1838 4219 
Q 1578 4219 1281 4162 
Q 984 4106 628 3988 
L 628 4550 
Q 988 4650 1302 4700 
Q 1616 4750 1894 4750 
Q 2613 4750 3031 4423 
Q 3450 4097 3450 3541 
Q 3450 3153 3228 2886 
Q 3006 2619 2597 2516 
z
" transform="scale(0.015625)"/>
       </defs>
       <use xlink:href="#DejaVuSans-2212"/>
       <use xlink:href="#DejaVuSans-33" x="83.789062"/>
      </g>
     </g>
    </g>
    <g id="ytick_2">
     <g id="line2d_15">
      <path d="M 115.2 518.407766 
L 1368 518.407766 
" clip-path="url(#p1b2c107f3b)" style="fill: none; stroke: #cbcbcb"/>
     </g>
     <g id="line2d_16"/>
     <g id="text_8">
      <!-- −2 -->
      <g transform="translate(91.060937 523.726672) scale(0.14 -0.14)">
       <use xlink:href="#DejaVuSans-2212"/>
       <use xlink:href="#DejaVuSans-32" x="83.789062"/>
      </g>
     </g>
    </g>
    <g id="ytick_3">
     <g id="line2d_17">
      <path d="M 115.2 439.824671 
L 1368 439.824671 
" clip-path="url(#p1b2c107f3b)" style="fill: none; stroke: #cbcbcb"/>
     </g>
     <g id="line2d_18"/>
     <g id="text_9">
      <!-- −1 -->
      <g transform="translate(91.060937 445.143577) scale(0.14 -0.14)">
       <use xlink:href="#DejaVuSans-2212"/>
       <use xlink:href="#DejaVuSans-31" x="83.789062"/>
      </g>
     </g>
    </g>
    <g id="ytick_4">
     <g id="line2d_19">
      <path d="M 115.2 361.241576 
L 1368 361.241576 
" clip-path="url(#p1b2c107f3b)" style="fill: none; stroke: #cbcbcb"/>
     </g>
     <g id="line2d_20"/>
     <g id="text_10">
      <!-- 0 -->
      <g transform="translate(102.7925 366.560482) scale(0.14 -0.14)">
       <use xlink:href="#DejaVuSans-30"/>
      </g>
     </g>
    </g>
    <g id="ytick_5">
     <g id="line2d_21">
      <path d="M 115.2 282.658481 
L 1368 282.658481 
" clip-path="url(#p1b2c107f3b)" style="fill: none; stroke: #cbcbcb"/>
     </g>
     <g id="line2d_22"/>
     <g id="text_11">
      <!-- 1 -->
      <g transform="translate(102.7925 287.977387) scale(0.14 -0.14)">
       <use xlink:href="#DejaVuSans-31"/>
      </g>
     </g>
    </g>
    <g id="ytick_6">
     <g id="line2d_23">
      <path d="M 115.2 204.075386 
L 1368 204.075386 
" clip-path="url(#p1b2c107f3b)" style="fill: none; stroke: #cbcbcb"/>
     </g>
     <g id="line2d_24"/>
     <g id="text_12">
      <!-- 2 -->
      <g transform="translate(102.7925 209.394292) scale(0.14 -0.14)">
       <use xlink:href="#DejaVuSans-32"/>
      </g>
     </g>
    </g>
    <g id="ytick_7">
     <g id="line2d_25">
      <path d="M 115.2 125.492291 
L 1368 125.492291 
" clip-path="url(#p1b2c107f3b)" style="fill: none; stroke: #cbcbcb"/>
     </g>
     <g id="line2d_26"/>
     <g id="text_13">
      <!-- 3 -->
      <g transform="translate(102.7925 130.811197) scale(0.14 -0.14)">
       <use xlink:href="#DejaVuSans-33"/>
      </g>
     </g>
    </g>
   </g>
   <g id="line2d_27">
    <path d="M 172.145455 432.405309 
L 173.285504 347.476756 
L 174.425553 348.27932 
L 175.565602 452.837611 
L 176.705651 347.434897 
L 177.8457 470.703785 
L 178.985749 168.188874 
L 180.125799 448.133282 
L 181.265848 291.053903 
L 182.405897 465.235232 
L 183.545946 192.322332 
L 184.685995 171.649488 
L 185.826044 432.468733 
L 186.966093 229.652284 
L 188.106143 332.014335 
L 189.246192 264.770728 
L 190.386241 370.618374 
L 191.52629 238.520996 
L 192.666339 267.750523 
L 193.806388 359.281574 
L 194.946437 404.995267 
L 196.086486 384.860615 
L 197.226536 242.951017 
L 198.366585 446.567998 
L 199.506634 408.851716 
L 200.646683 278.587711 
L 201.786732 447.868748 
L 202.926781 350.711697 
L 204.06683 457.129389 
L 205.20688 429.857488 
L 206.346929 343.110689 
L 207.486978 391.145669 
L 208.627027 312.71597 
L 209.767076 371.538667 
L 210.907125 390.503536 
L 212.047174 282.512536 
L 213.187224 251.821512 
L 214.327273 351.674128 
L 215.467322 265.367491 
L 216.607371 421.817315 
L 217.74742 426.038134 
L 218.887469 360.288394 
L 220.027518 230.938852 
L 221.167568 246.533646 
L 222.307617 378.911292 
L 223.447666 643.090909 
L 224.587715 321.387568 
L 225.727764 330.490606 
L 226.867813 490.036326 
L 228.007862 237.338686 
L 229.147912 274.465919 
L 230.287961 326.213161 
L 231.42801 275.031504 
L 232.568059 441.66341 
L 233.708108 425.100222 
L 234.848157 212.838538 
L 235.988206 308.407164 
L 237.128256 483.854499 
L 238.268305 234.605312 
L 239.408354 383.745274 
L 240.548403 468.014979 
L 241.688452 360.121781 
L 242.828501 392.997523 
L 243.96855 430.255059 
L 245.1086 300.356876 
L 246.248649 532.743851 
L 247.388698 466.34337 
L 248.528747 265.487461 
L 249.668796 308.876383 
L 250.808845 300.420123 
L 251.948894 527.656862 
L 253.088943 344.596171 
L 254.228993 414.333415 
L 255.369042 306.304949 
L 256.509091 259.229262 
L 257.64914 365.48259 
L 258.789189 303.731691 
L 259.929238 414.50967 
L 261.069287 403.922743 
L 262.209337 395.800681 
L 263.349386 267.85095 
L 264.489435 292.112035 
L 265.629484 398.20701 
L 266.769533 517.619149 
L 267.909582 215.141781 
L 269.049631 435.792008 
L 270.189681 278.460518 
L 271.32973 436.700881 
L 272.469779 305.608399 
L 273.609828 131.031296 
L 274.749877 407.477314 
L 275.889926 389.096195 
L 277.029975 304.520914 
L 278.170025 469.726937 
L 279.310074 410.996367 
L 280.450123 284.478184 
L 281.590172 315.004878 
L 282.730221 321.859265 
L 283.87027 336.250039 
L 285.010319 319.824334 
L 286.150369 322.945249 
L 287.290418 380.002213 
L 288.430467 411.601485 
L 289.570516 316.89645 
L 290.710565 308.903479 
L 291.850614 413.91662 
L 292.990663 267.357813 
L 294.130713 465.847268 
L 295.270762 367.933845 
L 296.410811 458.352357 
L 297.55086 402.926394 
L 298.690909 295.324421 
L 299.830958 363.501303 
L 300.971007 370.130914 
L 302.111057 472.472328 
L 303.251106 465.619683 
L 304.391155 265.545789 
L 305.531204 459.116675 
L 306.671253 287.100858 
L 307.811302 419.68096 
L 308.951351 482.626189 
L 310.0914 325.046236 
L 311.23145 379.866154 
L 312.371499 332.479652 
L 313.511548 321.285085 
L 314.651597 395.634362 
L 315.791646 427.233982 
L 316.931695 327.877931 
L 318.071744 441.699385 
L 319.211794 326.988848 
L 320.351843 328.635534 
L 321.491892 403.661572 
L 322.631941 505.536692 
L 323.77199 346.025147 
L 324.912039 335.579084 
L 326.052088 312.209279 
L 327.192138 321.644224 
L 328.332187 402.24412 
L 329.472236 343.918241 
L 330.612285 386.874104 
L 331.752334 457.096603 
L 332.892383 437.278097 
L 334.032432 228.613572 
L 335.172482 256.710645 
L 336.312531 347.975031 
L 337.45258 428.294747 
L 338.592629 375.623198 
L 339.732678 208.927668 
L 340.872727 389.604516 
L 342.012776 404.762591 
L 343.152826 436.066342 
L 344.292875 294.463175 
L 345.432924 324.86111 
L 346.572973 244.099349 
L 347.713022 330.662317 
L 349.99312 250.142025 
L 351.13317 218.700291 
L 352.273219 394.173355 
L 353.413268 167.42833 
L 354.553317 337.761791 
L 355.693366 366.410411 
L 356.833415 243.257177 
L 357.973464 421.420996 
L 359.113514 254.686759 
L 360.253563 347.97139 
L 361.393612 306.976911 
L 362.533661 445.859086 
L 363.67371 255.042204 
L 364.813759 411.915571 
L 365.953808 293.379933 
L 367.093857 378.765235 
L 368.233907 356.518079 
L 369.373956 567.019846 
L 370.514005 389.699081 
L 371.654054 343.865298 
L 372.794103 358.08958 
L 373.934152 337.502144 
L 375.074201 362.742199 
L 376.214251 419.445606 
L 377.3543 328.354914 
L 378.494349 315.10396 
L 379.634398 429.79084 
L 380.774447 279.8091 
L 381.914496 380.667836 
L 383.054545 406.488685 
L 384.194595 319.043544 
L 385.334644 254.201059 
L 386.474693 405.941718 
L 387.614742 348.75068 
L 388.754791 319.609127 
L 389.89484 311.38047 
L 391.034889 318.221322 
L 392.174939 402.581346 
L 394.455037 194.491022 
L 395.595086 361.953998 
L 396.735135 262.890974 
L 397.875184 413.713263 
L 399.015233 359.798835 
L 400.155283 352.598675 
L 401.295332 465.446409 
L 402.435381 176.139618 
L 403.57543 370.620494 
L 404.715479 352.25871 
L 405.855528 401.342868 
L 406.995577 259.323252 
L 408.135627 251.493093 
L 409.275676 484.723348 
L 410.415725 342.010645 
L 411.555774 406.130269 
L 412.695823 370.031759 
L 413.835872 447.558927 
L 414.975921 277.130593 
L 416.115971 312.052756 
L 417.25602 468.651011 
L 418.396069 364.002988 
L 419.536118 312.287443 
L 420.676167 453.237548 
L 421.816216 438.497377 
L 422.956265 418.501121 
L 424.096314 328.58366 
L 425.236364 323.914114 
L 426.376413 344.642 
L 427.516462 483.108773 
L 428.656511 422.301613 
L 429.79656 293.316916 
L 430.936609 312.465556 
L 432.076658 256.835 
L 433.216708 343.483692 
L 434.356757 360.508628 
L 435.496806 362.682486 
L 436.636855 405.290313 
L 437.776904 413.167341 
L 438.916953 350.866967 
L 441.197052 527.088842 
L 442.337101 247.974862 
L 443.47715 416.991486 
L 444.617199 408.192669 
L 445.757248 240.819202 
L 446.897297 461.878522 
L 448.037346 404.433189 
L 449.177396 216.08989 
L 450.317445 348.452135 
L 451.457494 382.798312 
L 452.597543 231.048739 
L 453.737592 221.31509 
L 454.877641 343.782637 
L 456.01769 440.422342 
L 457.15774 348.293068 
L 458.297789 483.003159 
L 459.437838 367.733992 
L 460.577887 496.613413 
L 461.717936 474.138884 
L 462.857985 352.892113 
L 463.998034 200.408929 
L 465.138084 472.923007 
L 466.278133 433.533749 
L 467.418182 249.327229 
L 468.558231 400.823262 
L 469.69828 445.48496 
L 470.838329 357.611665 
L 471.978378 259.440988 
L 473.118428 419.916455 
L 474.258477 437.160009 
L 475.398526 450.816773 
L 476.538575 386.032673 
L 477.678624 305.466909 
L 478.818673 376.081894 
L 479.958722 360.122912 
L 481.098771 395.508697 
L 482.238821 287.835501 
L 483.37887 490.629219 
L 484.518919 361.280598 
L 485.658968 166.456804 
L 486.799017 437.630109 
L 487.939066 437.662342 
L 490.219165 343.731675 
L 491.359214 337.037821 
L 492.499263 314.58862 
L 493.639312 317.864086 
L 494.779361 326.072127 
L 495.91941 456.195025 
L 497.059459 274.744928 
L 498.199509 311.541857 
L 499.339558 487.629198 
L 500.479607 459.503089 
L 501.619656 350.408022 
L 502.759705 487.467667 
L 503.899754 172.057076 
L 505.039803 367.676166 
L 506.179853 357.570329 
L 507.319902 232.566862 
L 508.459951 372.224143 
L 509.6 365.130453 
L 510.740049 476.282985 
L 511.880098 384.068416 
L 513.020147 333.538406 
L 514.160197 343.831141 
L 515.300246 404.666698 
L 516.440295 526.175455 
L 517.580344 350.455848 
L 518.720393 112.909091 
L 519.860442 456.098715 
L 521.000491 332.200907 
L 522.140541 434.302633 
L 523.28059 369.949422 
L 524.420639 343.124863 
L 525.560688 345.966197 
L 526.700737 278.07548 
L 527.840786 371.106759 
L 528.980835 256.634741 
L 530.120885 310.808811 
L 531.260934 398.195472 
L 532.400983 338.950529 
L 533.541032 320.151145 
L 534.681081 313.668535 
L 535.82113 356.739182 
L 536.961179 334.710354 
L 538.101229 331.42565 
L 539.241278 286.929903 
L 540.381327 361.886364 
L 541.521376 276.833561 
L 542.661425 386.753275 
L 543.801474 337.833396 
L 544.941523 332.214305 
L 546.081572 395.387296 
L 547.221622 420.836693 
L 548.361671 420.993524 
L 549.50172 349.328826 
L 550.641769 305.202189 
L 551.781818 365.93493 
L 552.921867 419.341763 
L 554.061916 529.173055 
L 555.201966 456.383813 
L 556.342015 157.825474 
L 557.482064 370.931605 
L 558.622113 362.02956 
L 559.762162 262.767461 
L 560.902211 400.111869 
L 562.04226 336.21548 
L 563.18231 339.649038 
L 564.322359 442.811228 
L 565.462408 441.805322 
L 566.602457 419.642495 
L 567.742506 391.596432 
L 570.022604 407.042723 
L 571.162654 278.162054 
L 572.302703 338.195664 
L 573.442752 498.151249 
L 574.582801 267.895508 
L 575.72285 420.357026 
L 576.862899 450.83617 
L 578.002948 415.817247 
L 579.142998 312.42239 
L 580.283047 250.851231 
L 581.423096 458.364989 
L 582.563145 299.024195 
L 583.703194 569.786204 
L 584.843243 468.400331 
L 585.983292 158.567104 
L 587.123342 301.095815 
L 588.263391 320.022676 
L 589.40344 391.858007 
L 590.543489 342.725908 
L 591.683538 280.614514 
L 592.823587 359.434087 
L 593.963636 285.913696 
L 595.103686 466.88228 
L 596.243735 397.203707 
L 597.383784 450.678803 
L 598.523833 337.038436 
L 599.663882 438.747489 
L 600.803931 328.508121 
L 601.94398 539.642659 
L 603.084029 391.355769 
L 604.224079 367.471349 
L 605.364128 378.905007 
L 606.504177 359.396023 
L 607.644226 394.140003 
L 608.784275 244.829778 
L 609.924324 379.435797 
L 611.064373 226.810015 
L 612.204423 349.596986 
L 613.344472 514.371056 
L 614.484521 414.250216 
L 615.62457 273.708068 
L 616.764619 458.165491 
L 617.904668 329.231167 
L 619.044717 166.702556 
L 620.184767 334.914726 
L 621.324816 472.293494 
L 622.464865 305.905036 
L 623.604914 394.819079 
L 624.744963 496.998078 
L 625.885012 220.000957 
L 627.025061 546.593399 
L 628.165111 389.662291 
L 629.30516 315.219445 
L 630.445209 376.686518 
L 631.585258 297.902649 
L 632.725307 435.951365 
L 633.865356 389.078215 
L 635.005405 295.17835 
L 636.145455 333.315336 
L 637.285504 306.804943 
L 639.565602 479.417255 
L 640.705651 496.404068 
L 641.8457 328.541849 
L 642.985749 270.102308 
L 644.125799 323.381192 
L 645.265848 211.667744 
L 646.405897 412.145354 
L 647.545946 384.657263 
L 648.685995 428.650134 
L 649.826044 428.030636 
L 650.966093 516.695265 
L 652.106143 468.791528 
L 653.246192 298.497181 
L 654.386241 299.261322 
L 655.52629 366.555639 
L 656.666339 387.693634 
L 657.806388 321.414343 
L 658.946437 310.324627 
L 660.086486 491.909089 
L 661.226536 410.075743 
L 663.506634 229.698852 
L 664.646683 252.728427 
L 665.786732 213.388743 
L 666.926781 567.124674 
L 668.06683 378.585203 
L 669.20688 345.615998 
L 670.346929 395.058396 
L 671.486978 421.921654 
L 672.627027 371.612726 
L 673.767076 439.648594 
L 674.907125 225.735799 
L 676.047174 385.466594 
L 677.187224 448.077022 
L 678.327273 434.521301 
L 679.467322 178.061736 
L 680.607371 406.13548 
L 681.74742 427.84836 
L 682.887469 365.742482 
L 684.027518 357.615369 
L 685.167568 357.782813 
L 686.307617 427.790663 
L 687.447666 381.226561 
L 688.587715 495.464391 
L 689.727764 253.271875 
L 690.867813 324.672667 
L 692.007862 428.289667 
L 693.147912 321.372168 
L 694.287961 372.933263 
L 695.42801 337.810882 
L 696.568059 421.621484 
L 697.708108 336.983031 
L 698.848157 460.689518 
L 699.988206 546.85935 
L 701.128256 340.547404 
L 702.268305 573.171702 
L 703.408354 399.036732 
L 704.548403 413.061777 
L 705.688452 288.966589 
L 706.828501 233.921283 
L 707.96855 427.947222 
L 709.1086 322.91956 
L 710.248649 411.302215 
L 711.388698 423.748364 
L 712.528747 283.21103 
L 713.668796 292.969393 
L 714.808845 369.380226 
L 715.948894 268.548781 
L 717.088943 478.474453 
L 718.228993 298.274846 
L 719.369042 239.821379 
L 720.509091 355.767093 
L 721.64914 300.558387 
L 722.789189 460.749306 
L 723.929238 274.657423 
L 725.069287 246.746759 
L 726.209337 395.458962 
L 727.349386 395.321588 
L 728.489435 378.74972 
L 729.629484 297.734479 
L 730.769533 349.459794 
L 731.909582 436.843952 
L 733.049631 386.433797 
L 734.189681 386.824135 
L 735.32973 248.562178 
L 736.469779 328.384408 
L 737.609828 268.364516 
L 738.749877 358.288666 
L 739.889926 317.122442 
L 741.029975 486.440476 
L 742.170025 317.85438 
L 743.310074 467.302222 
L 744.450123 304.653832 
L 745.590172 394.873904 
L 746.730221 363.866683 
L 747.87027 276.669724 
L 749.010319 317.496467 
L 750.150369 128.19757 
L 751.290418 328.102704 
L 752.430467 407.977532 
L 753.570516 380.814999 
L 754.710565 410.15198 
L 755.850614 380.334689 
L 756.990663 415.608889 
L 758.130713 405.812986 
L 759.270762 203.711131 
L 760.410811 336.090443 
L 761.55086 288.13854 
L 762.690909 332.424536 
L 763.830958 403.519943 
L 764.971007 450.859378 
L 766.111057 294.674527 
L 767.251106 209.494449 
L 768.391155 502.521454 
L 769.531204 219.557038 
L 771.811302 444.946974 
L 772.951351 342.076564 
L 774.0914 347.867469 
L 775.23145 244.521044 
L 776.371499 315.246824 
L 777.511548 410.903054 
L 778.651597 411.046302 
L 779.791646 347.767199 
L 780.931695 347.687732 
L 782.071744 456.809215 
L 783.211794 439.516449 
L 784.351843 334.425937 
L 785.491892 293.240158 
L 786.631941 416.407118 
L 787.77199 266.234867 
L 788.912039 327.055461 
L 790.052088 428.714493 
L 791.192138 280.107232 
L 792.332187 344.881146 
L 793.472236 354.105376 
L 794.612285 484.64085 
L 795.752334 335.038671 
L 796.892383 463.291983 
L 798.032432 336.792488 
L 799.172482 354.125011 
L 800.312531 433.678795 
L 801.45258 370.731094 
L 802.592629 222.123759 
L 803.732678 380.477251 
L 804.872727 324.830816 
L 806.012776 328.673657 
L 807.152826 448.025565 
L 808.292875 354.809151 
L 809.432924 418.519063 
L 810.572973 367.547588 
L 811.713022 495.948773 
L 812.853071 370.058198 
L 813.99312 460.238364 
L 815.13317 332.627124 
L 816.273219 389.142109 
L 817.413268 275.196789 
L 818.553317 350.293563 
L 820.833415 248.940474 
L 821.973464 310.507704 
L 823.113514 192.271399 
L 824.253563 421.076907 
L 825.393612 199.177582 
L 826.533661 441.191227 
L 827.67371 423.113546 
L 828.813759 161.598386 
L 829.953808 392.645122 
L 831.093857 301.04817 
L 833.373956 378.260702 
L 834.514005 331.745762 
L 835.654054 441.930735 
L 836.794103 208.2772 
L 837.934152 421.161665 
L 839.074201 509.587937 
L 840.214251 510.518377 
L 841.3543 394.026202 
L 842.494349 356.684719 
L 843.634398 253.064175 
L 844.774447 274.794684 
L 845.914496 273.483174 
L 847.054545 328.173169 
L 848.194595 296.367615 
L 849.334644 290.285355 
L 850.474693 448.258655 
L 851.614742 306.621914 
L 852.754791 437.660641 
L 853.89484 449.974498 
L 855.034889 243.848516 
L 856.174939 361.152354 
L 857.314988 373.740379 
L 858.455037 312.376915 
L 859.595086 383.294461 
L 860.735135 368.750248 
L 861.875184 476.340672 
L 863.015233 356.563514 
L 864.155283 379.378214 
L 865.295332 407.595784 
L 866.435381 396.384834 
L 867.57543 261.774735 
L 868.715479 319.842872 
L 869.855528 335.311309 
L 870.995577 330.805497 
L 872.135627 324.85327 
L 873.275676 375.210493 
L 874.415725 273.471223 
L 875.555774 257.924334 
L 876.695823 436.108961 
L 877.835872 468.862386 
L 878.975921 287.094196 
L 880.115971 427.327068 
L 881.25602 292.137354 
L 882.396069 315.676474 
L 883.536118 322.548489 
L 884.676167 233.271965 
L 885.816216 394.799928 
L 886.956265 321.265047 
L 888.096314 418.504898 
L 889.236364 443.302281 
L 890.376413 458.095928 
L 891.516462 339.699774 
L 892.656511 234.272718 
L 893.79656 400.06743 
L 894.936609 351.821349 
L 896.076658 340.449393 
L 897.216708 310.162945 
L 898.356757 303.402602 
L 899.496806 362.015764 
L 900.636855 358.255446 
L 901.776904 345.230299 
L 902.916953 283.857907 
L 904.057002 395.702112 
L 906.337101 218.017737 
L 907.47715 367.587399 
L 908.617199 306.833094 
L 909.757248 168.609897 
L 910.897297 221.220108 
L 912.037346 321.461216 
L 913.177396 446.294213 
L 914.317445 392.11974 
L 915.457494 377.18794 
L 916.597543 434.02232 
L 917.737592 303.181353 
L 918.877641 410.484606 
L 920.01769 440.975594 
L 921.15774 320.043658 
L 922.297789 463.439454 
L 923.437838 365.47429 
L 924.577887 427.77224 
L 925.717936 311.654503 
L 926.857985 467.299381 
L 927.998034 334.39919 
L 929.138084 310.338997 
L 930.278133 575.742587 
L 931.418182 347.415676 
L 932.558231 242.73979 
L 933.69828 366.386085 
L 934.838329 295.522488 
L 935.978378 307.057393 
L 937.118428 382.639649 
L 938.258477 329.237312 
L 939.398526 419.868772 
L 940.538575 449.296872 
L 941.678624 368.344155 
L 942.818673 376.230303 
L 943.958722 336.294435 
L 945.098771 262.092044 
L 946.238821 278.389402 
L 947.37887 517.202759 
L 948.518919 316.473449 
L 949.658968 495.973453 
L 950.799017 393.456806 
L 951.939066 316.516746 
L 953.079115 547.310161 
L 954.219165 311.396516 
L 955.359214 364.60053 
L 956.499263 325.580237 
L 957.639312 395.173168 
L 958.779361 338.095336 
L 959.91941 375.347745 
L 961.059459 372.6677 
L 962.199509 355.848252 
L 963.339558 375.000328 
L 964.479607 372.589007 
L 965.619656 317.492341 
L 966.759705 453.528907 
L 967.899754 368.408649 
L 969.039803 518.735979 
L 970.179853 260.287949 
L 971.319902 264.12046 
L 972.459951 295.511421 
L 973.6 321.51799 
L 974.740049 391.694098 
L 975.880098 440.957544 
L 977.020147 373.167182 
L 978.160197 228.556086 
L 979.300246 335.809643 
L 980.440295 346.87374 
L 981.580344 317.841459 
L 982.720393 392.704567 
L 983.860442 329.803707 
L 985.000491 299.380231 
L 986.140541 348.162662 
L 987.28059 313.581998 
L 988.420639 342.975689 
L 989.560688 340.026697 
L 990.700737 444.734139 
L 991.840786 407.376987 
L 992.980835 450.564015 
L 994.120885 466.999696 
L 995.260934 270.095171 
L 996.400983 285.611954 
L 997.541032 354.308001 
L 998.681081 274.553191 
L 999.82113 336.136286 
L 1000.961179 607.710881 
L 1002.101229 137.147526 
L 1003.241278 390.993425 
L 1004.381327 472.691999 
L 1005.521376 355.185689 
L 1006.661425 407.349829 
L 1007.801474 428.62523 
L 1008.941523 348.0118 
L 1010.081572 350.319593 
L 1012.361671 469.192043 
L 1013.50172 366.45155 
L 1014.641769 461.015689 
L 1015.781818 333.701086 
L 1016.921867 176.420458 
L 1019.201966 349.016021 
L 1020.342015 372.308104 
L 1021.482064 253.833672 
L 1022.622113 477.394254 
L 1023.762162 412.144739 
L 1024.902211 384.853159 
L 1026.04226 381.657545 
L 1027.18231 348.533629 
L 1028.322359 393.210191 
L 1029.462408 385.067209 
L 1030.602457 411.845671 
L 1031.742506 313.711346 
L 1032.882555 312.025133 
L 1034.022604 346.293406 
L 1035.162654 442.663746 
L 1036.302703 395.729237 
L 1037.442752 386.196358 
L 1038.582801 486.136126 
L 1039.72285 325.937003 
L 1040.862899 536.799169 
L 1042.002948 516.539799 
L 1043.142998 308.007213 
L 1044.283047 387.795074 
L 1045.423096 404.56946 
L 1046.563145 355.814533 
L 1047.703194 353.613153 
L 1048.843243 211.88935 
L 1049.983292 399.045532 
L 1051.123342 361.881961 
L 1052.263391 304.112003 
L 1053.40344 522.14818 
L 1054.543489 240.376172 
L 1055.683538 365.016099 
L 1056.823587 429.421724 
L 1057.963636 419.317773 
L 1059.103686 355.828919 
L 1060.243735 397.437865 
L 1061.383784 175.182973 
L 1062.523833 300.366775 
L 1063.663882 537.669688 
L 1064.803931 340.539299 
L 1065.94398 394.35239 
L 1067.084029 393.295303 
L 1068.224079 345.828435 
L 1069.364128 380.114533 
L 1070.504177 356.974759 
L 1071.644226 353.009789 
L 1072.784275 317.235734 
L 1073.924324 356.946497 
L 1075.064373 483.523827 
L 1076.204423 597.611293 
L 1077.344472 515.734664 
L 1078.484521 355.770807 
L 1079.62457 416.887792 
L 1080.764619 451.864404 
L 1081.904668 449.253949 
L 1083.044717 495.144003 
L 1084.184767 459.414899 
L 1085.324816 435.485939 
L 1086.464865 306.577547 
L 1087.604914 522.13522 
L 1088.744963 356.182801 
L 1089.885012 344.871978 
L 1091.025061 343.967675 
L 1092.165111 425.20002 
L 1093.30516 337.889851 
L 1094.445209 346.781443 
L 1095.585258 389.530809 
L 1096.725307 337.451165 
L 1097.865356 200.039473 
L 1099.005405 478.019339 
L 1100.145455 390.447912 
L 1101.285504 391.965631 
L 1102.425553 408.484284 
L 1103.565602 300.949332 
L 1104.705651 499.886479 
L 1105.8457 431.816374 
L 1106.985749 462.349355 
L 1108.125799 312.494241 
L 1109.265848 503.563659 
L 1110.405897 417.583792 
L 1111.545946 401.499026 
L 1112.685995 330.171973 
L 1113.826044 495.793496 
L 1114.966093 364.959502 
L 1116.106143 496.207161 
L 1117.246192 181.840116 
L 1118.386241 451.835873 
L 1119.52629 508.432186 
L 1120.666339 467.803885 
L 1121.806388 393.361059 
L 1122.946437 370.944451 
L 1124.086486 459.390302 
L 1125.226536 456.052604 
L 1126.366585 204.774871 
L 1127.506634 313.685722 
L 1128.646683 364.298005 
L 1129.786732 339.245725 
L 1130.926781 358.872838 
L 1133.20688 306.976555 
L 1134.346929 377.706197 
L 1135.486978 394.20122 
L 1136.627027 425.844874 
L 1138.907125 390.928944 
L 1140.047174 345.564695 
L 1141.187224 416.917438 
L 1142.327273 265.140662 
L 1143.467322 268.275346 
L 1144.607371 380.614152 
L 1145.74742 324.145194 
L 1146.887469 246.559715 
L 1148.027518 455.166815 
L 1149.167568 183.84267 
L 1150.307617 253.764172 
L 1151.447666 284.091159 
L 1152.587715 517.977598 
L 1153.727764 547.451486 
L 1154.867813 342.943124 
L 1156.007862 356.181067 
L 1157.147912 315.386657 
L 1158.287961 326.026937 
L 1159.42801 237.715627 
L 1160.568059 396.431286 
L 1161.708108 303.453742 
L 1162.848157 313.774241 
L 1163.988206 373.609032 
L 1165.128256 392.732758 
L 1166.268305 374.312858 
L 1167.408354 416.731681 
L 1168.548403 302.885018 
L 1169.688452 377.220575 
L 1170.828501 292.578794 
L 1171.96855 546.547644 
L 1173.1086 253.042819 
L 1174.248649 297.74202 
L 1175.388698 421.807987 
L 1176.528747 313.290902 
L 1177.668796 404.304726 
L 1178.808845 462.711328 
L 1179.948894 350.177112 
L 1181.088943 283.031214 
L 1182.228993 424.475184 
L 1183.369042 351.167598 
L 1184.509091 184.898164 
L 1185.64914 480.349949 
L 1186.789189 212.624636 
L 1187.929238 373.590119 
L 1189.069287 438.458713 
L 1190.209337 424.153796 
L 1191.349386 321.398339 
L 1192.489435 478.729365 
L 1193.629484 294.743419 
L 1194.769533 331.815619 
L 1195.909582 394.29417 
L 1197.049631 382.358222 
L 1198.189681 388.619541 
L 1199.32973 362.868973 
L 1200.469779 419.214899 
L 1201.609828 319.315602 
L 1202.749877 437.430905 
L 1203.889926 382.093527 
L 1205.029975 388.264848 
L 1206.170025 427.05572 
L 1207.310074 301.715677 
L 1208.450123 249.350208 
L 1209.590172 427.5361 
L 1210.730221 301.000995 
L 1211.87027 303.881321 
L 1213.010319 275.112125 
L 1214.150369 272.901486 
L 1215.290418 455.189318 
L 1216.430467 239.659313 
L 1217.570516 328.437707 
L 1218.710565 382.565009 
L 1219.850614 306.129456 
L 1220.990663 450.453476 
L 1222.130713 380.078425 
L 1223.270762 397.240454 
L 1224.410811 491.401257 
L 1225.55086 302.831227 
L 1226.690909 363.660286 
L 1227.830958 351.932391 
L 1228.971007 163.653663 
L 1230.111057 451.228125 
L 1231.251106 279.321736 
L 1232.391155 534.020434 
L 1233.531204 452.063418 
L 1234.671253 382.661865 
L 1235.811302 425.72155 
L 1236.951351 304.615547 
L 1238.0914 463.559516 
L 1239.23145 348.727088 
L 1240.371499 534.174415 
L 1241.511548 475.611611 
L 1242.651597 298.307389 
L 1243.791646 547.730529 
L 1246.071744 324.296614 
L 1247.211794 320.342221 
L 1248.351843 360.041008 
L 1249.491892 423.248968 
L 1250.631941 383.435672 
L 1251.77199 527.776169 
L 1252.912039 328.606976 
L 1254.052088 451.853746 
L 1255.192138 221.699311 
L 1256.332187 402.484323 
L 1257.472236 415.916388 
L 1258.612285 328.575846 
L 1259.752334 356.37526 
L 1260.892383 359.811223 
L 1262.032432 367.691765 
L 1263.172482 209.133419 
L 1264.312531 238.186022 
L 1265.45258 407.874737 
L 1266.592629 408.692947 
L 1267.732678 384.701816 
L 1268.872727 381.902349 
L 1270.012776 485.956282 
L 1271.152826 375.078102 
L 1272.292875 323.568398 
L 1273.432924 537.049735 
L 1274.572973 325.43695 
L 1275.713022 538.029526 
L 1276.853071 363.630687 
L 1277.99312 299.76556 
L 1279.13317 247.917665 
L 1280.273219 363.942158 
L 1281.413268 415.335391 
L 1282.553317 186.641559 
L 1283.693366 448.478612 
L 1284.833415 404.47883 
L 1285.973464 338.637877 
L 1287.113514 378.082387 
L 1288.253563 494.753327 
L 1289.393612 200.130502 
L 1290.533661 409.157223 
L 1291.67371 263.847736 
L 1292.813759 411.072565 
L 1293.953808 268.184438 
L 1295.093857 484.392735 
L 1296.233907 445.63707 
L 1297.373956 354.375652 
L 1298.514005 407.733866 
L 1299.654054 376.372343 
L 1300.794103 330.609697 
L 1301.934152 395.887368 
L 1303.074201 402.48124 
L 1304.214251 438.622272 
L 1305.3543 354.375278 
L 1307.634398 485.863201 
L 1308.774447 314.936881 
L 1311.054545 471.796152 
L 1311.054545 471.796152 
" clip-path="url(#p1b2c107f3b)" style="fill: none; stroke: #008fd5; stroke-width: 4"/>
   </g>
   <g id="line2d_28">
    <path d="M 172.145455 432.405309 
L 173.285504 415.419598 
L 174.425553 401.991543 
L 175.565602 412.160756 
L 176.705651 399.215584 
L 177.8457 413.513224 
L 178.985749 364.448354 
L 180.125799 381.18534 
L 181.265848 363.159053 
L 182.405897 383.574288 
L 184.685995 310.589015 
L 185.826044 334.964959 
L 186.966093 313.902424 
L 188.106143 317.524806 
L 189.246192 306.97399 
L 190.386241 319.702867 
L 191.52629 303.466493 
L 192.666339 296.323299 
L 193.806388 308.914954 
L 194.946437 328.131017 
L 196.086486 339.476936 
L 197.226536 320.171752 
L 198.366585 345.451002 
L 199.506634 358.131145 
L 200.646683 342.222458 
L 201.786732 363.351716 
L 202.926781 360.823712 
L 204.06683 380.084848 
L 205.20688 390.039376 
L 206.346929 380.653638 
L 207.486978 382.752044 
L 208.627027 368.74483 
L 209.767076 369.303597 
L 210.907125 373.543585 
L 212.047174 355.337375 
L 213.187224 334.634202 
L 214.327273 338.042188 
L 215.467322 323.507248 
L 216.607371 343.169262 
L 217.74742 359.743036 
L 218.887469 359.852108 
L 220.027518 334.069457 
L 221.167568 316.562294 
L 222.307617 329.032094 
L 223.447666 391.843857 
L 224.587715 377.752599 
L 225.727764 368.300201 
L 226.867813 392.647426 
L 228.007862 361.585678 
L 229.147912 344.161726 
L 230.287961 340.572013 
L 231.42801 327.463911 
L 232.568059 350.303811 
L 233.708108 365.263093 
L 234.848157 334.778182 
L 235.988206 329.503979 
L 237.128256 360.374083 
L 238.268305 335.220328 
L 239.408354 344.925318 
L 240.548403 369.54325 
L 241.688452 367.658956 
L 242.828501 372.726669 
L 243.96855 384.232347 
L 245.1086 367.457253 
L 246.248649 400.514573 
L 247.388698 413.680332 
L 248.528747 384.041758 
L 250.808845 355.290971 
L 251.948894 389.764149 
L 253.088943 380.730554 
L 254.228993 387.451126 
L 255.369042 371.22189 
L 256.509091 348.823365 
L 257.64914 352.15521 
L 258.789189 342.470506 
L 259.929238 356.878339 
L 261.069287 366.28722 
L 262.209337 372.189912 
L 263.349386 351.32212 
L 264.489435 339.480103 
L 265.629484 351.225484 
L 266.769533 384.504217 
L 267.909582 350.63173 
L 269.049631 367.663786 
L 270.189681 349.823132 
L 271.32973 367.198682 
L 272.469779 354.880625 
L 273.609828 310.110759 
L 274.749877 329.58407 
L 275.889926 341.486495 
L 277.029975 334.093379 
L 278.170025 361.220091 
L 279.310074 371.175346 
L 280.450123 353.835914 
L 281.590172 346.069706 
L 282.730221 341.227618 
L 283.87027 340.232102 
L 285.010319 336.150549 
L 286.150369 333.509489 
L 287.290418 342.808034 
L 288.430467 356.566724 
L 290.710565 340.686831 
L 291.850614 355.332789 
L 292.990663 337.737794 
L 294.130713 363.359689 
L 295.270762 364.27452 
L 296.410811 383.090087 
L 297.55086 387.057349 
L 298.690909 368.710763 
L 299.830958 367.668871 
L 300.971007 368.16128 
L 302.111057 389.023489 
L 303.251106 404.342728 
L 304.391155 376.58334 
L 305.531204 393.090007 
L 306.671253 371.892177 
L 307.811302 381.449934 
L 308.951351 401.685185 
L 310.0914 386.357395 
L 311.23145 385.059147 
L 313.511548 363.891615 
L 314.651597 370.240165 
L 315.791646 381.638928 
L 316.931695 370.886729 
L 318.071744 385.04926 
L 319.211794 373.437178 
L 320.351843 364.476849 
L 321.491892 372.313794 
L 322.631941 398.958373 
L 324.912039 377.813199 
L 326.052088 364.692415 
L 327.192138 356.082777 
L 328.332187 365.315046 
L 329.472236 361.035685 
L 330.612285 366.203369 
L 331.752334 384.382015 
L 332.892383 394.961232 
L 334.032432 361.6917 
L 335.172482 340.695489 
L 336.312531 342.151397 
L 337.45258 359.380067 
L 338.592629 362.628693 
L 339.732678 331.888488 
L 342.012776 355.697873 
L 343.152826 371.771567 
L 344.292875 356.309889 
L 345.432924 350.020133 
L 346.572973 328.835976 
L 347.713022 329.201244 
L 348.853071 321.528419 
L 349.99312 307.251141 
L 351.13317 289.540971 
L 352.273219 310.467447 
L 353.413268 281.859624 
L 354.553317 293.040057 
L 355.693366 307.714128 
L 356.833415 294.822738 
L 357.973464 320.142389 
L 359.113514 307.051263 
L 360.253563 315.235289 
L 361.393612 313.583613 
L 362.533661 340.038708 
L 363.67371 323.039407 
L 364.813759 340.81464 
L 365.953808 331.327698 
L 367.093857 340.815206 
L 368.233907 343.955781 
L 369.373956 388.568594 
L 370.514005 388.794691 
L 371.654054 379.808812 
L 372.794103 375.464966 
L 373.934152 367.872402 
L 375.074201 366.846361 
L 376.214251 377.36621 
L 378.494349 357.071953 
L 379.634398 371.61573 
L 380.774447 353.254404 
L 381.914496 358.73709 
L 383.054545 368.287409 
L 384.194595 358.438636 
L 385.334644 337.591121 
L 386.474693 351.26124 
L 387.614742 350.759128 
L 389.89484 337.899396 
L 391.034889 333.963782 
L 392.174939 347.687295 
L 393.314988 338.066273 
L 394.455037 309.351223 
L 395.595086 319.871778 
L 396.735135 308.475617 
L 397.875184 329.523147 
L 399.015233 335.578284 
L 400.155283 338.982363 
L 401.295332 364.275172 
L 402.435381 326.648061 
L 403.57543 335.442548 
L 404.715479 338.80578 
L 405.855528 351.313198 
L 406.995577 332.915208 
L 408.135627 316.630785 
L 409.275676 350.249298 
L 410.415725 348.601567 
L 411.555774 360.107308 
L 412.695823 362.092198 
L 413.835872 379.185544 
L 414.975921 358.774554 
L 416.115971 349.430194 
L 417.25602 373.274358 
L 418.396069 371.420084 
L 419.536118 359.593555 
L 420.676167 378.322354 
L 421.816216 390.357359 
L 422.956265 395.986111 
L 424.096314 382.505621 
L 425.236364 370.78732 
L 426.376413 365.558256 
L 427.516462 389.068359 
L 428.656511 395.71501 
L 429.79656 375.235391 
L 430.936609 362.681424 
L 432.076658 341.512139 
L 433.216708 341.90645 
L 435.496806 349.038005 
L 437.776904 370.864242 
L 438.916953 366.864787 
L 440.057002 381.356084 
L 441.197052 410.502635 
L 442.337101 377.997081 
L 443.47715 385.795962 
L 444.617199 390.275303 
L 445.757248 360.384083 
L 446.897297 380.682971 
L 448.037346 385.433014 
L 449.177396 351.564389 
L 450.317445 350.941938 
L 451.457494 357.313213 
L 452.597543 332.060318 
L 453.737592 309.911273 
L 454.877641 316.685545 
L 456.01769 341.432905 
L 457.15774 342.804937 
L 458.297789 370.844582 
L 459.437838 370.222464 
L 460.577887 395.500654 
L 461.717936 411.2283 
L 462.857985 399.561062 
L 463.998034 359.730636 
L 465.138084 382.36911 
L 466.278133 392.602038 
L 467.418182 363.947076 
L 468.558231 371.322313 
L 469.69828 386.154842 
L 470.838329 380.446207 
L 471.978378 356.245163 
L 474.258477 382.615539 
L 475.398526 396.255786 
L 476.538575 394.211163 
L 477.678624 376.462313 
L 478.818673 376.386229 
L 479.958722 373.133566 
L 481.098771 377.608592 
L 482.238821 359.653974 
L 483.37887 385.849023 
L 484.518919 380.935338 
L 485.658968 338.039631 
L 486.799017 357.957727 
L 487.939066 373.89865 
L 489.079115 376.97846 
L 491.359214 363.670847 
L 492.499263 353.854401 
L 493.639312 346.656338 
L 494.779361 342.539496 
L 495.91941 365.270602 
L 497.059459 347.165467 
L 498.199509 340.040745 
L 499.339558 369.558436 
L 500.479607 387.547366 
L 501.619656 380.119498 
L 502.759705 401.589131 
L 503.899754 355.68272 
L 505.039803 358.081409 
L 506.179853 357.979193 
L 507.319902 332.896727 
L 508.459951 340.76221 
L 509.6 345.635859 
L 510.740049 371.765284 
L 511.880098 374.22591 
L 513.020147 366.08841 
L 514.160197 361.636956 
L 515.300246 370.242904 
L 516.440295 401.429415 
L 517.580344 391.234701 
L 518.720393 335.569579 
L 519.860442 359.675406 
L 521.000491 354.180506 
L 522.140541 370.204932 
L 523.28059 370.15383 
L 524.420639 364.748036 
L 525.560688 360.991668 
L 526.700737 344.408431 
L 527.840786 349.748096 
L 528.980835 331.125425 
L 530.120885 327.062103 
L 531.260934 341.288776 
L 532.400983 340.821127 
L 533.541032 336.687131 
L 534.681081 332.083411 
L 535.82113 337.014565 
L 536.961179 336.553723 
L 538.101229 335.528108 
L 539.241278 325.808467 
L 540.381327 333.024047 
L 541.521376 321.78595 
L 542.661425 334.779415 
L 543.801474 335.390211 
L 544.941523 334.75503 
L 546.081572 346.881483 
L 547.221622 361.672525 
L 548.361671 373.536725 
L 549.50172 368.695145 
L 550.641769 355.996554 
L 551.781818 357.984229 
L 552.921867 370.255736 
L 554.061916 402.0392 
L 555.201966 412.908122 
L 556.342015 361.891593 
L 557.482064 363.699595 
L 558.622113 363.365588 
L 559.762162 343.245963 
L 560.902211 354.619144 
L 562.04226 350.938411 
L 563.18231 348.680536 
L 564.322359 367.506675 
L 565.462408 382.366404 
L 566.602457 389.821622 
L 567.742506 390.176584 
L 568.882555 391.950879 
L 570.022604 394.969248 
L 571.162654 371.607809 
L 572.302703 364.92538 
L 573.442752 391.570554 
L 574.582801 366.835545 
L 575.72285 377.539841 
L 576.862899 392.199107 
L 578.002948 396.922735 
L 579.142998 380.022666 
L 580.283047 354.188379 
L 581.423096 375.023701 
L 582.563145 359.8238 
L 583.703194 401.816281 
L 584.843243 415.133091 
L 585.983292 363.819893 
L 587.123342 351.275078 
L 588.263391 345.024597 
L 589.40344 354.391279 
L 590.543489 352.058205 
L 591.683538 337.769467 
L 592.823587 342.102391 
L 593.963636 330.864652 
L 595.103686 358.068177 
L 596.243735 365.895283 
L 597.383784 382.851987 
L 598.523833 373.689277 
L 599.663882 386.700919 
L 600.803931 375.06236 
L 601.94398 407.97842 
L 603.084029 404.65389 
L 604.224079 397.217381 
L 605.364128 393.554906 
L 606.504177 386.72313 
L 607.644226 388.206504 
L 608.784275 359.531159 
L 609.924324 363.512087 
L 611.064373 336.171672 
L 612.204423 338.856735 
L 613.344472 373.959599 
L 614.484521 382.017723 
L 615.62457 360.355792 
L 616.764619 379.917732 
L 617.904668 369.780419 
L 619.044717 329.164846 
L 620.184767 330.314822 
L 621.324816 358.710556 
L 622.464865 348.149452 
L 623.604914 357.483378 
L 624.744963 385.386318 
L 625.885012 352.309246 
L 627.025061 391.166076 
L 628.165111 390.865319 
L 629.30516 375.736144 
L 630.445209 375.926219 
L 631.585258 360.321505 
L 632.725307 375.447477 
L 633.865356 378.173625 
L 635.005405 361.57457 
L 636.145455 355.922723 
L 637.285504 346.099167 
L 638.425553 355.516197 
L 640.705651 403.51794 
L 641.8457 388.522722 
L 642.985749 364.838639 
L 644.125799 356.54715 
L 645.265848 327.571269 
L 646.405897 344.486086 
L 647.545946 352.520321 
L 648.685995 367.746284 
L 649.826044 379.803154 
L 650.966093 407.181576 
L 652.106143 419.503567 
L 653.246192 395.30229 
L 654.386241 376.094096 
L 655.52629 374.186405 
L 656.666339 376.887851 
L 658.946437 354.699445 
L 660.086486 382.141374 
L 661.226536 387.728247 
L 662.366585 373.319931 
L 663.506634 344.595715 
L 664.646683 326.222258 
L 665.786732 303.655555 
L 666.926781 356.349378 
L 668.06683 360.796543 
L 669.20688 357.760434 
L 670.346929 365.220027 
L 671.486978 376.560352 
L 672.627027 375.570827 
L 673.767076 388.38638 
L 674.907125 355.856264 
L 676.047174 361.77833 
L 677.187224 379.038069 
L 678.327273 390.134715 
L 679.467322 347.720119 
L 680.607371 359.403191 
L 681.74742 373.092225 
L 682.887469 371.622277 
L 684.027518 368.820895 
L 685.167568 366.613278 
L 686.307617 378.848755 
L 687.447666 379.324316 
L 688.587715 402.552331 
L 689.727764 372.69624 
L 690.867813 363.091525 
L 692.007862 376.131154 
L 693.147912 365.179357 
L 694.287961 366.730138 
L 695.42801 360.946287 
L 696.568059 373.081326 
L 697.708108 365.861667 
L 698.848157 384.827237 
L 699.988206 417.23366 
L 701.128256 401.896409 
L 702.268305 436.151467 
L 703.408354 428.72852 
L 704.548403 425.595171 
L 705.688452 398.269455 
L 706.828501 365.399821 
L 707.96855 377.909301 
L 709.1086 366.911353 
L 711.388698 385.381293 
L 712.528747 364.94724 
L 713.668796 350.551671 
L 714.808845 354.317382 
L 715.948894 337.163662 
L 717.088943 365.42582 
L 718.228993 351.995625 
L 719.369042 329.560776 
L 720.509091 334.802039 
L 721.64914 327.953309 
L 722.789189 354.512508 
L 723.929238 338.541491 
L 725.069287 320.182545 
L 726.209337 335.237828 
L 727.349386 347.25458 
L 728.489435 353.553608 
L 729.629484 342.389782 
L 730.769533 343.803785 
L 731.909582 362.411818 
L 733.049631 367.216214 
L 734.189681 371.137798 
L 735.32973 346.622674 
L 736.469779 342.975021 
L 737.609828 328.05292 
L 738.749877 334.100069 
L 739.889926 330.704544 
L 741.029975 361.85173 
L 742.170025 353.05226 
L 743.310074 375.902252 
L 744.450123 361.652568 
L 745.590172 368.296836 
L 746.730221 367.410805 
L 747.87027 349.262589 
L 749.010319 342.909365 
L 750.150369 299.967006 
L 751.290418 305.594145 
L 752.430467 326.070823 
L 753.570516 337.019658 
L 754.710565 351.646122 
L 755.850614 357.383836 
L 756.990663 369.028846 
L 758.130713 376.385674 
L 759.270762 341.850766 
L 760.410811 340.698701 
L 761.55086 330.186669 
L 762.690909 330.634242 
L 763.830958 345.211382 
L 764.971007 366.340982 
L 766.111057 352.007691 
L 767.251106 323.505042 
L 768.391155 359.308325 
L 769.531204 331.358067 
L 770.671253 330.844657 
L 771.811302 353.66512 
L 772.951351 351.347409 
L 774.0914 350.651421 
L 775.23145 329.425346 
L 776.371499 326.589641 
L 777.511548 343.452324 
L 778.651597 356.971119 
L 779.791646 355.130335 
L 780.931695 353.641815 
L 782.071744 374.275295 
L 783.211794 387.323526 
L 784.351843 376.744008 
L 785.491892 360.043238 
L 786.631941 371.316014 
L 787.77199 350.299784 
L 788.912039 345.65092 
L 790.052088 362.263634 
L 791.192138 345.832354 
L 792.332187 345.642113 
L 793.472236 347.334765 
L 794.612285 374.795982 
L 795.752334 366.84452 
L 796.892383 386.134012 
L 798.032432 376.265708 
L 799.172482 371.837568 
L 800.312531 384.205814 
L 801.45258 381.51087 
L 802.592629 349.633447 
L 803.732678 355.802208 
L 804.872727 349.60793 
L 806.012776 345.421075 
L 807.152826 365.941973 
L 808.292875 363.715409 
L 809.432924 374.67614 
L 810.572973 373.250429 
L 811.713022 397.790098 
L 812.853071 392.243718 
L 813.99312 405.842647 
L 815.13317 391.199543 
L 816.273219 390.788056 
L 817.413268 367.669802 
L 818.553317 364.194555 
L 819.693366 351.341392 
L 820.833415 330.861208 
L 821.973464 326.790508 
L 823.113514 299.886686 
L 824.253563 324.12473 
L 825.393612 299.1353 
L 826.533661 327.546486 
L 827.67371 346.659898 
L 828.813759 309.647595 
L 829.953808 326.247101 
L 831.093857 321.207315 
L 832.233907 325.266005 
L 833.373956 335.864944 
L 834.514005 335.041108 
L 835.654054 356.419033 
L 836.794103 326.790667 
L 837.934152 345.664866 
L 839.074201 378.44948 
L 840.214251 404.86326 
L 841.3543 402.695848 
L 842.494349 393.493622 
L 843.634398 365.407733 
L 844.774447 347.285123 
L 845.914496 332.524733 
L 847.054545 331.65442 
L 849.334644 317.734718 
L 850.474693 343.839506 
L 851.614742 336.395988 
L 853.89484 375.314034 
L 855.034889 349.020931 
L 856.174939 351.447215 
L 857.314988 355.905848 
L 858.455037 347.200061 
L 859.595086 354.418941 
L 860.735135 357.285203 
L 861.875184 381.096296 
L 863.015233 376.18974 
L 864.155283 376.827435 
L 865.295332 382.981105 
L 866.435381 385.661851 
L 867.57543 360.884428 
L 868.715479 352.676116 
L 870.995577 345.523623 
L 872.135627 341.389553 
L 873.275676 348.153741 
L 875.555774 318.158656 
L 877.835872 367.171451 
L 878.975921 351.156 
L 880.115971 366.390214 
L 881.25602 351.539642 
L 882.396069 344.367008 
L 883.536118 340.003304 
L 884.676167 318.657036 
L 885.816216 333.885615 
L 886.956265 331.361501 
L 889.236364 367.692601 
L 890.376413 385.773266 
L 891.516462 376.558568 
L 892.656511 348.101398 
L 893.79656 358.494604 
L 894.936609 357.159953 
L 896.076658 353.817841 
L 898.356757 336.75001 
L 899.496806 341.803161 
L 900.636855 345.093618 
L 901.776904 345.120954 
L 902.916953 332.868345 
L 904.057002 345.435098 
L 905.197052 338.028274 
L 906.337101 314.026166 
L 907.47715 324.738413 
L 908.617199 321.157349 
L 909.757248 290.647859 
L 910.897297 276.762309 
L 912.037346 285.70209 
L 913.177396 317.820515 
L 914.317445 332.68036 
L 915.457494 341.581876 
L 916.597543 360.069965 
L 917.737592 348.692242 
L 918.877641 361.050715 
L 920.01769 377.035691 
L 921.15774 365.637284 
L 922.297789 385.197718 
L 923.437838 381.253033 
L 924.577887 390.556874 
L 925.717936 374.7764 
L 926.857985 393.280996 
L 927.998034 381.504635 
L 929.138084 367.271507 
L 930.278133 408.965723 
L 931.418182 396.655714 
L 932.558231 365.872529 
L 933.69828 365.97524 
L 934.838329 351.88469 
L 935.978378 342.91923 
L 937.118428 350.863314 
L 938.258477 346.538114 
L 939.398526 361.204245 
L 940.538575 378.822771 
L 941.678624 376.727047 
L 942.818673 376.627698 
L 943.958722 368.561046 
L 945.098771 347.267245 
L 946.238821 333.491677 
L 947.37887 370.233893 
L 948.518919 359.481804 
L 949.658968 386.780134 
L 950.799017 388.115468 
L 951.939066 373.795724 
L 953.079115 408.498611 
L 954.219165 389.078192 
L 955.359214 384.18266 
L 956.499263 372.462175 
L 957.639312 377.004374 
L 958.779361 369.222566 
L 959.91941 370.447602 
L 961.059459 370.891622 
L 962.199509 367.882948 
L 963.339558 369.306424 
L 964.479607 369.96294 
L 965.619656 359.46882 
L 966.759705 378.280838 
L 967.899754 376.3064 
L 969.039803 404.792316 
L 970.179853 375.891442 
L 971.319902 353.537246 
L 972.459951 341.932081 
L 973.6 337.849263 
L 974.740049 348.61823 
L 975.880098 367.086093 
L 977.020147 368.302311 
L 978.160197 340.353066 
L 979.300246 339.444381 
L 980.440295 340.930253 
L 981.580344 336.312494 
L 982.720393 347.590909 
L 983.860442 344.033468 
L 985.000491 335.102821 
L 986.140541 337.714789 
L 987.28059 332.888231 
L 988.420639 334.905723 
L 989.560688 335.929917 
L 990.700737 357.690762 
L 991.840786 367.628007 
L 994.120885 400.772106 
L 995.260934 374.636719 
L 996.400983 356.831766 
L 997.541032 356.327013 
L 998.681081 339.972249 
L 999.82113 339.205056 
L 1000.961179 392.906221 
L 1002.101229 341.754482 
L 1003.241278 351.602271 
L 1004.381327 375.820216 
L 1005.521376 371.693311 
L 1006.661425 378.824614 
L 1007.801474 388.784738 
L 1008.941523 380.63015 
L 1010.081572 374.568039 
L 1011.221622 381.425112 
L 1012.361671 398.978498 
L 1013.50172 392.473109 
L 1014.641769 406.181625 
L 1015.781818 391.685517 
L 1016.921867 348.632505 
L 1018.061916 332.285425 
L 1019.201966 335.631544 
L 1020.342015 342.966856 
L 1021.482064 325.140219 
L 1022.622113 355.591026 
L 1023.762162 366.901769 
L 1024.902211 370.492047 
L 1026.04226 372.725146 
L 1027.18231 367.886843 
L 1028.322359 372.951513 
L 1029.462408 375.374652 
L 1030.602457 382.668856 
L 1031.742506 368.877354 
L 1032.882555 357.50691 
L 1034.022604 355.264209 
L 1035.162654 372.744116 
L 1036.302703 377.34114 
L 1037.442752 379.112184 
L 1038.582801 400.516972 
L 1039.72285 385.600979 
L 1040.862899 415.840617 
L 1042.002948 435.980453 
L 1043.142998 410.385805 
L 1044.283047 405.867659 
L 1045.423096 405.608019 
L 1046.563145 395.649322 
L 1047.703194 387.242088 
L 1048.843243 352.17154 
L 1049.983292 361.546339 
L 1051.123342 361.613463 
L 1052.263391 350.113171 
L 1053.40344 384.520173 
L 1054.543489 355.691373 
L 1055.683538 357.556318 
L 1056.823587 371.929399 
L 1057.963636 381.407074 
L 1059.103686 376.291443 
L 1060.243735 380.520727 
L 1061.383784 339.453177 
L 1062.523833 331.635896 
L 1063.663882 372.842655 
L 1064.803931 366.381983 
L 1065.94398 371.976065 
L 1067.084029 376.239912 
L 1068.224079 370.157617 
L 1069.364128 372.149 
L 1071.644226 365.893279 
L 1072.784275 356.16177 
L 1073.924324 356.318716 
L 1075.064373 381.759738 
L 1076.204423 424.930049 
L 1077.344472 443.090972 
L 1078.484521 425.626939 
L 1079.62457 423.879109 
L 1080.764619 429.476168 
L 1081.904668 433.431724 
L 1083.044717 445.77418 
L 1084.184767 448.502324 
L 1085.324816 445.899047 
L 1086.464865 418.034747 
L 1087.604914 438.854841 
L 1089.885012 406.830742 
L 1091.025061 394.258129 
L 1092.165111 400.446507 
L 1093.30516 387.935176 
L 1094.445209 379.704429 
L 1095.585258 381.669705 
L 1096.725307 372.825997 
L 1097.865356 338.268692 
L 1099.005405 366.218822 
L 1100.145455 371.06464 
L 1101.285504 375.244838 
L 1102.425553 381.892727 
L 1103.565602 365.704048 
L 1104.705651 392.540534 
L 1105.8457 400.395702 
L 1106.985749 412.786433 
L 1108.125799 392.727995 
L 1109.265848 414.895127 
L 1110.405897 415.43286 
L 1111.545946 412.646093 
L 1112.685995 396.151269 
L 1113.826044 416.079715 
L 1114.966093 405.855672 
L 1116.106143 423.92597 
L 1117.246192 375.508799 
L 1118.386241 390.774214 
L 1119.52629 414.305808 
L 1120.666339 425.005424 
L 1121.806388 418.676551 
L 1122.946437 409.130131 
L 1124.086486 419.182165 
L 1125.226536 426.556253 
L 1126.366585 382.199977 
L 1127.506634 368.497126 
L 1128.646683 367.657301 
L 1129.786732 361.974986 
L 1130.926781 361.354557 
L 1132.06683 355.439418 
L 1133.20688 345.746845 
L 1134.346929 352.138716 
L 1135.486978 360.551216 
L 1136.627027 373.609948 
L 1137.767076 380.44797 
L 1138.907125 382.544165 
L 1140.047174 375.148271 
L 1141.187224 383.502104 
L 1142.327273 359.829816 
L 1143.467322 341.518922 
L 1144.607371 349.337968 
L 1145.74742 344.299413 
L 1146.887469 324.751473 
L 1148.027518 350.834542 
L 1149.167568 317.436167 
L 1150.307617 304.701768 
L 1151.447666 300.579646 
L 1153.727764 384.737687 
L 1154.867813 376.378774 
L 1156.007862 372.339233 
L 1157.147912 360.948717 
L 1158.287961 353.964361 
L 1159.42801 330.714614 
L 1160.568059 343.857949 
L 1161.708108 335.777107 
L 1162.848157 331.376534 
L 1163.988206 339.823034 
L 1165.128256 350.404979 
L 1166.268305 355.186554 
L 1167.408354 367.49558 
L 1168.548403 354.573467 
L 1169.688452 359.102889 
L 1170.828501 345.79807 
L 1171.96855 385.947985 
L 1173.1086 359.366952 
L 1174.248649 347.041965 
L 1175.388698 361.99517 
L 1176.528747 352.254316 
L 1177.668796 362.664398 
L 1178.808845 382.673784 
L 1179.948894 376.17445 
L 1181.088943 357.545802 
L 1182.228993 370.931679 
L 1183.369042 366.978863 
L 1184.509091 330.562723 
L 1185.64914 360.520168 
L 1186.789189 330.941062 
L 1187.929238 339.470873 
L 1189.069287 359.268441 
L 1190.209337 372.245512 
L 1191.349386 362.076077 
L 1192.489435 385.406735 
L 1193.629484 367.274072 
L 1194.769533 360.182381 
L 1195.909582 367.004739 
L 1197.049631 370.075435 
L 1198.189681 373.784257 
L 1199.32973 371.6012 
L 1200.469779 381.12394 
L 1201.609828 368.762272 
L 1202.749877 382.495999 
L 1203.889926 382.415504 
L 1205.029975 383.585373 
L 1206.170025 392.279442 
L 1207.310074 374.166689 
L 1208.450123 349.203393 
L 1209.590172 364.869935 
L 1210.730221 352.096147 
L 1211.87027 342.453182 
L 1213.010319 328.98497 
L 1214.150369 317.768274 
L 1215.290418 345.252482 
L 1216.430467 324.133849 
L 1217.570516 324.99462 
L 1218.710565 336.508698 
L 1219.850614 330.43285 
L 1220.990663 354.436975 
L 1222.130713 359.565265 
L 1223.270762 367.100303 
L 1224.410811 391.960494 
L 1225.55086 374.13464 
L 1226.690909 372.039769 
L 1227.830958 368.018294 
L 1228.971007 327.145368 
L 1230.111057 351.961919 
L 1231.251106 337.433883 
L 1232.391155 376.751193 
L 1233.531204 391.813638 
L 1234.671253 389.983283 
L 1235.811302 397.130937 
L 1236.951351 378.627859 
L 1238.0914 395.61419 
L 1239.23145 386.23677 
L 1240.371499 415.824299 
L 1241.511548 427.781761 
L 1242.651597 401.886887 
L 1243.791646 431.055615 
L 1244.931695 432.111444 
L 1246.071744 410.548478 
L 1247.211794 392.507227 
L 1248.351843 386.013983 
L 1249.491892 393.46098 
L 1250.631941 391.455918 
L 1251.77199 418.719969 
L 1252.912039 400.69737 
L 1254.052088 410.928645 
L 1255.192138 373.082778 
L 1256.332187 378.963087 
L 1257.472236 386.353747 
L 1258.612285 374.798167 
L 1259.752334 371.113586 
L 1260.892383 368.853113 
L 1262.032432 368.620844 
L 1263.172482 336.723359 
L 1264.312531 317.015891 
L 1265.45258 335.18766 
L 1266.592629 349.888718 
L 1267.732678 356.851337 
L 1268.872727 361.86154 
L 1270.012776 386.680488 
L 1271.152826 384.360011 
L 1272.292875 372.201688 
L 1273.432924 405.171298 
L 1274.572973 389.224428 
L 1275.713022 418.985448 
L 1276.853071 407.914495 
L 1277.99312 386.284708 
L 1279.13317 358.6113 
L 1280.273219 359.677471 
L 1281.413268 370.809055 
L 1282.553317 333.975556 
L 1283.693366 356.876167 
L 1284.833415 366.3967 
L 1285.973464 360.844935 
L 1287.113514 364.292425 
L 1288.253563 390.384606 
L 1289.393612 352.333785 
L 1290.533661 363.698473 
L 1291.67371 343.728325 
L 1292.813759 357.197173 
L 1293.953808 339.394626 
L 1295.093857 368.394248 
L 1296.233907 383.842812 
L 1297.373956 377.94938 
L 1298.514005 383.906278 
L 1299.654054 382.399491 
L 1300.794103 372.041532 
L 1303.074201 381.944807 
L 1304.214251 393.2803 
L 1305.3543 385.499296 
L 1306.494349 392.098266 
L 1307.634398 410.851253 
L 1308.774447 391.668379 
L 1309.914496 391.478714 
L 1311.054545 407.542202 
L 1311.054545 407.542202 
" clip-path="url(#p1b2c107f3b)" style="fill: none; stroke: #fc4f30; stroke-width: 4"/>
   </g>
   <g id="patch_3">
    <path d="M 115.2 669.6 
L 115.2 86.4 
" style="fill: none; stroke: #f0f0f0; stroke-width: 3; stroke-linejoin: miter; stroke-linecap: square"/>
   </g>
   <g id="patch_4">
    <path d="M 1368 669.6 
L 1368 86.4 
" style="fill: none; stroke: #f0f0f0; stroke-width: 3; stroke-linejoin: miter; stroke-linecap: square"/>
   </g>
   <g id="patch_5">
    <path d="M 115.2 669.6 
L 1368 669.6 
" style="fill: none; stroke: #f0f0f0; stroke-width: 3; stroke-linejoin: miter; stroke-linecap: square"/>
   </g>
   <g id="patch_6">
    <path d="M 115.2 86.4 
L 1368 86.4 
" style="fill: none; stroke: #f0f0f0; stroke-width: 3; stroke-linejoin: miter; stroke-linecap: square"/>
   </g>
   <g id="legend_1">
    <g id="patch_7">
     <path d="M 1094.566875 138.69875 
L 1358.2 138.69875 
Q 1361 138.69875 1361 135.89875 
L 1361 96.2 
Q 1361 93.4 1358.2 93.4 
L 1094.566875 93.4 
Q 1091.766875 93.4 1091.766875 96.2 
L 1091.766875 135.89875 
Q 1091.766875 138.69875 1094.566875 138.69875 
z
" style="fill: #f0f0f0; opacity: 0.8; stroke: #cccccc; stroke-width: 0.5; stroke-linejoin: miter"/>
    </g>
    <g id="line2d_29">
     <path d="M 1097.366875 104.737812 
L 1111.366875 104.737812 
L 1125.366875 104.737812 
" style="fill: none; stroke: #008fd5; stroke-width: 4"/>
    </g>
    <g id="text_14">
     <!-- Random Data -->
     <g transform="translate(1136.566875 109.637812) scale(0.14 -0.14)">
      <defs>
       <path id="DejaVuSans-52" d="M 2841 2188 
Q 3044 2119 3236 1894 
Q 3428 1669 3622 1275 
L 4263 0 
L 3584 0 
L 2988 1197 
Q 2756 1666 2539 1819 
Q 2322 1972 1947 1972 
L 1259 1972 
L 1259 0 
L 628 0 
L 628 4666 
L 2053 4666 
Q 2853 4666 3247 4331 
Q 3641 3997 3641 3322 
Q 3641 2881 3436 2590 
Q 3231 2300 2841 2188 
z
M 1259 4147 
L 1259 2491 
L 2053 2491 
Q 2509 2491 2742 2702 
Q 2975 2913 2975 3322 
Q 2975 3731 2742 3939 
Q 2509 4147 2053 4147 
L 1259 4147 
z
" transform="scale(0.015625)"/>
       <path id="DejaVuSans-61" d="M 2194 1759 
Q 1497 1759 1228 1600 
Q 959 1441 959 1056 
Q 959 750 1161 570 
Q 1363 391 1709 391 
Q 2188 391 2477 730 
Q 2766 1069 2766 1631 
L 2766 1759 
L 2194 1759 
z
M 3341 1997 
L 3341 0 
L 2766 0 
L 2766 531 
Q 2569 213 2275 61 
Q 1981 -91 1556 -91 
Q 1019 -91 701 211 
Q 384 513 384 1019 
Q 384 1609 779 1909 
Q 1175 2209 1959 2209 
L 2766 2209 
L 2766 2266 
Q 2766 2663 2505 2880 
Q 2244 3097 1772 3097 
Q 1472 3097 1187 3025 
Q 903 2953 641 2809 
L 641 3341 
Q 956 3463 1253 3523 
Q 1550 3584 1831 3584 
Q 2591 3584 2966 3190 
Q 3341 2797 3341 1997 
z
" transform="scale(0.015625)"/>
       <path id="DejaVuSans-6e" d="M 3513 2113 
L 3513 0 
L 2938 0 
L 2938 2094 
Q 2938 2591 2744 2837 
Q 2550 3084 2163 3084 
Q 1697 3084 1428 2787 
Q 1159 2491 1159 1978 
L 1159 0 
L 581 0 
L 581 3500 
L 1159 3500 
L 1159 2956 
Q 1366 3272 1645 3428 
Q 1925 3584 2291 3584 
Q 2894 3584 3203 3211 
Q 3513 2838 3513 2113 
z
" transform="scale(0.015625)"/>
       <path id="DejaVuSans-64" d="M 2906 2969 
L 2906 4863 
L 3481 4863 
L 3481 0 
L 2906 0 
L 2906 525 
Q 2725 213 2448 61 
Q 2172 -91 1784 -91 
Q 1150 -91 751 415 
Q 353 922 353 1747 
Q 353 2572 751 3078 
Q 1150 3584 1784 3584 
Q 2172 3584 2448 3432 
Q 2725 3281 2906 2969 
z
M 947 1747 
Q 947 1113 1208 752 
Q 1469 391 1925 391 
Q 2381 391 2643 752 
Q 2906 1113 2906 1747 
Q 2906 2381 2643 2742 
Q 2381 3103 1925 3103 
Q 1469 3103 1208 2742 
Q 947 2381 947 1747 
z
" transform="scale(0.015625)"/>
       <path id="DejaVuSans-6f" d="M 1959 3097 
Q 1497 3097 1228 2736 
Q 959 2375 959 1747 
Q 959 1119 1226 758 
Q 1494 397 1959 397 
Q 2419 397 2687 759 
Q 2956 1122 2956 1747 
Q 2956 2369 2687 2733 
Q 2419 3097 1959 3097 
z
M 1959 3584 
Q 2709 3584 3137 3096 
Q 3566 2609 3566 1747 
Q 3566 888 3137 398 
Q 2709 -91 1959 -91 
Q 1206 -91 779 398 
Q 353 888 353 1747 
Q 353 2609 779 3096 
Q 1206 3584 1959 3584 
z
" transform="scale(0.015625)"/>
       <path id="DejaVuSans-6d" d="M 3328 2828 
Q 3544 3216 3844 3400 
Q 4144 3584 4550 3584 
Q 5097 3584 5394 3201 
Q 5691 2819 5691 2113 
L 5691 0 
L 5113 0 
L 5113 2094 
Q 5113 2597 4934 2840 
Q 4756 3084 4391 3084 
Q 3944 3084 3684 2787 
Q 3425 2491 3425 1978 
L 3425 0 
L 2847 0 
L 2847 2094 
Q 2847 2600 2669 2842 
Q 2491 3084 2119 3084 
Q 1678 3084 1418 2786 
Q 1159 2488 1159 1978 
L 1159 0 
L 581 0 
L 581 3500 
L 1159 3500 
L 1159 2956 
Q 1356 3278 1631 3431 
Q 1906 3584 2284 3584 
Q 2666 3584 2933 3390 
Q 3200 3197 3328 2828 
z
" transform="scale(0.015625)"/>
       <path id="DejaVuSans-20" transform="scale(0.015625)"/>
       <path id="DejaVuSans-44" d="M 1259 4147 
L 1259 519 
L 2022 519 
Q 2988 519 3436 956 
Q 3884 1394 3884 2338 
Q 3884 3275 3436 3711 
Q 2988 4147 2022 4147 
L 1259 4147 
z
M 628 4666 
L 1925 4666 
Q 3281 4666 3915 4102 
Q 4550 3538 4550 2338 
Q 4550 1131 3912 565 
Q 3275 0 1925 0 
L 628 0 
L 628 4666 
z
" transform="scale(0.015625)"/>
       <path id="DejaVuSans-74" d="M 1172 4494 
L 1172 3500 
L 2356 3500 
L 2356 3053 
L 1172 3053 
L 1172 1153 
Q 1172 725 1289 603 
Q 1406 481 1766 481 
L 2356 481 
L 2356 0 
L 1766 0 
Q 1100 0 847 248 
Q 594 497 594 1153 
L 594 3053 
L 172 3053 
L 172 3500 
L 594 3500 
L 594 4494 
L 1172 4494 
z
" transform="scale(0.015625)"/>
      </defs>
      <use xlink:href="#DejaVuSans-52"/>
      <use xlink:href="#DejaVuSans-61" x="67.232422"/>
      <use xlink:href="#DejaVuSans-6e" x="128.511719"/>
      <use xlink:href="#DejaVuSans-64" x="191.890625"/>
      <use xlink:href="#DejaVuSans-6f" x="255.367188"/>
      <use xlink:href="#DejaVuSans-6d" x="316.548828"/>
      <use xlink:href="#DejaVuSans-20" x="413.960938"/>
      <use xlink:href="#DejaVuSans-44" x="445.748047"/>
      <use xlink:href="#DejaVuSans-61" x="522.75"/>
      <use xlink:href="#DejaVuSans-74" x="584.029297"/>
      <use xlink:href="#DejaVuSans-61" x="623.238281"/>
     </g>
    </g>
    <g id="line2d_30">
     <path d="M 1097.366875 125.287187 
L 1111.366875 125.287187 
L 1125.366875 125.287187 
" style="fill: none; stroke: #fc4f30; stroke-width: 4"/>
    </g>
    <g id="text_15">
     <!-- Exponential Smoothing a = 0.2 -->
     <g transform="translate(1136.566875 130.187187) scale(0.14 -0.14)">
      <defs>
       <path id="DejaVuSans-45" d="M 628 4666 
L 3578 4666 
L 3578 4134 
L 1259 4134 
L 1259 2753 
L 3481 2753 
L 3481 2222 
L 1259 2222 
L 1259 531 
L 3634 531 
L 3634 0 
L 628 0 
L 628 4666 
z
" transform="scale(0.015625)"/>
       <path id="DejaVuSans-78" d="M 3513 3500 
L 2247 1797 
L 3578 0 
L 2900 0 
L 1881 1375 
L 863 0 
L 184 0 
L 1544 1831 
L 300 3500 
L 978 3500 
L 1906 2253 
L 2834 3500 
L 3513 3500 
z
" transform="scale(0.015625)"/>
       <path id="DejaVuSans-70" d="M 1159 525 
L 1159 -1331 
L 581 -1331 
L 581 3500 
L 1159 3500 
L 1159 2969 
Q 1341 3281 1617 3432 
Q 1894 3584 2278 3584 
Q 2916 3584 3314 3078 
Q 3713 2572 3713 1747 
Q 3713 922 3314 415 
Q 2916 -91 2278 -91 
Q 1894 -91 1617 61 
Q 1341 213 1159 525 
z
M 3116 1747 
Q 3116 2381 2855 2742 
Q 2594 3103 2138 3103 
Q 1681 3103 1420 2742 
Q 1159 2381 1159 1747 
Q 1159 1113 1420 752 
Q 1681 391 2138 391 
Q 2594 391 2855 752 
Q 3116 1113 3116 1747 
z
" transform="scale(0.015625)"/>
       <path id="DejaVuSans-65" d="M 3597 1894 
L 3597 1613 
L 953 1613 
Q 991 1019 1311 708 
Q 1631 397 2203 397 
Q 2534 397 2845 478 
Q 3156 559 3463 722 
L 3463 178 
Q 3153 47 2828 -22 
Q 2503 -91 2169 -91 
Q 1331 -91 842 396 
Q 353 884 353 1716 
Q 353 2575 817 3079 
Q 1281 3584 2069 3584 
Q 2775 3584 3186 3129 
Q 3597 2675 3597 1894 
z
M 3022 2063 
Q 3016 2534 2758 2815 
Q 2500 3097 2075 3097 
Q 1594 3097 1305 2825 
Q 1016 2553 972 2059 
L 3022 2063 
z
" transform="scale(0.015625)"/>
       <path id="DejaVuSans-69" d="M 603 3500 
L 1178 3500 
L 1178 0 
L 603 0 
L 603 3500 
z
M 603 4863 
L 1178 4863 
L 1178 4134 
L 603 4134 
L 603 4863 
z
" transform="scale(0.015625)"/>
       <path id="DejaVuSans-6c" d="M 603 4863 
L 1178 4863 
L 1178 0 
L 603 0 
L 603 4863 
z
" transform="scale(0.015625)"/>
       <path id="DejaVuSans-53" d="M 3425 4513 
L 3425 3897 
Q 3066 4069 2747 4153 
Q 2428 4238 2131 4238 
Q 1616 4238 1336 4038 
Q 1056 3838 1056 3469 
Q 1056 3159 1242 3001 
Q 1428 2844 1947 2747 
L 2328 2669 
Q 3034 2534 3370 2195 
Q 3706 1856 3706 1288 
Q 3706 609 3251 259 
Q 2797 -91 1919 -91 
Q 1588 -91 1214 -16 
Q 841 59 441 206 
L 441 856 
Q 825 641 1194 531 
Q 1563 422 1919 422 
Q 2459 422 2753 634 
Q 3047 847 3047 1241 
Q 3047 1584 2836 1778 
Q 2625 1972 2144 2069 
L 1759 2144 
Q 1053 2284 737 2584 
Q 422 2884 422 3419 
Q 422 4038 858 4394 
Q 1294 4750 2059 4750 
Q 2388 4750 2728 4690 
Q 3069 4631 3425 4513 
z
" transform="scale(0.015625)"/>
       <path id="DejaVuSans-68" d="M 3513 2113 
L 3513 0 
L 2938 0 
L 2938 2094 
Q 2938 2591 2744 2837 
Q 2550 3084 2163 3084 
Q 1697 3084 1428 2787 
Q 1159 2491 1159 1978 
L 1159 0 
L 581 0 
L 581 4863 
L 1159 4863 
L 1159 2956 
Q 1366 3272 1645 3428 
Q 1925 3584 2291 3584 
Q 2894 3584 3203 3211 
Q 3513 2838 3513 2113 
z
" transform="scale(0.015625)"/>
       <path id="DejaVuSans-67" d="M 2906 1791 
Q 2906 2416 2648 2759 
Q 2391 3103 1925 3103 
Q 1463 3103 1205 2759 
Q 947 2416 947 1791 
Q 947 1169 1205 825 
Q 1463 481 1925 481 
Q 2391 481 2648 825 
Q 2906 1169 2906 1791 
z
M 3481 434 
Q 3481 -459 3084 -895 
Q 2688 -1331 1869 -1331 
Q 1566 -1331 1297 -1286 
Q 1028 -1241 775 -1147 
L 775 -588 
Q 1028 -725 1275 -790 
Q 1522 -856 1778 -856 
Q 2344 -856 2625 -561 
Q 2906 -266 2906 331 
L 2906 616 
Q 2728 306 2450 153 
Q 2172 0 1784 0 
Q 1141 0 747 490 
Q 353 981 353 1791 
Q 353 2603 747 3093 
Q 1141 3584 1784 3584 
Q 2172 3584 2450 3431 
Q 2728 3278 2906 2969 
L 2906 3500 
L 3481 3500 
L 3481 434 
z
" transform="scale(0.015625)"/>
       <path id="DejaVuSans-3d" d="M 678 2906 
L 4684 2906 
L 4684 2381 
L 678 2381 
L 678 2906 
z
M 678 1631 
L 4684 1631 
L 4684 1100 
L 678 1100 
L 678 1631 
z
" transform="scale(0.015625)"/>
       <path id="DejaVuSans-2e" d="M 684 794 
L 1344 794 
L 1344 0 
L 684 0 
L 684 794 
z
" transform="scale(0.015625)"/>
      </defs>
      <use xlink:href="#DejaVuSans-45"/>
      <use xlink:href="#DejaVuSans-78" x="63.183594"/>
      <use xlink:href="#DejaVuSans-70" x="122.363281"/>
      <use xlink:href="#DejaVuSans-6f" x="185.839844"/>
      <use xlink:href="#DejaVuSans-6e" x="247.021484"/>
      <use xlink:href="#DejaVuSans-65" x="310.400391"/>
      <use xlink:href="#DejaVuSans-6e" x="371.923828"/>
      <use xlink:href="#DejaVuSans-74" x="435.302734"/>
      <use xlink:href="#DejaVuSans-69" x="474.511719"/>
      <use xlink:href="#DejaVuSans-61" x="502.294922"/>
      <use xlink:href="#DejaVuSans-6c" x="563.574219"/>
      <use xlink:href="#DejaVuSans-20" x="591.357422"/>
      <use xlink:href="#DejaVuSans-53" x="623.144531"/>
      <use xlink:href="#DejaVuSans-6d" x="686.621094"/>
      <use xlink:href="#DejaVuSans-6f" x="784.033203"/>
      <use xlink:href="#DejaVuSans-6f" x="845.214844"/>
      <use xlink:href="#DejaVuSans-74" x="906.396484"/>
      <use xlink:href="#DejaVuSans-68" x="945.605469"/>
      <use xlink:href="#DejaVuSans-69" x="1008.984375"/>
      <use xlink:href="#DejaVuSans-6e" x="1036.767578"/>
      <use xlink:href="#DejaVuSans-67" x="1100.146484"/>
      <use xlink:href="#DejaVuSans-20" x="1163.623047"/>
      <use xlink:href="#DejaVuSans-61" x="1195.410156"/>
      <use xlink:href="#DejaVuSans-20" x="1256.689453"/>
      <use xlink:href="#DejaVuSans-3d" x="1288.476562"/>
      <use xlink:href="#DejaVuSans-20" x="1372.265625"/>
      <use xlink:href="#DejaVuSans-30" x="1404.052734"/>
      <use xlink:href="#DejaVuSans-2e" x="1467.675781"/>
      <use xlink:href="#DejaVuSans-32" x="1499.462891"/>
     </g>
    </g>
   </g>
  </g>
 </g>
 <defs>
  <clipPath id="p1b2c107f3b">
   <rect x="115.2" y="86.4" width="1252.8" height="583.2"/>
  </clipPath>
 </defs>
</svg>
